<svg width="309" height="358" viewBox="0 0 309 358" fill="none" xmlns="http://www.w3.org/2000/svg">
<path d="M263.206 40.7529C286.189 57.7637 298.73 84.2528 303.406 111.863C306.183 132.614 302.916 156.133 289.957 173.128C280.779 184.084 271.147 191.178 257 194.464C254.243 194.675 251.627 194.799 248.875 194.777C247.762 194.768 247.762 194.768 246.626 194.76C230.895 194.418 217.855 188.644 206 178.464C205.188 177.797 204.376 177.129 203.539 176.441C196.949 170.824 191.835 164.633 187 157.464C186.321 156.463 185.641 155.461 184.941 154.429C176.058 140.177 169.872 122.277 169 105.464C168.959 104.761 168.918 104.057 168.876 103.332C167.798 82.337 172.323 61.8261 186.164 45.4175C207.775 22.427 238.166 23.0231 263.206 40.7529Z" fill="#FD2B66"/>
<path d="M114 36.4642C128.088 46.5186 136.417 62.8162 139.596 79.5682C143.817 109.859 136.772 138.466 118.798 163.113C107.523 178.017 92.2881 190.275 73.6132 193.988C58.0409 196.042 44.8211 194.58 31.6249 185.277C17.201 173.653 8.70176 156.206 6.3163 137.96C3.7546 109.655 11.2464 81.0238 28.7499 58.4017C36.467 49.1531 44.4512 41.3715 54.9999 35.4642C55.6522 35.0775 56.3044 34.6908 56.9765 34.2923C75.5623 24.0108 96.2007 25.4997 114 36.4642Z" fill="#FD2B66"/>
<path d="M292 89.4644C294.219 92.7927 295.087 95.962 296.062 99.7769C296.236 100.428 296.409 101.08 296.588 101.751C302.143 123.015 299.801 145.943 289.473 165.332C282.543 177.103 272.469 185.292 259.332 189.273C244.686 192.565 230.595 189.148 217.745 181.584C198.849 169.456 184.225 148.729 178.055 127.16C177.609 124.945 177.285 122.706 177 120.464C178.155 121.083 179.31 121.702 180.5 122.339C187.423 125.783 194.355 126.792 202 127.464C203.757 132.438 205.326 137.206 206 142.464C206.701 141.969 207.402 141.474 208.125 140.964C211.515 139.196 213.224 138.925 217 139.464C221.923 142.123 225.483 145.43 228 150.464C228.04 152.464 228.043 154.465 228 156.464C232.595 154.432 235.214 152.869 237.438 148.277C240.408 140.487 239.081 133.326 237 125.464C238.134 125.114 239.269 124.763 240.438 124.402C269.179 114.935 269.179 114.935 291 95.4644C291.797 92.2767 291.797 92.2767 292 89.4644Z" fill="#FCFDFD"/>
<path d="M16 91.4644C16.2764 92.0541 16.5528 92.6438 16.8376 93.2515C20.421 100.073 25.9143 104.151 32.4375 107.964C33.2274 108.435 34.0172 108.906 34.831 109.391C45.5312 115.665 56.5452 120.568 68.3672 124.324C69.236 124.7 70.1048 125.077 71 125.464C72 128.464 72 128.464 71 131.464C70.3235 139.07 70.0022 145.603 74.5156 152.011C76.2002 153.66 77.849 154.527 80 155.464C80.0825 154.598 80.165 153.732 80.25 152.839C81.4153 147.596 83.7374 144.531 87.8125 141.089C91.6206 139.148 93.7787 138.85 98 139.464C100.937 141.464 100.937 141.464 103 143.464C103.48 141.715 103.959 139.964 104.437 138.214C104.704 137.24 104.971 136.265 105.246 135.261C105.855 133 106.436 130.737 107 128.464C108.218 128.21 109.436 127.956 110.691 127.695C112.315 127.348 113.939 127 115.562 126.652C116.362 126.486 117.162 126.321 117.986 126.15C122.973 125.071 127.378 123.63 132 121.464C130.581 137.424 121.297 152.626 111 164.464C110.166 165.526 109.332 166.589 108.5 167.652C97.1982 180.366 81.9813 189.014 64.9023 190.667C51.1761 190.995 38.828 186.132 28.75 176.839C12.5517 159.294 10.3331 138.485 10.8506 115.604C11.2496 107.22 13.2758 99.3763 16 91.4644Z" fill="#FDFDFD"/>
<path d="M57 121.464C60.3163 122.088 63.5284 122.834 66.75 123.839C67.5286 124.074 68.3072 124.309 69.1094 124.55C69.7333 124.852 70.3572 125.154 71 125.464C72 128.464 72 128.464 71 131.464C70.3235 139.07 70.0022 145.603 74.5156 152.011C76.2002 153.66 77.849 154.527 80 155.464C80.0825 154.598 80.165 153.732 80.25 152.839C81.4153 147.596 83.7374 144.531 87.8125 141.089C91.6206 139.148 93.7787 138.85 98 139.464C100.937 141.464 100.937 141.464 103 143.464C103.48 141.715 103.959 139.964 104.437 138.214C104.704 137.24 104.971 136.265 105.246 135.261C105.855 133.001 106.442 130.738 107 128.464C109.291 127.962 111.583 127.462 113.875 126.964C115.789 126.547 115.789 126.547 117.742 126.121C121 125.464 121 125.464 123 125.464C123.26 131.902 122.681 136.879 120.437 142.902C120.167 143.64 119.897 144.379 119.618 145.14C117.263 151.289 114.321 156.462 110 161.464C109.309 162.265 108.618 163.065 107.906 163.89C102.881 169.296 97.8013 172.661 91 175.464C90.184 175.828 89.368 176.191 88.5273 176.566C82.2335 178.803 75.7784 178.198 69.75 175.464C61.7203 170.927 56.8942 164.131 54 155.464C51.1107 143.694 53.4656 132.73 57 121.464Z" fill="#90FDDA"/>
<path d="M253 121.464C255.613 128.734 256.494 135.262 256.437 142.964C256.457 143.932 256.477 144.901 256.498 145.898C256.491 155.763 253.647 163.571 246.867 170.773C241.188 175.918 235.107 177.87 227.551 177.734C216.066 176.52 206.183 169.472 198.75 160.964C190.87 150.501 186.775 138.491 187 125.464C194.425 126.454 194.425 126.454 202 127.464C203.747 132.478 205.322 137.178 206 142.464C207.052 141.722 207.052 141.722 208.125 140.964C211.515 139.196 213.224 138.925 217 139.464C221.923 142.123 225.483 145.43 228 150.464C228.04 152.464 228.043 154.465 228 156.464C232.595 154.432 235.214 152.869 237.437 148.277C240.408 140.487 239.081 133.326 237 125.464C249 121.464 249 121.464 253 121.464Z" fill="#90FDDA"/>
<path d="M114 36.4642C128.088 46.5186 136.417 62.8162 139.596 79.5682C143.817 109.859 136.772 138.466 118.798 163.113C107.523 178.017 92.2881 190.275 73.6132 193.988C58.0409 196.042 44.8211 194.58 31.6249 185.277C17.201 173.653 8.70176 156.206 6.3163 137.96C3.7546 109.655 11.2464 81.0238 28.7499 58.4017C36.467 49.1531 44.4512 41.3715 54.9999 35.4642C55.6522 35.0775 56.3044 34.6908 56.9765 34.2923C75.5623 24.0108 96.2007 25.4997 114 36.4642ZM39.9999 52.4642C39.3979 52.9927 38.7959 53.5213 38.1757 54.0658C24.2231 66.7499 15.2735 87.1751 11.9999 105.464C11.8194 106.471 11.639 107.478 11.453 108.515C8.92109 130.582 10.3051 153.601 24.4765 171.757C34.0885 183.273 45.5525 189.025 60.3983 190.742C76.7909 191.481 91.6029 182.859 103.625 172.652C112.162 164.819 118.228 155.437 124 145.464C124.463 144.701 124.925 143.938 125.402 143.152C136.302 123.651 140.213 94.9527 134.375 73.4642C133.648 71.4399 132.858 69.4366 132 67.4642C131.564 66.4278 131.128 65.3914 130.68 64.3236C124.012 49.8233 113.6 39.8677 98.9999 33.4642C76.7977 26.7862 55.6262 37.3032 39.9999 52.4642Z" fill="#181818"/>
<path d="M263.206 40.7529C286.189 57.7637 298.73 84.2528 303.406 111.863C306.183 132.614 302.916 156.133 289.957 173.128C280.779 184.084 271.147 191.178 257 194.464C254.243 194.675 251.627 194.799 248.875 194.777C247.762 194.768 247.762 194.768 246.626 194.76C230.895 194.418 217.855 188.644 206 178.464C205.188 177.797 204.376 177.129 203.539 176.441C196.949 170.824 191.835 164.633 187 157.464C186.321 156.463 185.641 155.461 184.941 154.429C176.058 140.177 169.872 122.277 169 105.464C168.959 104.761 168.918 104.057 168.876 103.332C167.798 82.337 172.323 61.8261 186.164 45.4175C207.775 22.427 238.166 23.0231 263.206 40.7529ZM194 43.4644C193.345 44.0148 192.69 44.5652 192.016 45.1323C180.691 55.4253 173.696 71.578 172.875 86.773C172.525 98.3925 172.713 109.244 176 120.464C176.255 121.404 176.511 122.344 176.773 123.312C180.959 137.27 187.627 151.282 197 162.464C197.709 163.323 198.418 164.181 199.148 165.066C211.402 179.298 226.499 188.521 245.356 190.742C256.161 191.234 266.363 187.791 275 181.464C275.771 180.9 276.542 180.335 277.336 179.753C290.975 168.721 297.193 151.437 299 134.464C301.071 107.234 293.252 79.6562 275.563 58.5894C264.964 46.4291 249.686 33.4932 232.839 32.313C217.59 31.5683 205.829 33.0516 194 43.4644Z" fill="#181818"/>
<path d="M292 89.4644C294.219 92.7927 295.087 95.962 296.062 99.7769C296.236 100.428 296.409 101.08 296.588 101.751C302.143 123.015 299.801 145.943 289.473 165.332C282.543 177.103 272.469 185.292 259.332 189.273C243.803 192.764 229.402 188.501 216 180.464C215.67 179.804 215.34 179.144 215 178.464C225 180.464 225 180.464 227.445 181.019C240.753 183.339 251.883 180.903 263.023 173.585C274.592 165.342 282.873 151.165 285.331 137.16C285.449 136.415 285.566 135.67 285.688 134.902C285.814 134.117 285.941 133.332 286.071 132.523C287.416 123.595 287.557 114.897 286.188 105.964C285.699 101.98 285.699 101.98 287.012 99.73C288.313 98.2827 289.656 96.8724 291 95.4644C291.874 92.24 291.874 92.24 292 89.4644Z" fill="#CAC9C9"/>
<path d="M16.0001 91.4644C16.2269 92.0006 16.4538 92.5369 16.6876 93.0894C17.9431 95.6677 17.9431 95.6677 20.5782 97.7808C24.638 102.605 23.3384 108.852 23.0626 114.777C22.6533 133.764 25.8231 151.154 37.8751 166.527C47.6264 176.678 59.4611 181.409 73.3126 181.777C80.1441 181.68 86.4327 180.247 93.0001 178.464C94.3327 178.128 95.6658 177.794 97.0001 177.464C87.3748 186.127 73.4862 190.909 60.6094 190.671C47.5375 189.634 35.833 184.511 26.8712 174.804C11.7312 155.871 8.82277 133.539 11.2667 109.884C12.2113 103.534 13.9146 97.5214 16.0001 91.4644Z" fill="#CACACA"/>
<path d="M92 2.46442C93.1834 2.8492 93.1834 2.8492 94.3906 3.24176C100.727 5.50599 108.845 9.15466 112 15.4644C107.921 14.8066 104.164 13.5503 100.281 12.1832C83.6017 6.92796 66.535 11.7227 51.5625 19.4644C35.6883 27.9874 21.7838 38.9486 8 50.4644C6.84769 51.4241 5.69535 52.3837 4.54297 53.3433C3.70379 54.0433 2.86461 54.7432 2 55.4644C1.34 55.1344 0.68 54.8044 0 54.4644C5.46346 46.224 11.1361 38.6262 18 31.4644C18.8044 30.6188 19.6087 29.7732 20.4375 28.9019C21.2831 28.0975 22.1288 27.2932 23 26.4644C23.6703 25.8109 24.3406 25.1573 25.0312 24.4839C42.0707 8.41268 68.1092 -5.89737 92 2.46442Z" fill="#171717"/>
<path d="M256 4.46416C257.45 4.99203 257.45 4.99203 258.93 5.53057C280.62 13.892 297.158 30.075 308.172 50.2571C309 52.4642 309 52.4642 308 55.4642C307.334 54.7745 306.667 54.0849 305.98 53.3743C299.653 46.9232 293.164 40.9958 286 35.4642C285.438 35.0257 284.876 34.5873 284.297 34.1355C260.984 16.0492 237.452 8.22723 208 7.46416C209 5.46416 209 5.46416 211.387 4.39385C225.324 -0.0595129 242.218 -1.05288 256 4.46416Z" fill="#161616"/>
<path d="M238 127.464C240.457 134.683 241.239 141.061 238.313 148.277C236.493 151.968 234.612 154.334 231 156.464C230.01 156.464 229.02 156.464 228 156.464C227.773 155.268 227.546 154.072 227.313 152.839C226.004 147.604 223.519 144.252 219.063 141.089C214.276 139.639 210.448 140.371 206 142.464C203.899 137.387 202.921 133.998 203 128.464C204.196 128.427 204.196 128.427 205.415 128.388C209.027 128.272 212.638 128.15 216.25 128.027C217.504 127.988 218.759 127.948 220.051 127.908C221.256 127.866 222.461 127.824 223.703 127.781C224.813 127.744 225.924 127.708 227.067 127.67C236.569 127.004 236.569 127.004 238 127.464Z" fill="#111111"/>
<path d="M71.9999 126.464C73.2155 126.618 74.4311 126.771 75.6835 126.929C81.7968 127.608 87.9182 127.811 94.0624 128.027C95.7901 128.092 95.7901 128.092 97.5526 128.158C100.368 128.263 103.184 128.365 106 128.464C106.041 129.89 106.07 131.316 106.094 132.742C106.12 133.933 106.12 133.933 106.146 135.148C105.941 138.396 104.686 140.725 103 143.464C99.1249 141.589 99.1249 141.589 97.9999 140.464C92.8089 139.841 89.6222 140.545 85.578 143.687C82.5914 147.051 81.3246 151.227 79.9999 155.464C75.3458 153.869 73.3948 152.284 70.9452 148.085C68.4737 141.233 68.9222 133.028 71.9999 126.464Z" fill="#101010"/>
<path d="M97.9998 139.464C101.206 142.329 102.788 144.192 103.5 148.464C102.474 154.618 99.6756 158.438 94.8983 162.257C91.8734 164.181 89.5552 164.596 85.9998 164.464C83.1974 162.82 81.4489 161.705 80.3241 158.597C79.5656 153.608 81.1723 148.777 83.8123 144.589C88.2547 140.274 91.6855 138.45 97.9998 139.464Z" fill="#F9FBFB"/>
<path d="M213.938 138.902C219.964 140.009 223.544 143.6 227 148.464C228.156 150.777 228.199 152.265 228.25 154.839C228.276 155.61 228.302 156.381 228.328 157.175C227.909 160.102 227.11 161.401 225 163.464C221.042 164.452 216.84 164.327 213.117 162.582C208.113 158.784 206.331 153.865 205.5 147.839C206 144.464 206 144.464 208.125 141.527C211 139.464 211 139.464 213.938 138.902Z" fill="#FBFCFC"/>
<path d="M183 157.464C185.91 158.919 186.091 160.835 187.25 163.839C193.68 179.617 202.871 193.034 218.637 200.585C223.602 202.432 228.817 203.421 234 204.464C228.693 207.426 223.942 207.126 218.098 205.812C206.23 202.253 196.646 195.386 190.344 184.64C185.712 175.774 182.44 167.545 183 157.464Z" fill="#111111"/>
<path d="M127 157.464C127.33 157.464 127.66 157.464 128 157.464C129.244 169.074 123.816 181.224 116.852 190.351C110.528 197.569 101.904 204.861 91.9243 205.623C89.6545 205.66 87.3945 205.639 85.125 205.589C83.9494 205.576 83.9494 205.576 82.75 205.562C80.8332 205.539 78.9166 205.503 77 205.464C79.9679 203.836 82.7041 203.008 86 202.277C100.842 198.314 110.402 188.952 118.035 176.074C121.393 170.053 124.212 163.764 127 157.464Z" fill="#101010"/>
<path d="M132 121.464C131.166 130.845 127.372 139.078 123.062 147.339C122.577 148.285 122.577 148.285 122.082 149.25C119.899 153.313 117.487 156.443 114 159.464C113.34 159.464 112.68 159.464 112 159.464C113.114 156.493 114.391 153.7 115.875 150.902C119.269 144.164 122.062 137.057 122.25 129.464C122.391 127.312 122.391 127.312 123 125.464C125.457 123.494 128.735 121.464 132 121.464Z" fill="#F5F7F7"/>
<path d="M113.445 234.415C130.074 243.767 148.276 247.588 167.195 242.29C175.944 239.005 184.231 234.448 192.457 230.044C205.421 223.249 221.585 219.483 236.07 223.915C237.462 224.503 238.836 225.132 240.195 225.79C241.605 226.394 241.605 226.394 243.043 227.009C256.743 233.244 266.342 243.309 272.008 257.228C279.375 278.118 277.518 299.241 268.44 319.229C262.878 330.757 254.907 340.76 242.805 345.783C226.789 351.351 207.454 350.306 192.116 343.174C185.019 339.675 178.578 335.519 172.258 330.771C161.245 323.649 147.845 324.512 135.195 325.79C130.563 326.788 126.962 328.952 123.195 331.79C122.251 332.463 121.306 333.136 120.332 333.829C118.444 335.194 116.567 336.573 114.703 337.97C100.278 348.441 81.4891 350.097 64.1954 348.79C52.183 346.695 42.3284 339.406 35.1095 329.751C28.8949 320.138 24.1846 310.125 22.1954 298.79C21.8551 296.903 21.8551 296.903 21.5079 294.978C19.6085 275.417 22.8546 257.837 34.3322 241.806C39.4384 235.755 45.3197 231.636 52.1954 227.79C53.2473 227.192 54.2992 226.594 55.3829 225.978C75.7501 217.378 95.3722 224.228 113.445 234.415Z" fill="#72010F"/>
<path d="M117.04 241.563C132.326 249.84 150.474 252.327 167.617 247.864C171.328 246.441 174.737 244.724 178.195 242.79C181.083 241.257 183.979 239.739 186.876 238.223C188.865 237.173 190.846 236.105 192.816 235.018C202.193 229.928 211.056 227.222 221.758 227.415C222.583 227.425 223.408 227.436 224.258 227.446C230.314 227.6 235.638 228.242 241.195 230.79C242.106 231.204 243.016 231.618 243.953 232.044C250.498 235.316 255.356 239.327 260.195 244.79C228.909 271.485 178.171 280.114 138.195 277.79C137.341 277.741 136.487 277.692 135.607 277.641C100.694 275.389 66.2481 265.608 37.1954 245.79C59.2033 218.134 90.5192 227.102 117.04 241.563Z" fill="#FDFCFC"/>
<path d="M180.195 294.79C181.009 294.989 181.822 295.188 182.659 295.392C208.559 301.909 232.949 312.5 254.195 328.79C253.647 332.526 252.308 333.972 249.383 336.29C237.734 344.754 223.931 345.483 210.022 343.477C197.021 341.026 186.167 334.724 175.445 327.305C163.184 318.843 149.488 317.81 134.899 320.368C128.135 322.623 122.134 326.685 116.094 330.408C99.1322 340.829 82.0793 347.139 61.8868 343.134C55.4394 341.012 49.156 337.445 44.1954 332.79C43.422 330.572 43.422 330.572 43.1954 328.79C80.686 299.64 133.286 283.234 180.195 294.79Z" fill="#FDFCFC"/>
<path d="M113.445 234.415C130.074 243.767 148.276 247.588 167.195 242.29C175.944 239.005 184.231 234.448 192.457 230.044C205.421 223.249 221.585 219.483 236.07 223.915C237.462 224.503 238.836 225.132 240.195 225.79C241.605 226.394 241.605 226.394 243.043 227.009C256.743 233.244 266.342 243.309 272.008 257.228C279.375 278.118 277.518 299.241 268.44 319.229C262.878 330.757 254.907 340.76 242.805 345.783C226.789 351.351 207.454 350.306 192.116 343.174C185.019 339.675 178.578 335.519 172.258 330.771C161.245 323.649 147.845 324.512 135.195 325.79C130.563 326.788 126.962 328.952 123.195 331.79C122.251 332.463 121.306 333.136 120.332 333.829C118.444 335.194 116.567 336.573 114.703 337.97C100.278 348.441 81.4891 350.097 64.1954 348.79C52.183 346.695 42.3284 339.406 35.1095 329.751C28.8949 320.138 24.1846 310.125 22.1954 298.79C21.8551 296.903 21.8551 296.903 21.5079 294.978C19.6085 275.417 22.8546 257.837 34.3322 241.806C39.4384 235.755 45.3197 231.636 52.1954 227.79C53.2473 227.192 54.2992 226.594 55.3829 225.978C75.7501 217.378 95.3722 224.228 113.445 234.415ZM37.1954 244.79C36.5409 246.804 36.5409 246.804 36.1954 248.79C35.4503 250.015 34.6763 251.222 33.8829 252.415C24.7863 268.52 25.4408 289.56 30.1954 306.79C32.5138 313.713 35.5289 319.812 39.7658 325.755C41.1954 327.79 41.1954 327.79 42.5939 330.322C46.7231 336.687 54.8165 340.807 61.8869 343.134C86.2258 347.962 106.412 337.57 126.141 324.482C133.54 320.385 140.307 319.305 148.695 319.415C149.581 319.404 150.467 319.392 151.379 319.38C161.027 319.423 168.174 322.349 176.133 327.603C177.529 328.496 178.924 329.39 180.32 330.283C181.612 331.118 182.904 331.954 184.195 332.79C190.348 336.734 196.084 339.965 203.195 341.79C203.834 341.958 204.473 342.126 205.131 342.299C218.786 345.647 234.372 345.632 246.672 338.318C259.051 329.562 266.881 313.075 269.758 298.419C271.739 281.986 271.258 263.779 261.465 249.771C260.158 247.732 259.775 246.114 259.195 243.79C254.027 235.839 242.653 230.669 233.766 228.083C229.906 227.643 226.078 227.524 222.195 227.478C221.421 227.449 220.646 227.42 219.848 227.39C207.601 227.261 197.074 232.515 186.57 238.29C173.647 245.344 163.726 249.485 148.82 249.353C147.596 249.377 146.371 249.401 145.11 249.425C132.063 249.404 121.968 244.476 110.758 238.29C86.1382 225.184 57.6742 221.178 37.1954 244.79Z" fill="#1B1A1A"/>
<path d="M165.055 350.228C167.619 352.099 169.472 354.126 171.195 356.79C167.636 356.202 164.414 355.163 161.032 353.923C154.056 351.449 147.669 350.324 140.258 350.353C139.106 350.357 139.106 350.357 137.931 350.36C130.19 350.562 123.135 352.047 116.133 355.415C114.723 356.084 114.723 356.084 113.285 356.767C112.596 357.105 111.906 357.442 111.195 357.79C114.362 350.657 121.155 346.621 128.195 343.79C140.748 339.661 154.326 343.48 165.055 350.228Z" fill="#191919"/>
<path d="M117.195 349.79C117.855 350.12 118.515 350.45 119.195 350.79C117.167 353.732 115.137 355.761 112.195 357.79C112.195 354.79 112.195 354.79 114.695 352.103C115.52 351.34 116.345 350.577 117.195 349.79Z" fill="#3C3C3C"/>
</svg>
