<svg width="348" height="309" viewBox="0 0 348 309" fill="none" xmlns="http://www.w3.org/2000/svg">
<path d="M249.25 46.375C250.849 47.5627 252.433 48.7704 254 50C255.048 50.8179 255.048 50.8179 256.117 51.6524C271.916 64.7154 284.076 87.3312 286.794 107.728C287.248 112.726 287.287 117.734 287.313 122.75C287.321 124.33 287.321 124.33 287.33 125.943C287.164 143.784 281.531 160.965 269 174C256.981 184.139 244.595 187.31 229 186C211.609 183.205 196.334 171.603 185.813 157.813C179.825 149.151 175.044 139.706 171 130C170.648 131.016 170.296 132.032 169.934 133.078C164.745 147.706 157.956 159.028 147 170C146.32 170.692 145.639 171.384 144.938 172.098C133.955 182.508 119.492 186.694 104.653 186.348C95.6693 185.493 88.6917 181.908 82.0002 176C80.9812 175.138 80.9812 175.138 79.9416 174.258C68.644 163.964 63.6522 147.55 62.8088 132.609C62.3839 106.892 71.7503 83.9999 89.2502 65.25C100.683 54.2754 113.797 48.3687 129.509 48.5972C135.113 48.8067 139.956 49.409 145 52C145.805 52.3906 146.609 52.7812 147.438 53.1836C156.614 58.1216 163.363 65.7251 168 75C169.834 72.2498 171.211 69.4876 172.613 66.5034C179.522 51.9731 188.739 42.6902 204 37C218.841 32.1385 236.934 37.9565 249.25 46.375Z" fill="#FCFDFD"/>
<path d="M216.25 40.6876C217.098 40.6932 217.945 40.6988 218.818 40.7047C234.266 41.0045 246.978 48.394 258 59.0001C277.061 80.0675 284.089 105.19 283.179 133.198C282.21 148.359 275.222 162.83 264 173C253.325 181.053 242.217 183.228 229 182C224.769 181.098 220.956 179.737 217 178C216.111 177.622 215.221 177.245 214.305 176.856C199.563 169.742 188.098 156.426 181.375 141.75C180.988 140.915 180.601 140.08 180.203 139.22C170.775 118.559 166.765 94.0513 174.684 72.1041C180.323 58.2114 189.882 47.7154 203.754 41.8321C207.971 40.7511 211.913 40.6576 216.25 40.6876Z" fill="#FDFEFD"/>
<path d="M227.375 49.0625C241.172 57.1463 247.897 68.9853 252.613 83.9453C254.598 94.4921 253.406 105.99 247.644 115.156C243.607 120.265 239.333 123.606 232.793 124.379C222.12 124.737 214.888 122.739 206.75 115.812C196.576 106.036 190.071 93.2499 189.707 79.0229C189.614 68.6887 190.897 60.2533 198.328 52.4726C206.359 45.3987 217.706 44.5561 227.375 49.0625Z" fill="#90FDDA"/>
<path d="M249.25 46.375C250.849 47.5627 252.433 48.7704 254 50C255.048 50.8179 255.048 50.8179 256.117 51.6524C271.916 64.7154 284.076 87.3312 286.794 107.728C287.248 112.726 287.287 117.734 287.313 122.75C287.321 124.33 287.321 124.33 287.33 125.943C287.164 143.784 281.531 160.965 269 174C256.981 184.139 244.595 187.31 229 186C211.609 183.205 196.334 171.603 185.813 157.813C179.825 149.151 175.044 139.706 171 130C170.648 131.016 170.296 132.032 169.934 133.078C164.745 147.706 157.956 159.028 147 170C146.32 170.692 145.639 171.384 144.938 172.098C133.955 182.508 119.492 186.694 104.653 186.348C95.6693 185.493 88.6917 181.908 82.0002 176C80.9812 175.138 80.9812 175.138 79.9416 174.258C68.644 163.964 63.6522 147.55 62.8088 132.609C62.3839 106.892 71.7503 83.9999 89.2502 65.25C100.683 54.2754 113.797 48.3687 129.509 48.5972C135.113 48.8067 139.956 49.409 145 52C145.805 52.3906 146.609 52.7812 147.438 53.1836C156.614 58.1216 163.363 65.7251 168 75C169.834 72.2498 171.211 69.4876 172.613 66.5034C179.522 51.9731 188.739 42.6902 204 37C218.841 32.1385 236.934 37.9565 249.25 46.375ZM184.375 55.5625C172.29 70.2048 169.595 88.5887 171 107C172.114 118.416 175.151 128.641 180 139C180.285 139.627 180.57 140.253 180.863 140.898C189.188 158.939 203.166 172.978 222 180C233.643 183.845 245.502 182.998 256.516 177.816C269.913 170.563 276.879 158.317 281.375 144.188C287.471 119.373 281.154 93.4312 268.225 71.8907C258.931 57.5417 245.399 45.9955 228.692 41.3594C210.524 38.9336 197.286 42.1343 184.375 55.5625ZM90.0002 71C89.0624 71.9224 89.0624 71.9224 88.1056 72.8633C73.5296 88.2291 67.334 109.901 66.5627 130.625C67.0135 146.17 72.6878 161.479 83.426 172.801C93.1775 181.132 103.694 182.747 116.017 182.179C130.322 180.886 143.151 169.844 152.125 159.438C156.899 153.221 160.242 146.31 163 139C163.435 137.881 163.871 136.763 164.319 135.61C167.921 125.744 168.617 116.868 168.115 106.424C167.999 103.974 167.928 101.526 167.863 99.0742C167.807 97.4869 167.749 95.8997 167.688 94.3125C167.666 93.5947 167.644 92.8768 167.621 92.1372C167.014 80.5039 160.679 69.7493 152.352 61.8242C131.761 45.8513 107.038 53.7245 90.0002 71Z" fill="#191919"/>
<path d="M140.5 60.5624C148.124 67.9956 152.455 74.5948 153.129 85.5468C152.577 100.33 146.466 112.72 136 123C129.681 127.9 123.519 130.644 115.484 130.34C108.433 129.375 103.833 125.56 99.4766 120.109C93.995 112.278 94.0229 103.258 95 93.9999C97.7419 80.1438 105.732 69.8731 116.859 61.621C123.721 57.4133 133.281 57.3397 140.5 60.5624Z" fill="#90FDDA"/>
<path d="M243 48C260.45 56.9104 272.489 75.3614 278.641 93.6211C285.23 114.785 285.57 136.942 276.312 157.312C270.211 168.674 261.451 176.514 249.312 180.875C238.229 183.781 227.384 182.559 217 178C216.111 177.622 215.221 177.245 214.305 176.855C203.065 171.432 192.715 161.468 186 151C186 150.34 186 149.68 186 149C190.635 146.683 196.802 147.473 201.703 148.648C207.098 150.585 210.726 153.137 214.527 157.414C216.929 160 218.792 160.96 222.25 161.625C227.153 160.808 228.486 158.773 231.422 154.945C233 153 233 153 236 151C238.771 150.805 238.771 150.805 242.094 150.875C243.886 150.898 243.886 150.898 245.715 150.922C248.238 150.974 250.762 151.026 253.285 151.078C255.078 151.101 255.078 151.101 256.906 151.125C258.003 151.148 259.099 151.171 260.229 151.195C263.214 151.215 263.214 151.215 266 149C267.72 145.13 268.831 141.066 270 137C270.231 136.225 270.461 135.451 270.699 134.652C276.578 111.013 269.202 86.3977 257.263 66.0024C253.486 60.0143 248.911 53.941 243 50C243 49.34 243 48.68 243 48Z" fill="#8FFEDB"/>
<path d="M101 61C101.66 61.33 102.32 61.66 103 62C102.515 62.4989 102.031 62.9977 101.531 63.5117C85.7478 80.4183 77.8273 100.525 77.8125 123.438C77.8003 124.436 77.788 125.434 77.7754 126.463C77.7638 132.36 78.3116 137.349 80 143C80.223 143.884 80.446 144.769 80.6758 145.68C80.8859 146.404 81.096 147.129 81.3125 147.875C81.5149 148.615 81.7173 149.355 81.9258 150.117C83.4572 152.801 85.0985 153.071 88 154C90.4776 154.163 90.4776 154.163 93.0196 153.949C93.9599 153.911 94.9003 153.873 95.8692 153.834C97.8208 153.737 99.7715 153.62 101.721 153.482C107.261 153.297 110.393 153.735 114.699 157.395C116.643 159.284 116.643 159.284 118 161C118 161.66 118 162.32 118 163C124.781 163.542 127.777 161.716 132.859 157.434C134.077 156.39 135.286 155.336 136.484 154.27C140.032 151.298 143.732 151.888 148.125 151.938C148.879 151.942 149.633 151.947 150.41 151.951C152.273 151.963 154.137 151.981 156 152C149.567 166.341 136.136 175.464 122 181C113.261 183.931 101.716 182.817 93.3946 179.262C80.572 172.505 73.1348 161.067 68.8906 147.438C63.487 124.599 69.0266 101.529 81.0899 81.7773C86.6016 73.7634 93.609 67.2552 101 61Z" fill="#8FFEDA"/>
<path d="M287 233C292.077 235.733 294.552 238.913 297.125 243.938C298.968 247.428 300.766 250.71 303.258 253.797C305 256 305 256 304.75 258.313C304.379 259.148 304.379 259.148 304 260C300.998 259.681 299.446 259.49 297.375 257.215C296.921 256.463 296.467 255.712 296 254.938C295.502 254.131 295.005 253.324 294.492 252.492C294 251.67 293.507 250.847 293 250C292.042 248.521 291.084 247.041 290.125 245.563C288 242.255 288 242.255 288 240C286.61 239.721 285.212 239.478 283.812 239.25C283.035 239.111 282.258 238.972 281.457 238.828C277.805 239.084 276.548 240.392 274 243C272.273 245.715 270.851 248.549 269.437 251.438C263.258 263.871 263.258 263.871 259 266C253.691 266.625 250.839 265.843 246.769 262.637C244.126 260.191 241.788 257.531 239.48 254.77C236.801 251.468 236.801 251.468 232.625 250.625C228.294 251.073 227.722 251.744 225 255C223.772 257.133 222.608 259.303 221.5 261.5C216.647 271.118 216.647 271.118 211 273C208.766 273.274 208.766 273.274 206.25 273.375C205.43 273.424 204.61 273.473 203.766 273.524C196.649 272.177 192.323 266.366 188.25 260.813C184.65 255.898 184.65 255.898 180 252C176.585 251.416 176.585 251.416 173 252C168.298 255.874 165.664 260.673 162.687 265.875C158.539 272.911 154.526 279.237 147 283C143.097 283.375 140.585 283.268 137 281.625C129.733 275.267 125.735 266.828 121.773 258.199C119.859 254.745 118.123 252.425 115 250C112.24 250.05 112.24 250.05 110 251C109.769 251.881 109.538 252.761 109.301 253.668C106.925 262.13 105.304 266.131 97.9999 271C92.224 271.663 86.8173 271.844 81.4999 269.375C75.4862 263.662 72.6182 258.408 69.7714 250.746C67.8053 245.852 65.8712 243.486 60.9999 241C56.3479 240.405 56.3479 240.405 52.1874 242.188C48.9245 247.168 48.4804 252.196 47.9999 258C46.3499 257.67 44.6999 257.34 42.9999 257C42.5182 249.721 42.6928 244.087 46.9999 238C49.7041 235.006 52.7076 234.227 56.7186 233.883C62.0029 234.154 66.7925 236.043 70.7577 239.559C74.9325 244.641 77.1608 250.756 79.5077 256.828C81.0467 260.1 82.043 261.927 84.9999 264C88.5035 264.483 88.5035 264.483 92.2499 264.25C93.5132 264.214 94.7765 264.178 96.078 264.141C97.5244 264.071 97.5244 264.071 98.9999 264C100.349 260.841 101.263 257.947 101.812 254.563C102.883 249.711 104.132 247.209 108 244C112.448 242.941 115.95 243.559 120.125 245.313C127.289 252.009 131.256 261.254 135.324 270.031C136.983 272.97 138.069 274.389 141 276C145.574 276.169 147.446 275.494 150.875 272.438C154.388 267.941 156.894 262.795 159.597 257.791C162.767 252.072 165.994 248.003 172 245C176.819 244.21 180.835 244.397 184.937 247.188C189.13 250.683 192.318 255.014 195.5 259.417C198.514 263.569 200.752 266.617 205.937 267.5C210.085 266.823 211.25 265.132 214 262C215.878 258.75 217.504 255.429 219.156 252.059C221.451 248.251 224.036 245.982 228 244C231.173 243.275 233.826 243.245 237 244C240.752 246.603 243.845 249.713 247 253C248.02 254.001 249.04 255.001 250.062 256C250.702 256.66 251.341 257.32 252 258C253.066 259.296 253.066 259.296 255.562 259.063C256.769 259.032 256.769 259.032 258 259C258.445 258.138 258.445 258.138 258.899 257.259C260.271 254.623 261.666 251.999 263.062 249.375C263.528 248.471 263.994 247.568 264.475 246.637C269.443 237.376 275.512 229.681 287 233Z" fill="#191919"/>
<path d="M293 154C306.73 154.482 321.431 161.533 331.375 170.875C336.705 176.593 339.188 181.22 339.5 189.125C339.262 195.224 337.721 198.33 333.352 202.617C327.2 208.231 322.151 209.431 313.867 209.238C308.051 208.755 305.104 206.309 301.25 202.188C297 197.036 295.644 192.74 295.797 185.996C296 184 296 184 297 180.625C298.941 173.588 298.872 168.116 295.5 161.562C295.036 160.759 294.572 159.956 294.094 159.129C293 157 293 157 293 154Z" fill="#8DFBD8"/>
<path d="M58 163C56.125 167.75 56.125 167.75 55 170C54.9509 171.66 54.9634 173.321 55.0079 174.981C55.0246 175.98 55.0414 176.98 55.0586 178.01C55.1025 180.109 55.1544 182.208 55.2149 184.307C55.3002 190.362 55.014 194.692 52 200C46.7864 204.832 43.1692 205.474 36.1875 205.406C31.0657 204.754 27.6326 202.601 24 199C21.1965 194.547 20.4984 191.05 21.4375 185.973C23.4671 178.855 28.0207 174.112 34 170C51.6922 160.477 51.6922 160.477 58 163Z" fill="#8CFAD7"/>
<path d="M213.937 65.9375C216.998 67.5141 218.142 70.1555 220 73C223.111 75.0493 225.573 75.2218 229.25 75.125C230.588 75.0979 230.588 75.0979 231.953 75.0703C232.629 75.0471 233.304 75.0239 234 75C237.899 82.2057 239.52 88.4753 237.305 96.5273C235.846 100.308 234.551 102.554 231.375 105.125C225.821 106.565 220.844 106.627 215.754 103.715C209.552 98.7554 205.61 92.5926 204.559 84.6797C204.329 78.1884 204.54 73.8425 209 69C209.495 68.3606 209.99 67.7212 210.5 67.0625C212 66 212 66 213.937 65.9375Z" fill="#0F0F0F"/>
<path d="M335.172 129.258C337.234 130.738 339.122 132.293 341 134C341.779 134.698 341.779 134.698 342.574 135.41C345.916 138.848 346.998 142.217 347.25 146.875C347 149 347 149 345.125 152.062C340.856 154.709 337.894 154.818 333 154C327.118 152.492 322.784 149.997 318.188 146.062C312.722 141.399 306.77 139.207 300 137C300 135.68 300 134.36 300 133C310.783 126.594 323.438 122.462 335.172 129.258Z" fill="#8BF7D4"/>
<path d="M128 4.99983C131.507 7.48654 134.795 10.1358 138 12.9998C137.34 13.3298 136.68 13.6598 136 13.9998C134.303 13.2952 132.605 12.5854 130.949 11.7889C119.847 7.29474 104.113 8.84429 93.4023 13.3436C91.7182 14.1634 91.7182 14.1634 90 14.9998C89.393 15.295 88.786 15.5902 88.1606 15.8944C71.6085 24.1344 56.9194 35.9419 43 47.9998C42.67 47.3398 42.34 46.6798 42 45.9998C54.3449 26.05 72.1893 7.99323 95.4453 1.62483C106.251 -0.275121 118.239 -0.595366 128 4.99983Z" fill="#171717"/>
<path d="M129 76C132.815 76.545 134.524 78.1106 137 81C139.698 85.6104 139.791 89.7834 139 95C136.573 102.346 133.209 108.235 126.371 112.133C122.346 113.605 119.003 113.497 115 112C111.76 109.435 110.305 107.913 109 104C108.361 96.2439 108.268 90.3589 113 84C113.66 84.33 114.32 84.66 115 85C119.218 85.5752 120.688 85.2158 124.25 82.75C126.538 80.4626 127.897 78.9793 129 76Z" fill="#101010"/>
<path d="M33.8124 119.625C39.3026 122.471 44.5454 125.818 47.9999 131C47.9999 131.99 47.9999 132.98 47.9999 134C46.9958 134.086 45.9916 134.173 44.957 134.262C37.9385 134.954 31.7426 135.837 25.1874 138.625C17.9845 141.646 11.7607 142.426 4.37494 139.625C1.99994 138 1.99994 138 0.999941 136C0.579905 132.304 0.851589 130.303 2.49994 126.937C10.2306 117.854 22.681 114.943 33.8124 119.625Z" fill="#8BF9D6"/>
<path d="M278.547 12.8123C290.669 22.149 301.513 33.0127 306 47.9998C302.568 45.0749 299.147 42.1417 295.781 39.1405C284.216 28.8999 272.09 20.4436 258 13.9998C256.845 13.443 255.69 12.8861 254.5 12.3123C243.618 8.23164 232.483 7.08433 221 5.99983C222 3.99983 222 3.99983 224.16 3.14827C243.542 -2.01675 262.14 1.13647 278.547 12.8123Z" fill="#161616"/>
<path d="M243 48C260.45 56.9104 272.489 75.3614 278.641 93.6211C281.356 102.342 283.157 110.749 283.062 119.938C283.053 121.081 283.044 122.224 283.035 123.402C283.024 124.26 283.012 125.117 283 126C281.907 126.227 280.814 126.454 279.688 126.688C275.366 128.226 274.945 129.004 273 133C272.14 136.067 271.497 139.141 270.844 142.258C269.985 145.049 269.24 146.195 267 148C267.277 146.903 267.554 145.806 267.84 144.676C268.206 143.221 268.572 141.767 268.938 140.312C269.211 139.231 269.211 139.231 269.49 138.127C270.003 136.087 270.503 134.044 271 132C271.204 131.189 271.407 130.378 271.617 129.543C275.163 105.986 268.337 81.4268 254.663 62.1108C251.211 57.583 247.769 53.1792 243 50C243 49.34 243 48.68 243 48Z" fill="#C9CBCA"/>
<path d="M282 126C282.33 126 282.66 126 283 126C284.183 139.97 279.234 154.565 270.965 165.754C262.896 175.303 252.985 181.198 240.457 182.316C231.873 182.588 224.854 181.448 217 178C216.111 177.622 215.221 177.245 214.305 176.855C202.822 171.315 192.086 161.216 186 150C189.263 151.438 191.487 153.237 194.062 155.688C206.307 166.751 221.914 175.711 238.797 175.18C249.978 174.268 260.657 169.61 268.262 161.234C276.133 151.117 279.725 138.475 282 126Z" fill="#5AF7BB"/>
<path d="M293 154C306.73 154.482 321.431 161.533 331.375 170.875C336.705 176.593 339.188 181.22 339.5 189.125C339.262 195.224 337.721 198.33 333.352 202.617C327.2 208.231 322.151 209.431 313.867 209.238C308.051 208.755 305.104 206.309 301.25 202.188C297 197.036 295.644 192.74 295.797 185.996C296 184 296 184 297 180.625C298.941 173.588 298.872 168.116 295.5 161.562C295.036 160.759 294.572 159.956 294.094 159.129C293 157 293 157 293 154ZM299 159C299.33 160.114 299.66 161.227 300 162.375C301.329 167.672 301.89 173.559 300.508 178.902C299.062 184.876 298.713 192.545 301.688 198.062C305.104 202.403 308.28 205.544 313.945 206.238C320.629 206.466 326.579 205.119 331.641 200.504C335.29 196.299 336.381 192.721 336.27 187.176C335.458 180.626 331.333 175.452 326.668 171.023C318.672 164.959 308.945 160.421 299 159Z" fill="#0F1010"/>
<path d="M67 124C67.33 124 67.66 124 68 124C68.0864 124.825 68.1728 125.65 68.2618 126.5C70.2026 142.454 73.785 157.879 86.9375 168.438C94.3551 173.318 100.894 175.722 109.813 175.562C111.127 175.546 111.127 175.546 112.469 175.529C128.152 175.008 140.891 165.455 152 155C152.66 155.33 153.32 155.66 154 156C144.887 167.975 133.564 179.324 118 182C105.505 182.85 94.8151 181.878 84.7657 173.605C74.2497 164.043 68.6911 150.982 67 137C66.8017 132.651 66.805 128.348 67 124Z" fill="#5AF8BC"/>
<path d="M101 61C101.66 61.33 102.32 61.66 103 62C102.515 62.4989 102.031 62.9977 101.531 63.5117C84.7804 81.4544 77.7734 101.883 77.9374 125.938C77.9419 127.194 77.9464 128.45 77.9511 129.744C77.9628 132.829 77.9792 135.915 77.9999 139C77.3399 138.01 76.6799 137.02 75.9999 136C73.4079 133.062 71.8104 131.781 67.9999 131C66.909 109.909 73.3877 90.3733 86.9999 74C91.3606 69.2877 95.7649 64.7427 101 61Z" fill="#C9CACA"/>
<path d="M302 168C304.798 170.798 304.683 173.243 305.312 177.125C306.737 184.952 308.853 190.073 314.687 195.5C319.789 197.81 324.827 197.986 330.199 196.316C331.835 195.623 333.425 194.822 335 194C333.602 198.893 331.096 201.086 327 204C321.735 206.457 315.563 207.293 310.008 205.277C305.037 202.643 301.776 199.327 300 194C299.446 185.158 300.408 176.687 302 168Z" fill="#56F8BA"/>
<path d="M58 163C56.125 167.75 56.125 167.75 55 170C54.9509 171.66 54.9634 173.321 55.0079 174.981C55.0246 175.98 55.0414 176.98 55.0586 178.01C55.1025 180.109 55.1544 182.208 55.2149 184.307C55.3002 190.362 55.014 194.692 52 200C46.7864 204.832 43.1692 205.474 36.1875 205.406C31.0657 204.754 27.6326 202.601 24 199C21.1965 194.547 20.4984 191.05 21.4375 185.973C23.4671 178.855 28.0207 174.112 34 170C51.6922 160.477 51.6922 160.477 58 163ZM30.4258 177.242C25.9619 182.352 24.5779 185.721 24.6563 192.524C24.8389 195.261 24.8389 195.261 27.125 197.938C32.6186 201.879 36.1416 203.622 42.8829 202.578C46.6938 201.538 49.0523 199.521 51.1172 196.207C52.1971 193.508 52.2314 191.401 52.1875 188.5C52.1811 187.562 52.1747 186.623 52.168 185.656C52.0176 183.278 51.5965 181.292 51 179C50.7294 174.924 50.6964 170.911 52 167C44.8641 167 35.7542 172.601 30.4258 177.242Z" fill="#141514"/>
<path d="M335.172 129.258C337.234 130.738 339.122 132.293 341 134C341.779 134.698 341.779 134.698 342.574 135.41C345.916 138.848 346.998 142.217 347.25 146.875C347 149 347 149 345.125 152.062C340.856 154.709 337.894 154.818 333 154C327.118 152.492 322.784 149.997 318.188 146.062C312.722 141.399 306.77 139.207 300 137C300 135.68 300 134.36 300 133C310.783 126.594 323.438 122.462 335.172 129.258ZM305 134C307.969 136.106 307.969 136.106 311.438 137.5C316.688 140.047 320.831 143.926 325.168 147.758C329.99 151.576 333.855 152.569 340 152C342.083 151.083 342.083 151.083 343 149C343.537 144.932 343.281 142.585 341.5 138.875C336.741 133.402 331.308 130.352 324.082 129.762C316.748 129.595 311.387 130.303 305 134Z" fill="#121212"/>
<path d="M225 53.9998C229.755 56.4727 232.6 59.1993 235 63.9998C235.745 67.9405 235.616 71.014 233.437 74.4998C230.021 76.6023 227.953 76.5451 224 75.9998C219.98 74.0671 218.328 72.5797 216.125 68.6873C214.936 64.7917 214.466 62.039 215 57.9998C217.753 53.8698 220.176 53.228 225 53.9998Z" fill="#FAFDFC"/>
<path d="M33.8124 119.625C39.3026 122.471 44.5454 125.818 47.9999 131C47.9999 131.99 47.9999 132.98 47.9999 134C46.9958 134.086 45.9916 134.173 44.957 134.262C37.9385 134.954 31.7426 135.837 25.1874 138.625C17.9845 141.646 11.7607 142.426 4.37494 139.625C1.99994 138 1.99994 138 0.999941 136C0.579905 132.304 0.851589 130.303 2.49994 126.937C10.2306 117.854 22.681 114.943 33.8124 119.625ZM4.93744 128.937C3.55106 131.988 3.97694 133.863 4.99994 137C7.65331 139.335 11.0073 139.525 14.4765 139.461C19.0643 138.623 23.1495 136.4 27.3671 134.469C32.4772 132.403 37.543 131.58 42.9999 131C36.4871 124.115 31.6023 121.89 22.2499 121.625C14.4056 121.674 10.4982 123.714 4.93744 128.937Z" fill="#101111"/>
<path d="M127 65.9999C129.063 67.4999 129.063 67.4999 130 69.9999C130.101 76.1787 128.633 79.1644 124.473 83.6522C122.322 85.6207 121.054 85.9929 118.125 86.3749C115 85.9999 115 85.9999 112.563 83.9999C110.858 80.7279 110.652 78.6313 111.313 74.9999C113.882 67.5265 119.406 64.9305 127 65.9999Z" fill="#F8FBFA"/>
<path d="M194.426 302.531C199.663 306.327 199.663 306.327 201 309C199.312 308.542 197.625 308.084 195.938 307.625C194.998 307.37 194.058 307.115 193.09 306.852C190.91 306.251 188.744 305.6 186.59 304.914C175.103 301.989 163.389 303.679 153 309C152.34 308.67 151.68 308.34 151 308C163.675 295.647 178.63 292.56 194.426 302.531Z" fill="#1F1F1F"/>
<path d="M49 175C52.2853 181.133 52.7086 187.113 52 194C50.227 197.819 48.7013 199.494 45.3125 201.938C40.9076 203.35 37.4515 203.187 33 202C29.2408 199.95 27.374 198.561 25 195C25.495 193.515 25.495 193.515 26 192C26.7734 192.99 26.7734 192.99 27.5625 194C29.9198 196.284 29.9198 196.284 33.375 196.5C37.6601 195.909 39.7034 194.772 43 192C45.534 188.36 46.6942 184.992 47.6875 180.688C47.9389 179.619 48.1902 178.55 48.4492 177.449C48.631 176.641 48.8127 175.833 49 175Z" fill="#55F2B6"/>
<path d="M338 136C342.909 140.751 342.909 140.751 343.25 145.438C343 149 343 149 341.938 150.938C338.791 152.663 336.542 152.406 333 152C324.86 149.467 318.876 142.876 313 137C316.996 137.56 319.45 138.781 322.75 141.062C327.835 144.249 331.076 144.658 337 144C338.416 142.816 338.416 142.816 338.062 139.438C338.032 137.736 338.032 137.736 338 136Z" fill="#57F1B6"/>
<path d="M11 124C11 124.99 11 125.98 11 127C11.3204 129.603 11.3204 129.603 12 132C16.3473 134.174 21.6427 133.216 26.1875 132C29.3786 131.163 31.748 130.797 35 131C15.8607 140.759 15.8607 140.759 6.5625 138.375C5 137 5 137 3.9375 134.25C4.0273 129.581 5.73689 128.263 9 125C9.66 124.67 10.32 124.34 11 124Z" fill="#57EDB4"/>
<path d="M312 249C312.66 249 313.32 249 314 249C315.586 253.164 316.474 256.54 316 261C313.735 265.632 313.735 265.632 311 267C307.941 267.421 305.052 267.495 302 267C298.938 264.5 298.938 264.5 297 262C302.94 261.505 302.94 261.505 309 261C309.99 257.04 310.98 253.08 312 249Z" fill="#242424"/>
<path d="M33.9999 249C34.6599 249.33 35.3199 249.66 35.9999 250C36.5975 252.25 36.5975 252.25 37.0624 255C37.4044 258.301 37.4044 258.301 38.9999 261C41.0158 261.234 43.0384 261.413 45.0624 261.562C46.1671 261.646 47.2718 261.73 48.41 261.816C49.692 261.907 49.692 261.907 50.9999 262C47.4558 265.662 45.6807 267.149 40.5624 267.25C39.7799 267.276 38.9975 267.302 38.1913 267.328C35.4631 266.92 34.6557 266.167 32.9999 264C31.4908 259.473 31.2256 254.936 32.9999 250.5C33.3299 250.005 33.6599 249.51 33.9999 249Z" fill="#202020"/>
<path d="M67 124C67.33 124 67.66 124 68 124C68.0979 124.86 68.1959 125.72 68.2969 126.605C69.2657 134.264 70.7678 141.136 73.2929 148.453C74 151 74 151 73 153C72.34 153 71.68 153 71 153C68.1696 143.157 66.3621 134.348 67 124Z" fill="#6BE1B5"/>
<path d="M282 126C282.33 126 282.66 126 283 126C283.752 134.88 281.511 142.592 279 151C278.01 150.67 277.02 150.34 276 150C276.182 149.357 276.364 148.714 276.551 148.051C278.583 140.746 280.342 133.398 282 126Z" fill="#65F6C0"/>
<path d="M157 302C157.66 302.33 158.32 302.66 159 303C158.375 304.875 158.375 304.875 157 307C153.875 308.25 153.875 308.25 151 309C152.98 306.69 154.96 304.38 157 302Z" fill="#303030"/>
</svg>
