<svg width="253" height="300" viewBox="0 0 253 300" fill="none" xmlns="http://www.w3.org/2000/svg">
<path d="M111.55 237C138.026 238.06 156.955 239.114 175.397 251.705C188.464 265.56 192.166 272.238 187.558 287.957C181.344 290.526 175.13 293.095 168.728 295.742C165.815 291.045 165.815 291.045 162.843 286.253C157.66 276.703 157.66 276.703 149.897 272.385C117.4 270.943 117.4 270.943 87.1292 276.278C83.0144 286.117 83.0144 286.117 80.8523 295.742C74.6383 294.458 68.4242 293.173 62.0219 291.849C58.1608 263.593 58.1608 263.593 77.3216 249.272C82.6295 246.622 87.9373 243.972 93.406 241.243C99.6828 237.35 99.6828 237.35 111.55 237Z" fill="#772045"/>
<path d="M149.897 268.492C162.451 273.359 162.451 273.359 168.728 280.171C168.728 285.309 168.728 290.448 168.728 295.742C161.737 294.939 154.746 294.136 147.543 293.309C140.035 292.828 132.526 292.346 124.79 291.849C120.647 294.419 116.505 296.988 112.236 299.635C92.6213 300.122 92.6213 300.122 74.5754 299.635C78.3328 290.48 82.5422 281.394 87.129 272.385C107.098 266.193 128.158 266.948 149.897 268.492Z" fill="#F9C8D5"/>
<path d="M82.3527 35.9699C97.0425 35.2704 108.907 41.0203 119.79 50.4699C126.407 56.6652 130.836 63.4076 135.239 71.2551C135.789 70.5455 135.789 70.5455 136.349 69.8215C145.058 59.1836 156.637 50.4365 170.652 49.0095C180.022 48.4385 189.545 48.3349 198.239 52.2551C199.052 52.5954 199.864 52.9357 200.7 53.2864C221.973 62.9738 234.196 82.7706 242.552 103.693C246.842 116.241 248.904 131.015 248.239 144.255C248.184 145.411 248.129 146.568 248.071 147.759C246.451 170.252 237.968 190.215 222.239 206.255C221.699 206.82 221.159 207.384 220.603 207.966C210.864 217.239 197.878 221.191 184.7 221.279C167.751 220.577 155.114 212.934 143.239 201.255C142.538 200.567 141.837 199.878 141.114 199.169C136.244 194.052 127.239 183.744 127.239 176.255C124.498 178.792 122.467 181.657 120.302 184.693C109.004 199.992 94.7315 211.781 75.9933 216.864C59.7795 219.164 45.6324 217.162 32.1222 207.568C15.2468 194.031 7.01452 173.85 4.48695 152.794C1.41256 121.262 10.2014 89.5415 30.2973 64.8711C31.5961 63.3195 32.9169 61.7865 34.2394 60.2551C35.1288 59.2129 35.1288 59.2129 36.0363 58.1496C48.1721 45.0226 64.815 37.5763 82.3527 35.9699Z" fill="#FDFEFD"/>
<path d="M201.911 59.5404C222.252 70.8794 233.7 90.6049 240.239 112.255C247.064 137.895 243.688 165.447 230.927 188.63C222.726 201.885 212.22 210.804 197.239 215.255C196.618 215.447 195.997 215.639 195.356 215.837C181.216 218.629 169.184 214.329 157.126 207.232C150.921 202.984 146.101 198.309 141.739 192.193C141.273 191.545 140.807 190.898 140.326 190.23C129.022 174.234 129.022 174.234 129.427 168.685C130.271 166.16 131.293 163.883 132.489 161.505C137.658 150.404 140.675 138.373 142.239 126.255C142.569 126.255 142.899 126.255 143.239 126.255C143.326 127.404 143.412 128.552 143.501 129.736C144.833 145.269 148.394 159.71 160.696 170.388C169.629 176.947 177.12 179.298 188.239 178.255C196.193 176.869 201.811 172.628 206.743 166.337C212.297 158.031 213.778 149.742 213.677 139.88C213.666 138.353 213.666 138.353 213.656 136.796C213.502 129.618 212.699 123.643 209.239 117.255C208.865 116.475 208.492 115.695 208.106 114.892C202.642 104.126 195.134 98.0312 184.364 92.8802C176.655 91.3384 168.125 91.0408 161.239 95.2552C151.817 102.136 146.925 110.024 144.239 121.255C143.909 121.255 143.579 121.255 143.239 121.255C143.202 119.974 143.164 118.693 143.126 117.372C142.72 105.974 141.829 95.2361 138.282 84.306C137.462 81.4106 136.99 79.2582 137.239 76.2552C142.656 66.7647 153.902 58.6318 164.364 55.7279C164.983 55.5719 165.602 55.4159 166.239 55.2552C177.697 51.4358 191.402 54.4857 201.911 59.5404Z" fill="#FDFEFE"/>
<path d="M82.3527 35.9699C97.0425 35.2704 108.907 41.0203 119.79 50.4699C126.407 56.6652 130.836 63.4076 135.239 71.2551C135.789 70.5455 135.789 70.5455 136.349 69.8215C145.058 59.1836 156.637 50.4365 170.652 49.0095C180.022 48.4385 189.545 48.3349 198.239 52.2551C199.052 52.5954 199.864 52.9357 200.7 53.2864C221.973 62.9738 234.196 82.7706 242.552 103.693C246.842 116.241 248.904 131.015 248.239 144.255C248.184 145.411 248.129 146.568 248.071 147.759C246.451 170.252 237.968 190.215 222.239 206.255C221.699 206.82 221.159 207.384 220.603 207.966C210.864 217.239 197.878 221.191 184.7 221.279C167.751 220.577 155.114 212.934 143.239 201.255C142.538 200.567 141.837 199.878 141.114 199.169C136.244 194.052 127.239 183.744 127.239 176.255C124.498 178.792 122.467 181.657 120.302 184.693C109.004 199.992 94.7315 211.781 75.9933 216.864C59.7795 219.164 45.6324 217.162 32.1222 207.568C15.2468 194.031 7.01452 173.85 4.48695 152.794C1.41256 121.262 10.2014 89.5415 30.2973 64.8711C31.5961 63.3195 32.9169 61.7865 34.2394 60.2551C35.1288 59.2129 35.1288 59.2129 36.0363 58.1496C48.1721 45.0226 64.815 37.5763 82.3527 35.9699ZM42.2394 59.2551C41.5343 59.8919 40.8292 60.5287 40.1027 61.1848C35.0034 66.0218 31.0278 71.3524 27.2394 77.2551C26.6632 78.1368 26.087 79.0185 25.4933 79.927C10.5116 104.085 5.47076 133.487 10.3644 161.443C14.7345 179.393 23.1937 196.505 39.2394 206.63C43.7377 209.156 48.2637 210.922 53.2394 212.255C54.5078 212.595 54.5078 212.595 55.8019 212.943C70.6126 214.841 86.0853 209.821 97.9845 200.955C101.652 197.955 104.958 194.669 108.239 191.255C108.977 190.514 109.714 189.773 110.474 189.009C119.397 179.584 125.142 168.073 130.239 156.255C130.746 155.148 131.253 154.04 131.775 152.9C133.379 148.908 134.422 145.004 135.364 140.818C135.533 140.105 135.702 139.393 135.876 138.659C138.452 127.492 138.456 116.649 138.239 105.255C138.223 104.226 138.206 103.198 138.189 102.138C137.251 84.5156 128.763 66.3972 116.239 54.2551C115.664 53.6712 115.09 53.0872 114.497 52.4856C105.622 44.0989 93.6328 40.8351 81.7472 41.0832C66.6833 41.8213 53.2472 49.1398 42.2394 59.2551ZM160.239 57.2551C159.542 57.5606 158.845 57.8661 158.126 58.1809C150.199 62.0528 142.133 68.9149 137.239 76.2551C137.327 78.5446 137.327 78.5446 137.927 81.0676C138.125 82.055 138.324 83.0424 138.528 84.0598C138.999 86.1747 139.494 88.2844 140.013 90.3879C142.465 100.658 142.932 110.728 143.239 121.255C144.692 118.418 145.784 115.65 146.802 112.63C150.227 103.992 156.783 97.0686 165.239 93.2551C173.072 90.8374 181.471 91.5503 188.86 94.9309C200.798 101.576 207.79 111.666 212.357 124.361C214.973 135.904 215.459 151.865 209.239 162.255C204.753 169.273 199.79 174.381 192.052 177.568C181.478 179.474 173.028 178.464 163.864 172.782C153.678 165.504 146.96 154.258 144.837 141.917C144.111 136.711 143.633 131.495 143.239 126.255C142.909 126.255 142.579 126.255 142.239 126.255C142.081 127.236 141.922 128.217 141.759 129.228C139.681 141.472 136.53 153.113 131.036 164.325C130.014 166.801 129.391 168.548 129.239 171.255C130.396 173.942 131.567 176.262 133.052 178.755C133.462 179.457 133.872 180.159 134.295 180.882C144.154 197.396 155.887 209.197 174.607 215.364C184.145 217.703 194.178 216.986 203.239 213.255C203.911 212.988 204.583 212.721 205.275 212.447C222.599 204.697 231.656 188.802 238.56 172.052C247.186 148.154 244.739 119.535 234.638 96.4465C225.76 77.9404 212.942 63.4485 193.528 55.9817C183.373 52.7582 169.94 52.5112 160.239 57.2551Z" fill="#90FDDA"/>
<path d="M97.2393 85.2554C98.6005 86.0907 98.6005 86.0907 99.9893 86.9429C109.319 96.5318 111.588 108.099 111.697 121.007C111.404 135.991 103.54 150.347 93.4971 161.154C83.6333 170.335 71.9732 175.089 58.5362 174.634C50.1153 173.667 43.9438 169.372 38.2393 163.255C36.2453 160.718 34.6815 158.14 33.2393 155.255C32.9196 154.637 32.5999 154.018 32.2705 153.38C27.5459 142.181 29.3049 126.368 33.2393 115.255C39.1278 101.23 48.7695 90.3755 62.2393 83.2554C62.8567 82.8971 63.4742 82.5387 64.1104 82.1695C74.2642 77.2396 88.2358 79.0292 97.2393 85.2554Z" fill="#8FFDDA"/>
<path d="M82.3527 35.9699C97.0425 35.2704 108.907 41.0203 119.79 50.4699C126.407 56.6652 130.836 63.4076 135.239 71.2551C135.789 70.5455 135.789 70.5455 136.349 69.8215C145.058 59.1836 156.637 50.4365 170.652 49.0095C180.022 48.4385 189.545 48.3349 198.239 52.2551C199.052 52.5954 199.864 52.9357 200.7 53.2864C221.973 62.9738 234.196 82.7706 242.552 103.693C246.842 116.241 248.904 131.015 248.239 144.255C248.184 145.411 248.129 146.568 248.071 147.759C246.451 170.252 237.968 190.215 222.239 206.255C221.699 206.82 221.159 207.384 220.603 207.966C210.864 217.239 197.878 221.191 184.7 221.279C167.751 220.577 155.114 212.934 143.239 201.255C142.538 200.567 141.837 199.878 141.114 199.169C136.244 194.052 127.239 183.744 127.239 176.255C124.498 178.792 122.467 181.657 120.302 184.693C109.004 199.992 94.7315 211.781 75.9933 216.864C59.7795 219.164 45.6324 217.162 32.1222 207.568C15.2468 194.031 7.01452 173.85 4.48695 152.794C1.41256 121.262 10.2014 89.5415 30.2973 64.8711C31.5961 63.3195 32.9169 61.7865 34.2394 60.2551C35.1288 59.2129 35.1288 59.2129 36.0363 58.1496C48.1721 45.0226 64.815 37.5763 82.3527 35.9699ZM42.2394 59.2551C41.5343 59.8919 40.8292 60.5287 40.1027 61.1848C35.0034 66.0218 31.0278 71.3524 27.2394 77.2551C26.6632 78.1368 26.087 79.0185 25.4933 79.927C10.5116 104.085 5.47076 133.487 10.3644 161.443C14.7345 179.393 23.1937 196.505 39.2394 206.63C43.7377 209.156 48.2637 210.922 53.2394 212.255C54.5078 212.595 54.5078 212.595 55.8019 212.943C70.6126 214.841 86.0853 209.821 97.9845 200.955C101.652 197.955 104.958 194.669 108.239 191.255C108.977 190.514 109.714 189.773 110.474 189.009C119.397 179.584 125.142 168.073 130.239 156.255C130.746 155.148 131.253 154.04 131.775 152.9C133.379 148.908 134.422 145.004 135.364 140.818C135.533 140.105 135.702 139.393 135.876 138.659C138.452 127.492 138.456 116.649 138.239 105.255C138.223 104.226 138.206 103.198 138.189 102.138C137.251 84.5156 128.763 66.3972 116.239 54.2551C115.664 53.6712 115.09 53.0872 114.497 52.4856C105.622 44.0989 93.6328 40.8351 81.7472 41.0832C66.6833 41.8213 53.2472 49.1398 42.2394 59.2551ZM160.239 57.2551C159.542 57.5606 158.845 57.8661 158.126 58.1809C150.199 62.0528 142.133 68.9149 137.239 76.2551C137.327 78.5446 137.327 78.5446 137.927 81.0676C138.124 82.0576 138.321 83.0476 138.525 84.0676C138.994 86.16 139.501 88.2443 140.048 90.3176C145.984 113.947 142.161 140.042 132.107 162.013C129.99 166.463 129.99 166.463 129.239 171.255C130.396 173.942 131.567 176.262 133.052 178.755C133.462 179.457 133.872 180.159 134.295 180.882C144.154 197.396 155.887 209.197 174.607 215.364C184.145 217.703 194.178 216.986 203.239 213.255C203.911 212.988 204.583 212.721 205.275 212.447C222.599 204.697 231.656 188.802 238.56 172.052C247.186 148.154 244.739 119.535 234.638 96.4465C225.76 77.9404 212.942 63.4485 193.528 55.9817C183.373 52.7582 169.94 52.5112 160.239 57.2551Z" fill="#191919"/>
<path d="M50.2394 52.2554C50.7344 53.2454 50.7344 53.2454 51.2394 54.2554C50.9094 54.9154 50.5794 55.5754 50.2394 56.2554C49.5794 56.2554 48.9194 56.2554 48.2394 56.2554C47.9945 56.7968 47.7495 57.3382 47.4972 57.896C45.9466 60.8045 44.0552 63.3409 42.1144 66.0054C25.2747 89.79 17.5083 119.79 22.0519 148.755C22.4251 150.593 22.8198 152.427 23.2394 154.255C23.4108 155.116 23.5823 155.978 23.7589 156.865C27.523 173.281 36.8849 188.198 51.2394 197.255C61.131 203 72.1083 205.275 83.4249 202.772C88.1099 201.492 92.6637 199.876 97.2394 198.255C98.5667 197.899 99.8972 197.551 101.239 197.255C97.4898 201.386 93.7944 203.928 88.8019 206.38C88.1032 206.726 87.4045 207.071 86.6847 207.427C73.643 213.606 60.9367 214.987 47.2394 210.255C32.4592 204.536 22.2588 192.491 15.9269 178.255C5.00076 151.148 7.01304 121.013 18.0343 94.2837C25.102 77.9891 35.9451 62.976 50.2394 52.2554Z" fill="#CACACA"/>
<path d="M214.239 69.2554C231.642 82.67 240.198 105.48 242.958 126.763C244.973 151.786 240.815 176.652 225.146 196.97C217.314 206.139 208.789 211.824 197.239 215.255C196.307 215.543 196.307 215.543 195.356 215.837C180.053 218.859 166.831 213.632 154.239 205.255C150.207 202.293 147.315 199.871 145.239 195.255C147.507 196.381 149.762 197.527 152.009 198.693C153.515 199.466 153.515 199.466 155.052 200.255C156.048 200.771 157.045 201.287 158.071 201.818C169.531 207.018 181.564 206.561 193.306 202.451C209.214 195.969 219.535 183.837 226.181 168.154C236.051 141.129 234.793 111.515 223.205 85.272C221.349 81.3958 219.078 77.8401 216.622 74.3218C215.239 72.2554 215.239 72.2554 214.239 69.2554Z" fill="#CACACA"/>
<path d="M77.2393 102.255C82.0127 102.677 85.0833 104.788 88.2393 108.255C92.5781 114.143 93.1734 120.123 92.2393 127.255C90.2363 136.332 85.7123 143.037 78.3643 148.701C72.7457 152.048 66.599 152.108 60.2393 151.255C55.1617 149.132 52.5945 145.68 50.1573 140.876C47.4039 133.015 48.9286 125.61 52.2666 118.216C52.9221 116.895 53.5797 115.575 54.2393 114.255C54.8684 114.374 55.4974 114.493 56.1455 114.615C61.6915 115.45 65.6238 115.483 70.5479 112.638C73.4438 110.271 74.6753 107.634 76.2393 104.255C76.5693 103.595 76.8993 102.935 77.2393 102.255Z" fill="#0F100F"/>
<path d="M177.239 112.255C177.719 113.526 178.198 114.797 178.677 116.068C178.944 116.775 179.21 117.483 179.485 118.212C180.102 119.882 180.676 121.567 181.239 123.255C183.156 124.422 183.156 124.422 185.239 125.255C185.899 125.585 186.559 125.915 187.239 126.255C189.289 126.247 191.318 126.125 193.364 125.997C193.983 126.083 194.602 126.168 195.239 126.255C198.748 131.518 197.747 138.133 197.239 144.255C195.772 150.037 193.42 154.067 188.239 157.255C183.087 158.973 178.734 158.693 173.614 157.193C167.255 153.542 162.367 147.325 160.239 140.255C159.374 133.141 159.624 125.607 163.239 119.255C167.459 114.625 170.906 112.089 177.239 112.255Z" fill="#0F0F0F"/>
<path d="M96.6807 7.31033C102.73 11.91 109.301 17.7512 113.239 24.2556C111.89 28.3021 109.891 29.2107 106.239 31.2556C102.394 29.9738 101.734 28.3946 99.4893 25.0681C93.4938 16.6373 87.0443 11.0987 76.7744 8.67361C60.6493 6.01507 46.8575 13.4928 33.9893 22.5408C21.498 31.4667 21.498 31.4667 12.2393 43.2556C11.5793 42.9256 10.9193 42.5956 10.2393 42.2556C29.9467 16.9744 63.3704 -13.9017 96.6807 7.31033Z" fill="#181818"/>
<path d="M176.106 0.0678968C192.725 -0.906095 208.212 8.7511 220.239 19.2554C221.095 19.9902 221.951 20.7249 222.833 21.482C235.863 32.9032 235.863 32.9032 239.239 40.2554C232.887 34.8699 232.887 34.8699 230.04 32.1695C217.948 20.7766 202.1 9.84462 185.239 8.2554C184.395 8.1729 183.551 8.0904 182.681 8.0054C173.629 7.55352 166.879 10.5445 160.052 16.3804C155.35 20.8448 151.689 25.784 148.239 31.2554C144.244 29.8857 141.439 27.9982 138.239 25.2554C147.176 13.512 156.731 4.24747 171.364 0.442897C172.947 0.339703 174.529 0.22633 176.106 0.0678968Z" fill="#1A1A1A"/>
<path d="M72.2394 89.2555C75.0494 91.0491 76.7488 92.2743 78.2394 95.2555C78.8388 101.25 77.5334 105.347 74.2394 110.255C70.3353 114.059 66.6395 115.955 61.2394 116.63C57.4841 116.161 55.9226 114.862 53.2394 112.255C51.5014 108.779 51.7836 105.056 52.2394 101.255C56.2745 93.1852 63.0017 87.9282 72.2394 89.2555Z" fill="#FAFCFC"/>
<path d="M188.833 101.763C192.503 102.514 194.037 104.318 196.239 107.255C196.769 107.869 197.299 108.482 197.845 109.115C199.524 111.692 199.642 113.203 199.614 116.255C199.622 117.101 199.63 117.946 199.638 118.818C199.163 121.724 198.253 123.133 196.239 125.255C195.579 125.255 194.919 125.255 194.239 125.255C194.239 125.915 194.239 126.575 194.239 127.255C190.203 127.578 187.721 127.492 184.052 125.693C180.123 122.288 177.716 119.093 176.856 113.978C176.667 110.184 177.047 107.683 178.614 104.193C182.088 101.629 184.587 101.551 188.833 101.763Z" fill="#FAFCFB"/>
<path d="M251.239 174.255C251.569 174.255 251.899 174.255 252.239 174.255C252.742 187.632 249.879 200.373 240.864 210.693C234.754 217.005 228.011 222.944 218.907 223.435C215.678 223.442 212.465 223.386 209.239 223.255C211.559 220.936 213.067 220.585 216.177 219.63C229.755 214.778 237.938 205.267 244.131 192.588C246.941 186.616 249.352 180.584 251.239 174.255Z" fill="#0F0F0F"/>
<path d="M0.239285 176.255C2.82943 178.846 3.67552 181.767 4.92678 185.13C11.5006 202.073 19.8958 212.321 36.2393 220.255C38.5602 221.038 40.8605 221.658 43.2393 222.255C43.2393 222.585 43.2393 222.915 43.2393 223.255C31.7188 224.259 23.5963 221.573 14.4268 214.568C6.3717 207.004 0.767669 195.852 0.00100395 184.83C-0.00911933 181.958 0.056399 179.121 0.239285 176.255Z" fill="#0D0D0D"/>
<path d="M31.2393 19.2554C31.8993 19.5854 32.5593 19.9154 33.2393 20.2554C30.8738 23.6169 28.1613 26.3703 25.2393 29.2554C23.1539 31.3158 21.0711 33.3789 18.9893 35.4429C18.4479 35.9759 17.9064 36.5089 17.3486 37.0581C14.4317 39.8804 14.4317 39.8804 12.2393 43.2554C11.5793 42.9254 10.9193 42.5954 10.2393 42.2554C16.7025 33.9641 23.7034 26.5618 31.2393 19.2554Z" fill="#272727"/>
<path d="M18.2393 32.2554C19.2293 32.5854 20.2193 32.9154 21.2393 33.2554C20.6734 33.8097 20.1075 34.364 19.5244 34.9351C18.7909 35.6595 18.0575 36.384 17.3018 37.1304C16.5709 37.8497 15.84 38.569 15.0869 39.3101C13.1826 41.1256 13.1826 41.1256 12.2393 43.2554C11.5793 42.9254 10.9193 42.5954 10.2393 42.2554C12.8793 38.9554 15.5193 35.6554 18.2393 32.2554Z" fill="#5D5D5D"/>
<path d="M55.2393 49.2554C55.8993 49.5854 56.5593 49.9154 57.2393 50.2554C53.7743 53.2254 53.7743 53.2254 50.2393 56.2554C51.489 52.6022 51.9102 51.4747 55.2393 49.2554ZM48.2393 56.2554C49.2293 56.7504 49.2293 56.7504 50.2393 57.2554C49.2493 57.7504 49.2493 57.7504 48.2393 58.2554C48.2393 57.5954 48.2393 56.9354 48.2393 56.2554Z" fill="#E6E6E6"/>
</svg>
