<svg width="300" height="248" viewBox="0 0 300 248" fill="none" xmlns="http://www.w3.org/2000/svg">
<path d="M202.969 239.176C205.333 241.157 207.672 243.164 210 245.188C209.67 245.848 209.34 246.508 209 247.188C208.08 246.813 207.159 246.438 206.211 246.052C189.906 239.441 173.787 232.954 156 232.188C154.774 232.135 153.548 232.083 152.285 232.028C133.94 231.5 117.823 236.657 101.855 245.403C100.937 245.792 100.937 245.792 100 246.188C99.34 245.858 98.68 245.528 98 245.188C107.807 232.656 122.02 223.112 137.926 220.473C161.814 218.258 184.17 223.708 202.969 239.176Z" fill="#151515"/>
<path d="M258.206 13.7529C281.189 30.7637 293.73 57.2528 298.406 84.8628C301.183 105.614 297.916 129.133 284.957 146.128C275.779 157.084 266.147 164.178 252 167.464C249.243 167.675 246.627 167.799 243.875 167.777C242.762 167.768 242.762 167.768 241.626 167.76C225.895 167.418 212.855 161.644 201 151.464C200.188 150.797 199.376 150.129 198.539 149.441C191.949 143.824 186.835 137.633 182 130.464C181.321 129.463 180.641 128.461 179.941 127.429C171.058 113.177 164.872 95.2774 164 78.4644C163.959 77.7607 163.918 77.057 163.876 76.332C162.798 55.337 167.323 34.8261 181.164 18.4175C202.775 -4.57303 233.166 -3.97693 258.206 13.7529Z" fill="#FD2B66"/>
<path d="M109 9.46422C123.088 19.5186 131.417 35.8162 134.596 52.5682C138.817 82.8594 131.772 111.466 113.798 136.113C102.523 151.017 87.2881 163.275 68.6132 166.988C53.0409 169.042 39.8211 167.58 26.6249 158.277C12.201 146.653 3.70176 129.206 1.3163 110.96C-1.2454 82.655 6.24642 54.0238 23.7499 31.4017C31.467 22.1531 39.4512 14.3715 49.9999 8.46422C50.6522 8.0775 51.3044 7.69078 51.9765 7.29235C70.5623 -2.98921 91.2007 -1.5003 109 9.46422Z" fill="#FD2B66"/>
<path d="M287 62.4644C289.219 65.7927 290.087 68.962 291.062 72.7769C291.236 73.4285 291.409 74.0801 291.588 74.7515C297.143 96.0147 294.801 118.943 284.473 138.332C277.543 150.103 267.469 158.292 254.332 162.273C239.686 165.565 225.595 162.148 212.745 154.584C193.849 142.456 179.225 121.729 173.055 100.16C172.609 97.9447 172.285 95.7056 172 93.4644C173.155 94.0831 174.31 94.7019 175.5 95.3394C182.423 98.7827 189.355 99.7918 197 100.464C198.757 105.438 200.326 110.206 201 115.464C201.701 114.969 202.402 114.474 203.125 113.964C206.515 112.196 208.224 111.925 212 112.464C216.923 115.123 220.483 118.43 223 123.464C223.04 125.464 223.043 127.465 223 129.464C227.595 127.432 230.214 125.869 232.438 121.277C235.408 113.487 234.081 106.326 232 98.4644C233.134 98.1137 234.269 97.7631 235.438 97.4019C264.179 87.9347 264.179 87.9347 286 68.4644C286.797 65.2767 286.797 65.2767 287 62.4644Z" fill="#FCFDFD"/>
<path d="M11 64.4644C11.2764 65.0541 11.5528 65.6438 11.8376 66.2515C15.421 73.0734 20.9143 77.1505 27.4375 80.9644C28.2274 81.435 29.0172 81.9057 29.831 82.3906C40.5312 88.665 51.5452 93.5682 63.3672 97.3237C64.236 97.7001 65.1048 98.0765 66 98.4644C67 101.464 67 101.464 66 104.464C65.3235 112.07 65.0022 118.603 69.5156 125.011C71.2002 126.66 72.849 127.527 75 128.464C75.0825 127.598 75.165 126.732 75.25 125.839C76.4153 120.596 78.7374 117.531 82.8125 114.089C86.6206 112.148 88.7787 111.85 93 112.464C95.9375 114.464 95.9375 114.464 98 116.464C98.4797 114.715 98.9587 112.964 99.4375 111.214C99.7043 110.24 99.9712 109.265 100.246 108.261C100.855 106 101.436 103.737 102 101.464C103.218 101.21 104.436 100.956 105.691 100.695C107.315 100.348 108.939 99.9999 110.562 99.6519C111.362 99.4862 112.162 99.3206 112.986 99.1499C117.973 98.0712 122.378 96.6295 127 94.4644C125.581 110.424 116.297 125.626 106 137.464C105.166 138.526 104.332 139.589 103.5 140.652C92.1982 153.366 76.9813 162.014 59.9023 163.667C46.1761 163.995 33.828 159.132 23.75 149.839C7.55169 132.294 5.33314 111.485 5.85058 88.6035C6.2496 80.2202 8.27583 72.3763 11 64.4644Z" fill="#FDFDFD"/>
<path d="M52 94.4644C55.3163 95.0876 58.5284 95.8339 61.75 96.8394C62.5286 97.074 63.3072 97.3086 64.1094 97.5503C64.7333 97.8519 65.3572 98.1536 66 98.4644C67 101.464 67 101.464 66 104.464C65.3235 112.07 65.0022 118.603 69.5156 125.011C71.2002 126.66 72.849 127.527 75 128.464C75.0825 127.598 75.165 126.732 75.25 125.839C76.4153 120.596 78.7374 117.531 82.8125 114.089C86.6206 112.148 88.7787 111.85 93 112.464C95.9375 114.464 95.9375 114.464 98 116.464C98.4797 114.715 98.9587 112.964 99.4375 111.214C99.7043 110.24 99.9712 109.265 100.246 108.261C100.855 106.001 101.442 103.738 102 101.464C104.291 100.962 106.583 100.462 108.875 99.9644C110.789 99.5467 110.789 99.5467 112.742 99.1206C116 98.4644 116 98.4644 118 98.4644C118.26 104.902 117.681 109.879 115.437 115.902C115.167 116.64 114.897 117.379 114.618 118.14C112.263 124.289 109.321 129.462 105 134.464C104.309 135.265 103.618 136.065 102.906 136.89C97.8813 142.296 92.8013 145.661 86 148.464C85.184 148.828 84.368 149.191 83.5273 149.566C77.2335 151.803 70.7784 151.198 64.75 148.464C56.7203 143.927 51.8942 137.131 49 128.464C46.1107 116.694 48.4656 105.73 52 94.4644Z" fill="#90FDDA"/>
<path d="M248 94.4644C250.613 101.734 251.494 108.262 251.437 115.964C251.457 116.932 251.477 117.901 251.498 118.898C251.491 128.763 248.647 136.571 241.867 143.773C236.188 148.918 230.107 150.87 222.551 150.734C211.066 149.52 201.183 142.472 193.75 133.964C185.87 123.501 181.775 111.491 182 98.4644C189.425 99.4544 189.425 99.4544 197 100.464C198.747 105.478 200.322 110.178 201 115.464C202.052 114.722 202.052 114.722 203.125 113.964C206.515 112.196 208.224 111.925 212 112.464C216.923 115.123 220.483 118.43 223 123.464C223.04 125.464 223.043 127.465 223 129.464C227.595 127.432 230.214 125.869 232.437 121.277C235.408 113.487 234.081 106.326 232 98.4644C244 94.4644 244 94.4644 248 94.4644Z" fill="#90FDDA"/>
<path d="M109 9.46422C123.088 19.5186 131.417 35.8162 134.596 52.5682C138.817 82.8594 131.772 111.466 113.798 136.113C102.523 151.017 87.2881 163.275 68.6132 166.988C53.0409 169.042 39.8211 167.58 26.6249 158.277C12.201 146.653 3.70176 129.206 1.3163 110.96C-1.2454 82.655 6.24642 54.0238 23.7499 31.4017C31.467 22.1531 39.4512 14.3715 49.9999 8.46422C50.6522 8.0775 51.3044 7.69078 51.9765 7.29235C70.5623 -2.98921 91.2007 -1.5003 109 9.46422ZM34.9999 25.4642C34.3979 25.9927 33.7959 26.5213 33.1757 27.0658C19.2231 39.7499 10.2735 60.1751 6.9999 78.4642C6.81943 79.471 6.63896 80.4777 6.45302 81.515C3.92109 103.582 5.30509 126.601 19.4765 144.757C29.0885 156.273 40.5525 162.025 55.3983 163.742C71.7909 164.481 86.6029 155.859 98.6249 145.652C107.162 137.819 113.228 128.437 119 118.464C119.463 117.701 119.925 116.938 120.402 116.152C131.302 96.6508 135.213 67.9527 129.375 46.4642C128.648 44.4399 127.858 42.4366 127 40.4642C126.564 39.4278 126.128 38.3914 125.68 37.3236C119.012 22.8233 108.6 12.8677 93.9999 6.46422C71.7977 -0.213795 50.6262 10.3032 34.9999 25.4642Z" fill="#181818"/>
<path d="M258.206 13.7529C281.189 30.7637 293.73 57.2528 298.406 84.8628C301.183 105.614 297.916 129.133 284.957 146.128C275.779 157.084 266.147 164.178 252 167.464C249.243 167.675 246.627 167.799 243.875 167.777C242.762 167.768 242.762 167.768 241.626 167.76C225.895 167.418 212.855 161.644 201 151.464C200.188 150.797 199.376 150.129 198.539 149.441C191.949 143.824 186.835 137.633 182 130.464C181.321 129.463 180.641 128.461 179.941 127.429C171.058 113.177 164.872 95.2774 164 78.4644C163.959 77.7607 163.918 77.057 163.876 76.332C162.798 55.337 167.323 34.8261 181.164 18.4175C202.775 -4.57303 233.166 -3.97693 258.206 13.7529ZM189 16.4644C188.345 17.0148 187.69 17.5652 187.016 18.1323C175.691 28.4253 168.696 44.578 167.875 59.773C167.525 71.3925 167.713 82.2444 171 93.4644C171.255 94.4041 171.511 95.3438 171.773 96.312C175.959 110.27 182.627 124.282 192 135.464C192.709 136.323 193.418 137.181 194.148 138.066C206.402 152.298 221.499 161.521 240.356 163.742C251.161 164.234 261.363 160.791 270 154.464C270.771 153.9 271.542 153.335 272.336 152.753C285.975 141.721 292.193 124.437 294 107.464C296.071 80.2339 288.252 52.6562 270.563 31.5894C259.964 19.4291 244.686 6.49321 227.839 5.31299C212.59 4.56827 200.829 6.05159 189 16.4644Z" fill="#181818"/>
<path d="M287 62.4644C289.219 65.7927 290.087 68.962 291.062 72.7769C291.236 73.4285 291.409 74.0801 291.588 74.7515C297.143 96.0147 294.801 118.943 284.473 138.332C277.543 150.103 267.469 158.292 254.332 162.273C238.803 165.764 224.402 161.501 211 153.464C210.67 152.804 210.34 152.144 210 151.464C220 153.464 220 153.464 222.445 154.019C235.753 156.339 246.883 153.903 258.023 146.585C269.592 138.342 277.873 124.165 280.331 110.16C280.449 109.415 280.566 108.67 280.688 107.902C280.814 107.117 280.941 106.332 281.071 105.523C282.416 96.5949 282.557 87.8965 281.188 78.9644C280.699 74.98 280.699 74.98 282.012 72.73C283.313 71.2827 284.656 69.8724 286 68.4644C286.874 65.24 286.874 65.24 287 62.4644Z" fill="#CAC9C9"/>
<path d="M11.0001 64.4644C11.2269 65.0006 11.4538 65.5369 11.6876 66.0894C12.9431 68.6677 12.9431 68.6677 15.5782 70.7808C19.638 75.6046 18.3384 81.8518 18.0626 87.7769C17.6533 106.764 20.8231 124.154 32.8751 139.527C42.6264 149.678 54.4611 154.409 68.3126 154.777C75.1441 154.68 81.4327 153.247 88.0001 151.464C89.3327 151.128 90.6658 150.794 92.0001 150.464C82.3748 159.127 68.4862 163.909 55.6094 163.671C42.5375 162.634 30.833 157.511 21.8712 147.804C6.73123 128.871 3.82277 106.539 6.26667 82.8838C7.2113 76.5344 8.91456 70.5214 11.0001 64.4644Z" fill="#CACACA"/>
<path d="M233 100.464C235.457 107.683 236.239 114.061 233.313 121.277C231.493 124.968 229.612 127.334 226 129.464C225.01 129.464 224.02 129.464 223 129.464C222.773 128.268 222.546 127.072 222.313 125.839C221.004 120.604 218.519 117.252 214.063 114.089C209.276 112.639 205.448 113.371 201 115.464C198.899 110.387 197.921 106.998 198 101.464C199.196 101.427 199.196 101.427 200.415 101.388C204.027 101.272 207.638 101.15 211.25 101.027C212.504 100.988 213.759 100.948 215.051 100.908C216.256 100.866 217.461 100.824 218.703 100.781C219.813 100.744 220.924 100.708 222.067 100.67C231.569 100.004 231.569 100.004 233 100.464Z" fill="#111111"/>
<path d="M66.9999 99.4644C68.2155 99.6178 69.4311 99.7712 70.6835 99.9292C76.7968 100.608 82.9182 100.811 89.0624 101.027C90.7901 101.092 90.7901 101.092 92.5526 101.158C95.3683 101.263 98.184 101.365 101 101.464C101.041 102.89 101.07 104.316 101.094 105.742C101.12 106.933 101.12 106.933 101.146 108.148C100.941 111.396 99.6857 113.725 97.9999 116.464C94.1249 114.589 94.1249 114.589 92.9999 113.464C87.8089 112.841 84.6222 113.545 80.578 116.687C77.5914 120.051 76.3246 124.227 74.9999 128.464C70.3458 126.869 68.3948 125.284 65.9452 121.085C63.4737 114.233 63.9222 106.028 66.9999 99.4644Z" fill="#101010"/>
<path d="M92.9998 112.464C96.2059 115.329 97.7877 117.192 98.4998 121.464C97.4743 127.618 94.6756 131.438 89.8983 135.257C86.8734 137.181 84.5552 137.596 80.9998 137.464C78.1974 135.82 76.4489 134.705 75.3241 131.597C74.5656 126.608 76.1723 121.777 78.8123 117.589C83.2547 113.274 86.6855 111.45 92.9998 112.464Z" fill="#F9FBFB"/>
<path d="M208.938 111.902C214.964 113.009 218.544 116.6 222 121.464C223.156 123.777 223.199 125.265 223.25 127.839C223.276 128.61 223.302 129.381 223.328 130.175C222.909 133.102 222.11 134.401 220 136.464C216.042 137.452 211.84 137.327 208.117 135.582C203.113 131.784 201.331 126.865 200.5 120.839C201 117.464 201 117.464 203.125 114.527C206 112.464 206 112.464 208.938 111.902Z" fill="#FBFCFC"/>
<path d="M172.062 119C174.973 120.455 175.154 122.371 176.312 125.375C182.743 141.152 191.933 154.57 207.699 162.121C212.664 163.968 217.879 164.957 223.062 166C217.755 168.961 213.005 168.661 207.16 167.348C195.292 163.789 185.708 156.922 179.406 146.176C174.775 137.31 171.502 129.08 172.062 119Z" fill="#111111"/>
<path d="M125 120C125.33 120 125.66 120 126 120C127.244 131.61 121.816 143.76 114.852 152.887C108.528 160.104 99.904 167.397 89.9243 168.158C87.6545 168.196 85.3945 168.175 83.125 168.125C81.9494 168.111 81.9494 168.111 80.75 168.098C78.8332 168.074 76.9166 168.038 75 168C77.9679 166.372 80.7041 165.543 84 164.812C98.8415 160.849 108.402 151.488 116.035 138.609C119.393 132.589 122.212 126.299 125 120Z" fill="#101010"/>
<path d="M127 94.4644C126.166 103.845 122.372 112.078 118.062 120.339C117.577 121.285 117.577 121.285 117.082 122.25C114.899 126.313 112.487 129.443 109 132.464C108.34 132.464 107.68 132.464 107 132.464C108.114 129.493 109.391 126.7 110.875 123.902C114.269 117.164 117.062 110.057 117.25 102.464C117.391 100.312 117.391 100.312 118 98.4644C120.457 96.4938 123.735 94.4644 127 94.4644Z" fill="#F5F7F7"/>
</svg>
