<svg width="346" height="314" viewBox="0 0 346 314" fill="none" xmlns="http://www.w3.org/2000/svg">
<path d="M288.688 74.7458C296.339 80.1656 302.729 86.1608 308 93.9333C308.364 93.125 308.727 92.3168 309.102 91.484C313.036 83.1208 315.796 78.3243 324.688 75.0583C327.9 74.004 328.674 73.8245 332 74.9333C331.325 75.1988 330.649 75.4644 329.953 75.7379C328.615 76.2678 328.615 76.2678 327.25 76.8083C326.368 77.1563 325.487 77.5044 324.578 77.8629C319.873 79.5415 319.873 79.5415 316.875 83.1833C316.586 84.0908 316.298 84.9983 316 85.9333C315.629 86.9233 315.258 87.9133 314.875 88.9333C314.042 91.7893 313.827 93.9832 314 96.9333C314.681 96.0258 315.361 95.1183 316.063 94.1833C318.913 90.8514 321.743 88.2214 326 86.9333C330.356 86.6174 334.642 86.6973 339 86.9333C339 87.2633 339 87.5933 339 87.9333C338.276 88.0312 337.551 88.1292 336.805 88.2301C331.007 89.1268 326.476 89.8834 322 93.9333C320.147 96.5057 318.524 99.1549 317 101.933C317.944 101.5 317.944 101.5 318.906 101.058C325.574 98.1663 330.712 96.2418 337.684 98.9919C344.708 102.35 344.708 102.35 346 104.933C345.237 104.624 344.474 104.315 343.688 103.996C337.513 101.555 331.493 100.645 325.188 103.246C322.549 104.643 320.279 106.019 318 107.933C318.217 109.202 318.217 109.202 318.438 110.496C319.006 113.969 319.512 117.448 320 120.933C317.789 118.11 315.875 115.163 313.994 112.111C309.618 105.06 304.874 98.8381 299 92.9333C298.339 92.2372 297.677 91.5411 296.996 90.8239C287.45 81.4772 273.073 74.5181 259.688 74.6208C258.934 74.6257 258.18 74.6306 257.403 74.6357C245.78 74.8803 236.313 79.828 228 87.9333C226.25 90.1546 224.797 92.492 223.375 94.9333C222.989 95.589 222.603 96.2447 222.205 96.9203C217.058 105.979 214.347 115.527 214 125.933C213.96 127.029 213.92 128.125 213.879 129.254C213.698 139.271 214.727 149.011 216 158.933C212.987 155.533 211.945 151.937 210.875 147.621C210.542 146.346 210.21 145.071 209.867 143.757C206.179 127.493 206.822 110.122 214 94.9333C214.41 94.0374 214.82 93.1415 215.242 92.2184C221.758 79.0959 232.18 70.8671 245.875 66.0583C260.78 62.0473 276.01 66.6119 288.688 74.7458Z" fill="#1B1B1B"/>
<path d="M105 66.9332C105.791 67.1897 106.583 67.4462 107.398 67.7105C121.474 72.756 129.85 83.0211 136.422 95.9801C140.501 105.452 141.463 114.843 141.312 125.058C141.316 126.16 141.319 127.262 141.322 128.398C141.265 137.193 140.366 145.413 136.875 153.558C136.522 154.396 136.169 155.234 135.805 156.097C135.539 156.703 135.274 157.309 135 157.933C134.091 154.942 133.984 152.704 134.41 149.617C137.241 126.862 135.43 106.214 121.121 87.4722C114.498 80.2543 105.052 75.2603 95.2422 74.7301C76.47 74.3902 63.1513 80.8169 49.4424 93.5338C40.7059 102.01 34.2906 113.059 29 123.933C28.67 123.273 28.34 122.613 28 121.933C28.9702 119.117 30.1275 116.404 31.2852 113.66C32.2317 111.016 32.2317 111.016 31.3438 108.753C28.4927 104.891 24.4439 102.385 19.7188 101.511C12.7941 101.274 7.32716 103.458 2 107.933C1.34 107.603 0.68 107.273 0 106.933C6.71621 101.351 11.7913 97.4703 20.8984 97.6637C24.5365 98.1302 27.6395 99.493 31 100.933C30.1497 97.0069 28.8441 94.8522 26 91.9332C20.996 89.2387 16.5675 88.4216 11 87.9332C11 87.6032 11 87.2732 11 86.9332C22.7035 86.3081 22.7035 86.3081 27.5 88.6207C30.0714 90.9992 32.5945 93.3862 35 95.9332C35.3088 91.4555 35.4253 88.837 33.5 84.7457C29.2638 79.9799 24.0205 77.0027 18 74.9332C22.2186 73.527 24.4457 74.8734 28.4258 76.5816C33.4261 79.207 36.9337 82.3245 39.0938 87.609C39.8363 90.0395 40.4748 92.4474 41 94.9332C41.4125 94.3763 41.825 93.8194 42.25 93.2457C52.9724 79.0768 65.5184 69.5536 83 65.1832C90.6062 64.5493 97.7208 64.474 105 66.9332Z" fill="#1A1A1A"/>
<path d="M126.363 6.42938C129.606 8.73923 131.772 10.5913 134 13.9333C132.688 13.6416 131.375 13.35 130.062 13.0583C129.232 12.8778 128.402 12.6974 127.547 12.5114C125.987 12.1574 124.433 11.7779 122.891 11.3552C105.396 6.75133 89.6411 12.2083 74.5117 20.8434C59.3881 29.7452 45.4268 40.6684 32 51.9333C32 41.0127 46.2424 29.6982 53.5391 22.3903C71.8311 5.08138 102.703 -8.54894 126.363 6.42938Z" fill="#141414"/>
<path d="M269 3.93334C270.462 4.46121 270.462 4.46121 271.953 4.99975C290.269 12.1148 303.752 24.4259 314 40.9333C314.486 41.6823 314.972 42.4312 315.473 43.2029C316.625 45.0583 316.625 45.0583 318 47.9333C317.67 48.9233 317.34 49.9133 317 50.9333C316.296 50.2669 315.592 49.6005 314.867 48.9138C288.7 24.3788 261.457 8.80294 225 6.93334C233.254 -3.40632 258.355 0.0124176 269 3.93334Z" fill="#171717"/>
<path d="M332 74.9331C331.325 75.1987 330.649 75.4642 329.953 75.7378C329.061 76.091 328.169 76.4442 327.25 76.8081C326.368 77.1562 325.487 77.5042 324.578 77.8628C319.699 79.6191 319.699 79.6191 316.75 83.5581C316.502 84.3419 316.255 85.1256 316 85.9331C315.01 85.6031 314.02 85.2731 313 84.9331C314.516 81.0741 316.556 79.205 320 76.9331C327.872 73.5573 327.872 73.5573 332 74.9331Z" fill="#494949"/>
<path d="M18 73.9331C24.8596 75.0916 30.234 76.614 34.875 82.1831C35.2463 82.7606 35.6175 83.3381 36 83.9331C33.2647 83.5279 31.9729 82.9107 29.8125 81.1206C26.1652 78.2838 22.2539 76.6754 18 74.9331C18 74.6031 18 74.2731 18 73.9331Z" fill="#424242"/>
<path d="M31.0002 113.933C31.9902 114.263 32.9802 114.593 34.0002 114.933C31.5252 119.388 31.5252 119.388 29.0002 123.933C28.0002 121.933 28.0002 121.933 28.5588 119.988C28.8488 119.268 29.1388 118.549 29.4377 117.808C29.7251 117.084 30.0126 116.359 30.3088 115.613C30.5369 115.058 30.7651 114.504 31.0002 113.933Z" fill="#5D5D5D"/>
<path d="M140.445 190.348C157.074 199.7 175.276 203.521 194.195 198.223C202.944 194.938 211.231 190.381 219.457 185.977C232.421 179.182 248.585 175.416 263.07 179.848C264.462 180.437 265.836 181.065 267.195 181.723C268.605 182.327 268.605 182.327 270.043 182.942C283.743 189.177 293.342 199.242 299.008 213.161C306.375 234.051 304.518 255.174 295.44 275.162C289.878 286.69 281.907 296.693 269.805 301.716C253.789 307.284 234.454 306.239 219.116 299.107C212.019 295.608 205.578 291.452 199.258 286.704C188.245 279.582 174.845 280.445 162.195 281.723C157.563 282.721 153.962 284.885 150.195 287.723C149.251 288.396 148.306 289.069 147.332 289.763C145.444 291.127 143.567 292.506 141.703 293.903C127.278 304.374 108.489 306.03 91.1954 304.723C79.183 302.628 69.3284 295.339 62.1095 285.684C55.8949 276.071 51.1846 266.058 49.1954 254.723C48.8551 252.836 48.8551 252.836 48.5079 250.911C46.6085 231.35 49.8546 213.77 61.3322 197.739C66.4384 191.689 72.3197 187.57 79.1954 183.723C80.2473 183.125 81.2992 182.527 82.3829 181.911C102.75 173.312 122.372 180.161 140.445 190.348Z" fill="#72010F"/>
<path d="M144.04 197.496C159.326 205.773 177.473 208.261 194.617 203.798C198.328 202.375 201.737 200.658 205.195 198.724C208.083 197.191 210.978 195.672 213.875 194.156C215.865 193.106 217.846 192.039 219.816 190.951C229.193 185.861 238.056 183.155 248.758 183.349C249.583 183.359 250.408 183.369 251.258 183.379C257.314 183.534 262.637 184.175 268.195 186.724C269.105 187.137 270.015 187.551 270.953 187.977C277.497 191.25 282.356 195.261 287.195 200.724C255.909 227.418 205.171 236.047 165.195 233.724C164.341 233.674 163.487 233.625 162.607 233.574C127.693 231.323 93.248 221.542 64.1953 201.724C86.2032 174.068 117.519 183.035 144.04 197.496Z" fill="#FDFCFC"/>
<path d="M207.195 250.723C208.008 250.922 208.821 251.121 209.659 251.325C235.558 257.842 259.949 268.433 281.195 284.723C280.646 288.459 279.308 289.904 276.383 292.223C264.733 300.687 250.931 301.416 237.022 299.41C224.021 296.959 213.167 290.657 202.445 283.238C190.184 274.775 176.488 273.743 161.898 276.301C155.135 278.556 149.134 282.618 143.094 286.34C126.132 296.762 109.079 303.072 88.8867 299.067C82.4393 296.945 76.1558 293.378 71.1953 288.723C70.4219 286.504 70.4219 286.504 70.1953 284.723C107.686 255.573 160.285 239.167 207.195 250.723Z" fill="#FDFCFC"/>
<path d="M140.445 190.348C157.074 199.7 175.276 203.521 194.195 198.223C202.944 194.938 211.231 190.381 219.457 185.977C232.421 179.182 248.585 175.416 263.07 179.848C264.462 180.437 265.836 181.065 267.195 181.723C268.605 182.327 268.605 182.327 270.043 182.942C283.743 189.177 293.342 199.242 299.008 213.161C306.375 234.051 304.518 255.174 295.44 275.162C289.878 286.69 281.907 296.693 269.805 301.716C253.789 307.284 234.454 306.239 219.116 299.107C212.019 295.608 205.578 291.452 199.258 286.704C188.245 279.582 174.845 280.445 162.195 281.723C157.563 282.721 153.962 284.885 150.195 287.723C149.251 288.396 148.306 289.069 147.332 289.763C145.444 291.127 143.567 292.506 141.703 293.903C127.278 304.374 108.489 306.03 91.1954 304.723C79.183 302.628 69.3284 295.339 62.1095 285.684C55.8949 276.071 51.1846 266.058 49.1954 254.723C48.8551 252.836 48.8551 252.836 48.5079 250.911C46.6085 231.35 49.8546 213.77 61.3322 197.739C66.4384 191.689 72.3197 187.57 79.1954 183.723C80.2473 183.125 81.2992 182.527 82.3829 181.911C102.75 173.312 122.372 180.161 140.445 190.348ZM64.1954 200.723C63.5409 202.737 63.5409 202.737 63.1954 204.723C62.4503 205.948 61.6763 207.155 60.8829 208.348C51.7863 224.453 52.4408 245.493 57.1954 262.723C59.5138 269.646 62.5289 275.745 66.7658 281.688C68.1954 283.723 68.1954 283.723 69.5939 286.255C73.7231 292.62 81.8165 296.741 88.8869 299.067C113.226 303.895 133.412 293.503 153.141 280.415C160.54 276.318 167.307 275.239 175.695 275.348C176.581 275.337 177.467 275.325 178.379 275.313C188.027 275.356 195.174 278.282 203.133 283.536C204.529 284.43 205.924 285.323 207.32 286.216C208.612 287.051 209.904 287.887 211.195 288.723C217.348 292.667 223.084 295.898 230.195 297.723C230.834 297.891 231.473 298.059 232.131 298.232C245.786 301.58 261.372 301.565 273.672 294.251C286.051 285.495 293.881 269.008 296.758 254.352C298.739 237.919 298.258 219.712 288.465 205.704C287.158 203.665 286.775 202.047 286.195 199.723C281.027 191.772 269.653 186.603 260.766 184.016C256.906 183.576 253.078 183.458 249.195 183.411C248.421 183.382 247.646 183.353 246.848 183.323C234.601 183.194 224.074 188.448 213.57 194.223C200.647 201.277 190.726 205.418 175.82 205.286C174.596 205.31 173.371 205.334 172.11 205.358C159.063 205.337 148.968 200.409 137.758 194.223C113.138 181.117 84.6742 177.111 64.1954 200.723Z" fill="#1B1A1A"/>
<path d="M192.055 306.161C194.619 308.033 196.472 310.06 198.195 312.724C194.636 312.135 191.414 311.096 188.031 309.857C181.056 307.383 174.669 306.258 167.258 306.286C166.106 306.29 166.106 306.29 164.931 306.294C157.19 306.495 150.135 307.981 143.133 311.349C141.723 312.018 141.723 312.018 140.285 312.7C139.596 313.038 138.906 313.376 138.195 313.724C141.362 306.591 148.155 302.554 155.195 299.724C167.748 295.594 181.326 299.413 192.055 306.161Z" fill="#191919"/>
<path d="M144.195 305.724C144.855 306.054 145.515 306.384 146.195 306.724C144.166 309.665 142.137 311.695 139.195 313.724C139.195 310.724 139.195 310.724 141.695 308.036C142.52 307.273 143.345 306.51 144.195 305.724Z" fill="#3C3C3C"/>
</svg>
