<svg width="314" height="243" viewBox="0 0 314 243" fill="none" xmlns="http://www.w3.org/2000/svg">
<path d="M0 235C3.68206 235.169 7.36412 235.338 11.1578 235.513C92.9032 239.151 173.181 240.772 259.161 237.675C278.106 236.881 296.057 236.009 314 235C301.172 238.337 265.998 240.357 235.54 241.838C179.375 243.809 119.414 243.167 65.8387 240.706C42.5418 239.352 20.4272 237.811 0 236.037C0 235.695 0 235.353 0 235Z" fill="#252525"/>
<path d="M257 46.0001C269.103 54.7581 277.682 65.0371 285 78.0001C285.473 78.8329 285.946 79.6656 286.434 80.5236C297.116 100.557 300.838 125.969 295.5 148.125C290.033 164.99 281.984 178.443 266 187C265.205 187.436 264.409 187.872 263.59 188.32C253.135 193.059 238.387 192.747 227.5 189.5C204.599 180.164 188.43 161.389 179 139C177.044 134.079 175.438 129.099 174 124C173.754 123.139 173.508 122.278 173.254 121.391C168.989 102.919 171.008 79.7291 180 63.0001C186.949 51.9994 194.211 44.5661 206 39.0001C206.685 38.6573 207.369 38.3144 208.074 37.9611C223.937 31.292 243.378 37.1101 257 46.0001Z" fill="#FDFEFE"/>
<path d="M92.8123 35.5C93.5885 35.4936 94.3647 35.4871 95.1644 35.4805C106.841 35.7391 118.641 41.0622 127.129 49.0039C140.121 62.8638 145.608 80.5773 145.375 99.25C145.365 100.434 145.355 101.617 145.344 102.837C144.864 130.036 134.443 154.038 115 173C114.3 173.697 113.6 174.395 112.879 175.113C100.54 186.682 86.2875 191.635 69.6573 191.473C62.8396 191.246 57.0455 190.334 50.9999 187C50.229 186.576 49.4581 186.152 48.6639 185.715C33.4396 176.388 25.3805 161.871 20.9999 145C16.5591 117.196 23.0755 90.7876 38.6483 67.5391C51.7556 49.8282 70.0143 35.6781 92.8123 35.5Z" fill="#FDFEFE"/>
<path d="M114.062 96.1876C121.731 100.919 126.686 108.36 129 117C130.83 133.246 127.132 147.455 117.117 160.441C112.946 165.406 108.749 169.014 103 172C101.927 172.598 100.855 173.196 99.75 173.813C93.1867 175.891 86.7794 175.82 80.1875 173.875C73.2241 169.779 68.9455 165.594 66 158C65.6416 157.085 65.2832 156.17 64.914 155.227C61.5003 143.176 64.1024 129.343 69.625 118.375C78.5776 103.056 95.1807 88.8516 114.062 96.1876Z" fill="#90FDDA"/>
<path d="M225.25 96.4375C237.315 102.053 246.142 113.89 251 126C254.259 136.879 255.387 150.309 250.5 160.812C246.747 167.056 242.356 171.57 235.625 174.437C226.941 175.785 219.755 175.503 212 171C208.401 168.242 205.184 165.223 202 162C201.422 161.444 200.845 160.889 200.25 160.316C190.283 149.908 187.446 135.586 187.695 121.719C188.497 111.937 192.522 104.387 200 98C207.593 93.3878 216.943 93.5721 225.25 96.4375Z" fill="#90FDDA"/>
<path d="M257 46.0001C269.103 54.7581 277.682 65.0371 285 78.0001C285.473 78.8329 285.946 79.6656 286.434 80.5236C297.116 100.557 300.838 125.969 295.5 148.125C290.033 164.99 281.984 178.443 266 187C265.205 187.436 264.409 187.872 263.59 188.32C253.135 193.059 238.387 192.747 227.5 189.5C204.599 180.164 188.43 161.389 179 139C177.044 134.079 175.438 129.099 174 124C173.754 123.139 173.508 122.278 173.254 121.391C168.989 102.919 171.008 79.7291 180 63.0001C186.949 51.9994 194.211 44.5661 206 39.0001C206.685 38.6573 207.369 38.3144 208.074 37.9611C223.937 31.292 243.378 37.1101 257 46.0001ZM191.313 55.5626C177.281 72.0036 175.523 92.245 177 113C179.348 135.362 191.434 157.02 208 172C208.754 172.776 208.754 172.776 209.524 173.567C213.318 177.255 217.685 179.504 222.438 181.75C223.058 182.044 223.679 182.338 224.319 182.641C236.344 188.08 248.411 188.634 260.93 184.32C275.022 178.26 283.309 166.783 289 153C296.79 129.004 292.996 104.118 281.996 81.8673C277.21 72.6326 271.408 65.2558 264 58.0001C263.295 57.2512 262.59 56.5023 261.863 55.7306C251.612 45.5187 236.624 41.0516 222.5 40.6876C209.309 40.9244 200.453 46.1272 191.313 55.5626Z" fill="#191919"/>
<path d="M92.8123 35.5C93.5885 35.4936 94.3647 35.4871 95.1644 35.4805C106.841 35.7391 118.641 41.0622 127.129 49.0039C140.121 62.8638 145.608 80.5773 145.375 99.25C145.365 100.434 145.355 101.617 145.344 102.837C144.864 130.036 134.443 154.038 115 173C114.3 173.697 113.6 174.395 112.879 175.113C100.54 186.682 86.2875 191.635 69.6573 191.473C62.8396 191.246 57.0455 190.334 50.9999 187C50.229 186.576 49.4581 186.152 48.6639 185.715C33.4396 176.388 25.3805 161.871 20.9999 145C16.5591 117.196 23.0755 90.7876 38.6483 67.5391C51.7556 49.8282 70.0143 35.6781 92.8123 35.5ZM53.9999 57C53.3837 57.5324 52.7675 58.0648 52.1327 58.6133C37.1312 72.5432 26.1314 95.5072 24.807 115.982C24.2212 138.752 25.5555 157.508 41.742 174.895C51.2256 183.738 62.0739 187.68 74.9647 187.281C94.0411 185.514 107.537 175.039 119.672 160.984C137.129 138.952 142.912 112.163 139.711 84.5068C137.216 69.8315 129.436 57.3152 118 48C114.776 45.9574 111.566 44.3483 108 43C107.07 42.6365 106.141 42.273 105.183 41.8984C86.4457 36.6105 67.8867 44.8313 53.9999 57Z" fill="#1A1A1A"/>
<path d="M250 48C256.446 50.9758 260.942 55.0949 266 60C266.768 60.7425 267.537 61.485 268.328 62.25C284.677 79.17 292.681 103.37 293.375 126.562C292.825 144.753 288.059 161.618 275.129 174.926C265.512 183.962 254.433 187.553 241.434 187.312C231.314 186.392 222.604 182.172 214 177C216 176 216 176 217.891 176.559C219.059 176.994 219.059 176.994 220.25 177.438C230.292 180.601 243.001 180.399 252.59 175.742C255.154 174.269 257.579 172.697 260 171C260.639 170.558 261.279 170.116 261.938 169.66C273.235 160.96 279.187 145.71 281 132C281.275 128.265 281.335 124.557 281.312 120.812C281.308 119.814 281.303 118.816 281.298 117.788C281.091 104.61 278.737 92.9643 273 81C272.558 80.0152 272.116 79.0303 271.66 78.0156C266.812 67.6478 260.496 58.4066 251.434 51.3047C250.961 50.8741 250.487 50.4436 250 50C250 49.34 250 48.68 250 48Z" fill="#C9C9C9"/>
<path d="M64 49C64.66 49.33 65.32 49.66 66 50C65.0512 50.8662 64.1025 51.7325 63.125 52.625C44.9742 70.9954 35.8312 94.8903 35.8125 120.438C35.8002 121.315 35.788 122.192 35.7754 123.096C35.7617 129.287 36.5684 134.984 38 141C38.2019 141.859 38.4038 142.719 38.6118 143.604C40.3423 150.618 43.8323 156.162 48 162C48.4744 162.673 48.9487 163.346 49.4375 164.039C53.388 169.134 58.432 171.905 64 175C64.99 175.66 65.98 176.32 67 177C76.5156 180.806 87.3125 179.595 97 177C98.9971 176.65 100.996 176.308 103 176C96.1432 183.536 84.8003 186.267 75.0273 187.32C62.1151 187.831 51.638 183.416 42 175C35.8602 169.322 32.2317 162.656 29 155C28.3754 153.565 28.3754 153.565 27.7383 152.102C20.1849 131.058 24.1411 105.642 33.1594 85.6738C40.1643 70.9868 50.6659 58.3504 64 49Z" fill="#CACACA"/>
<path d="M215 114C215.392 114.908 215.784 115.815 216.188 116.75C218.151 120.272 219.538 121.954 223 124C226.79 124.327 229.394 124.202 233 123C237.599 130.317 239.109 136.35 238 145C236.256 149.364 233.392 154.048 229 156C223.81 157.017 219.855 156.334 215.312 153.625C209.773 149.57 207.008 144.016 204 138C203.824 135.588 203.733 133.168 203.688 130.75C203.65 129.445 203.613 128.141 203.574 126.797C204.155 121.615 206.25 118.591 210.062 115.125C212 114 212 114 215 114Z" fill="#101111"/>
<path d="M103 114C106.943 115.314 109.38 116.747 112 120C115.07 126.754 114.629 132.708 112.375 139.562C109.425 147.009 105.434 152.074 98.0116 155.34C93.3001 156.886 90.143 156.572 85.7499 154.375C81.7288 150.902 80.2212 148.358 79.7186 143.004C79.5344 136.366 79.8252 130.896 82.9999 125C85.7793 123.957 88.4937 123.893 91.4374 123.75C95.0478 123.376 95.939 123.048 98.9374 120.688C100.63 118.482 101.956 116.563 103 114Z" fill="#0F1010"/>
<path d="M207 1.00002C236.492 0.356103 258.567 5.09501 280.701 25.7898C288.447 33.2122 295.081 41.0555 301 50C300.505 50.99 300.505 50.99 300 52C299.594 51.5677 299.188 51.1354 298.769 50.69C283.179 34.2363 262.864 16.9942 238.933 15.906C236.579 15.8655 234.229 15.8619 231.875 15.875C230.623 15.8779 230.623 15.8779 229.346 15.8809C222.863 15.9259 216.446 16.2796 210 17C209.496 14.8968 208.997 12.7924 208.5 10.6875C208.082 8.92989 208.082 8.92989 207.656 7.13674C207 4.00002 207 4.00002 207 1.00002Z" fill="#151515"/>
<path d="M98.4375 0.875C99.9447 0.869199 99.9447 0.869199 101.482 0.863281C102.436 0.86457 103.389 0.865859 104.371 0.867188C105.669 0.868879 105.669 0.868879 106.994 0.870605C109 1 109 1 110 2C109.846 7.53814 108.677 12.7463 107 18C106.066 17.7834 106.066 17.7834 105.113 17.5625C82.5162 13.0242 62.3296 16.5591 43 29C33.7413 35.3472 25.706 42.8693 18 51C18 42.2579 29.5054 32.4628 35.4565 26.4863C52.9788 9.61266 74.143 0.778911 98.4375 0.875Z" fill="#151515"/>
<path d="M224 102C228.885 104.638 232.999 107.649 234.64 113.145C235.411 117.444 235.447 119.315 233 123.062C229.178 125.531 227.475 125.849 223 125C219.4 122.804 216.744 120.23 214.562 116.625C213.751 112.841 213.629 109.89 214 106C216.707 101.835 219.182 101.229 224 102Z" fill="#FAFCFB"/>
<path d="M98.9999 102C101.375 103.437 101.375 103.437 103 106C103.711 110.282 103.517 113.837 101.75 117.812C101.172 118.534 100.595 119.256 99.9999 120C99.4636 120.742 98.9274 121.485 98.3749 122.25C94.8327 124.86 91.3517 125.303 86.9999 125C84.4374 123.625 84.4374 123.625 82.9999 121C82.1611 116.338 82.5345 112.949 84.6249 108.687C88.764 104.004 92.5287 100.875 98.9999 102Z" fill="#FBFDFC"/>
<path d="M31 37C31.66 37.33 32.32 37.66 33 38C30.3831 40.6747 27.7552 43.3383 25.125 46C24.3786 46.7631 23.6323 47.5263 22.8633 48.3125C22.1479 49.0344 21.4324 49.7563 20.6953 50.5C19.7056 51.5055 19.7056 51.5055 18.6958 52.5312C17 54 17 54 15 54C16.1144 50.6568 16.9747 49.9398 19.625 47.75C23.6308 44.3588 27.3422 40.7607 31 37Z" fill="#DCDCDC"/>
<path d="M67 47C67.99 47.33 68.98 47.66 70 48C66.37 51.63 62.74 55.26 59 59C59 55.0387 60.3488 54.1709 63 51.3125C63.7425 50.5043 64.485 49.696 65.25 48.8633C65.8275 48.2484 66.405 47.6335 67 47Z" fill="#ECECEC"/>
<path d="M124 151C124.33 151.99 124.66 152.98 125 154C123.35 155.65 121.7 157.3 120 159C119.67 158.34 119.34 157.68 119 157C120.213 153.766 121.013 152.991 124 151Z" fill="#F1F4F3"/>
</svg>
