<svg width="336" height="315" viewBox="0 0 336 315" fill="none" xmlns="http://www.w3.org/2000/svg">
<path d="M264.083 263C268.016 263.181 271.948 263.361 276 263.547C271.891 264.038 267.782 264.53 263.548 265.036C155.695 278.11 88.4969 292.132 81.9794 308.671C81.7221 309.28 81.4648 309.89 81.1997 310.517C80.5714 312.012 79.9629 313.506 79.3726 315C42.4525 309.913 48.1621 301.507 59.8448 295.635C70.5467 290.928 86.3356 286.493 109.165 282.158C113.554 281.309 113.554 281.309 118.032 280.443C154.439 273.818 204.776 268.027 264.083 263Z" fill="#97193C"/>
<path d="M329.185 255.932C332.119 257.63 334.278 259.01 336 261.361C335.982 263.27 335.982 263.27 335.716 265.531C335.64 266.272 335.564 267.014 335.485 267.779C334.806 270.092 333.718 271.245 331.457 272.996C331.401 272.239 331.345 271.482 331.288 270.703C331.203 269.716 331.118 268.729 331.031 267.712C330.952 266.731 330.873 265.75 330.791 264.74C330.592 262.038 330.592 262.038 328.049 259.81C325.863 259.418 325.863 259.418 323.355 259.413C321.982 259.372 321.982 259.372 320.582 259.33C319.626 259.312 318.67 259.295 317.685 259.277C316.72 259.25 315.755 259.224 314.761 259.196C312.376 259.132 309.99 259.082 307.604 259.034C308.74 257.483 308.74 257.483 311.305 256.795C322.962 254.572 322.962 254.572 329.185 255.932Z" fill="#2F2F2F"/>
<path d="M22.1999 256.452C24.6114 257.007 26.9757 257.593 29.3255 258.258C29.3255 258.514 29.3255 258.77 29.3255 259.034C27.8892 259.045 26.4528 259.056 24.973 259.067C23.0873 259.104 21.2016 259.141 19.316 259.179C17.8961 259.186 17.8961 259.186 16.4476 259.193C13.8133 259.258 11.4377 259.371 8.88053 259.81C5.59928 262.257 5.00949 264.558 4.69215 267.809C4.61747 268.493 4.5428 269.178 4.46587 269.884C4.42341 270.399 4.38095 270.914 4.3372 271.444C0.49118 268.436 0.425317 266.328 0.592503 262.458C1.02343 260.065 2.07313 258.55 4.3372 256.707C9.52387 254.936 16.7153 255.529 22.1999 256.452Z" fill="#2A2A2A"/>
<path d="M69.0795 303.248C69.8292 303.504 70.5788 303.759 71.3512 304.023C70.3218 305.031 69.2777 306.031 68.2276 307.029C67.6478 307.587 67.068 308.145 66.4706 308.72C64.4279 310.313 62.8255 310.97 59.9929 311.78C58.8684 312.164 58.8684 312.164 57.7212 312.556C59.3991 309.878 61.6261 308.173 64.6782 306.156C65.501 305.608 66.3239 305.06 67.1717 304.496C67.8013 304.084 68.4308 303.672 69.0795 303.248Z" fill="#A61B42"/>
<path d="M116.113 35.9699C130.803 35.2704 142.668 41.0203 153.551 50.4699C160.168 56.6652 164.597 63.4076 169 71.2551C169.549 70.5455 169.549 70.5455 170.11 69.8215C178.819 59.1836 190.397 50.4365 204.412 49.0095C213.783 48.4385 223.306 48.3349 232 52.2551C232.812 52.5954 233.624 52.9357 234.461 53.2864C255.734 62.9738 267.957 82.7706 276.313 103.693C280.603 116.241 282.665 131.015 282 144.255C281.945 145.411 281.889 146.568 281.832 147.759C280.212 170.252 271.728 190.215 256 206.255C255.46 206.82 254.92 207.384 254.363 207.966C244.624 217.239 231.639 221.191 218.461 221.279C201.512 220.577 188.874 212.934 177 201.255C176.299 200.567 175.598 199.878 174.875 199.169C170.005 194.052 161 183.744 161 176.255C158.258 178.792 156.227 181.657 154.063 184.693C142.764 199.992 128.492 211.781 109.754 216.864C93.5403 219.164 79.3932 217.162 65.8829 207.568C49.0076 194.031 40.7753 173.85 38.2477 152.794C35.1733 121.262 43.9622 89.5415 64.058 64.8711C65.3568 63.3195 66.6777 61.7865 68.0001 60.2551C68.8896 59.2129 68.8896 59.2129 69.797 58.1496C81.9328 45.0226 98.5757 37.5763 116.113 35.9699Z" fill="#FDFEFD"/>
<path d="M235.672 59.5404C256.013 70.8794 267.46 90.6049 274 112.255C280.825 137.895 277.448 165.447 264.687 188.63C256.487 201.885 245.98 210.804 231 215.255C230.379 215.447 229.757 215.639 229.117 215.837C214.977 218.629 202.945 214.329 190.887 207.232C184.682 202.984 179.862 198.309 175.5 192.193C175.034 191.545 174.567 190.898 174.087 190.23C162.783 174.234 162.783 174.234 163.187 168.685C164.032 166.16 165.053 163.883 166.25 161.505C171.418 150.404 174.436 138.373 176 126.255C176.33 126.255 176.66 126.255 177 126.255C177.086 127.404 177.173 128.552 177.262 129.736C178.594 145.269 182.155 159.71 194.457 170.388C203.39 176.947 210.881 179.298 222 178.255C229.954 176.869 235.571 172.628 240.504 166.337C246.058 158.031 247.539 149.742 247.437 139.88C247.427 138.353 247.427 138.353 247.417 136.796C247.263 129.618 246.459 123.643 243 117.255C242.626 116.475 242.252 115.695 241.867 114.892C236.403 104.126 228.895 98.0312 218.125 92.8802C210.416 91.3384 201.885 91.0408 195 95.2552C185.578 102.136 180.686 110.024 178 121.255C177.67 121.255 177.34 121.255 177 121.255C176.963 119.974 176.925 118.693 176.887 117.372C176.481 105.974 175.59 95.2361 172.043 84.306C171.223 81.4106 170.751 79.2582 171 76.2552C176.417 66.7647 187.663 58.6318 198.125 55.7279C198.744 55.5719 199.362 55.4159 200 55.2552C211.458 51.4358 225.163 54.4857 235.672 59.5404Z" fill="#FDFEFE"/>
<path d="M116.113 35.9699C130.803 35.2704 142.668 41.0203 153.551 50.4699C160.168 56.6652 164.597 63.4076 169 71.2551C169.549 70.5455 169.549 70.5455 170.11 69.8215C178.819 59.1836 190.397 50.4365 204.412 49.0095C213.783 48.4385 223.306 48.3349 232 52.2551C232.812 52.5954 233.624 52.9357 234.461 53.2864C255.734 62.9738 267.957 82.7706 276.313 103.693C280.603 116.241 282.665 131.015 282 144.255C281.945 145.411 281.889 146.568 281.832 147.759C280.212 170.252 271.728 190.215 256 206.255C255.46 206.82 254.92 207.384 254.363 207.966C244.624 217.239 231.639 221.191 218.461 221.279C201.512 220.577 188.874 212.934 177 201.255C176.299 200.567 175.598 199.878 174.875 199.169C170.005 194.052 161 183.744 161 176.255C158.258 178.792 156.227 181.657 154.063 184.693C142.764 199.992 128.492 211.781 109.754 216.864C93.5403 219.164 79.3932 217.162 65.8829 207.568C49.0076 194.031 40.7753 173.85 38.2477 152.794C35.1733 121.262 43.9622 89.5415 64.058 64.8711C65.3568 63.3195 66.6777 61.7865 68.0001 60.2551C68.8896 59.2129 68.8896 59.2129 69.797 58.1496C81.9328 45.0226 98.5757 37.5763 116.113 35.9699ZM76.0001 59.2551C75.295 59.8919 74.5899 60.5287 73.8634 61.1848C68.7641 66.0218 64.7886 71.3524 61.0001 77.2551C60.4239 78.1368 59.8477 79.0185 59.254 79.927C44.2723 104.085 39.2315 133.487 44.1251 161.443C48.4952 179.393 56.9544 196.505 73.0001 206.63C77.4984 209.156 82.0245 210.922 87.0001 212.255C88.2686 212.595 88.2686 212.595 89.5626 212.943C104.373 214.841 119.846 209.821 131.745 200.955C135.413 197.955 138.719 194.669 142 191.255C142.737 190.514 143.475 189.773 144.235 189.009C153.158 179.584 158.903 168.073 164 156.255C164.507 155.148 165.013 154.04 165.535 152.9C167.14 148.908 168.183 145.004 169.125 140.818C169.294 140.105 169.463 139.393 169.637 138.659C172.213 127.492 172.216 116.649 172 105.255C171.983 104.226 171.967 103.198 171.949 102.138C171.012 84.5156 162.524 66.3972 150 54.2551C149.425 53.6712 148.85 53.0872 148.258 52.4856C139.383 44.0989 127.394 40.8351 115.508 41.0832C100.444 41.8213 87.008 49.1398 76.0001 59.2551ZM194 57.2551C193.303 57.5606 192.605 57.8661 191.887 58.1809C183.96 62.0528 175.894 68.9149 171 76.2551C171.088 78.5446 171.088 78.5446 171.688 81.0676C171.886 82.055 172.085 83.0424 172.289 84.0598C172.76 86.1747 173.254 88.2844 173.774 90.3879C176.226 100.658 176.693 110.728 177 121.255C178.453 118.418 179.545 115.65 180.563 112.63C183.987 103.992 190.544 97.0686 199 93.2551C206.833 90.8374 215.231 91.5503 222.621 94.9309C234.559 101.576 241.55 111.666 246.117 124.361C248.734 135.904 249.22 151.865 243 162.255C238.514 169.273 233.551 174.381 225.813 177.568C215.239 179.474 206.788 178.464 197.625 172.782C187.439 165.504 180.721 154.258 178.598 141.917C177.872 136.711 177.394 131.495 177 126.255C176.67 126.255 176.34 126.255 176 126.255C175.842 127.236 175.683 128.217 175.52 129.228C173.442 141.472 170.291 153.113 164.797 164.325C163.775 166.801 163.151 168.548 163 171.255C164.156 173.942 165.328 176.262 166.813 178.755C167.223 179.457 167.633 180.159 168.056 180.882C177.914 197.396 189.648 209.197 208.367 215.364C217.906 217.703 227.939 216.986 237 213.255C237.672 212.988 238.343 212.721 239.035 212.447C256.36 204.697 265.416 188.802 272.32 172.052C280.947 148.154 278.5 119.535 268.399 96.4465C259.521 77.9404 246.703 63.4485 227.289 55.9817C217.134 52.7582 203.701 52.5112 194 57.2551Z" fill="#90FDDA"/>
<path d="M131 85.2554C132.361 86.0907 132.361 86.0907 133.75 86.9429C143.08 96.5318 145.349 108.099 145.458 121.007C145.165 135.991 137.301 150.347 127.258 161.154C117.394 170.335 105.734 175.089 92.2969 174.634C83.876 173.667 77.7045 169.372 72 163.255C70.006 160.718 68.4422 158.14 67 155.255C66.6803 154.637 66.3606 154.018 66.0313 153.38C61.3066 142.181 63.0656 126.368 67 115.255C72.8886 101.23 82.5302 90.3755 96 83.2554C96.6175 82.8971 97.2349 82.5387 97.8711 82.1695C108.025 77.2396 121.997 79.0292 131 85.2554Z" fill="#8FFDDA"/>
<path d="M116.113 35.9699C130.803 35.2704 142.668 41.0203 153.551 50.4699C160.168 56.6652 164.597 63.4076 169 71.2551C169.549 70.5455 169.549 70.5455 170.11 69.8215C178.819 59.1836 190.397 50.4365 204.412 49.0095C213.783 48.4385 223.306 48.3349 232 52.2551C232.812 52.5954 233.624 52.9357 234.461 53.2864C255.734 62.9738 267.957 82.7706 276.313 103.693C280.603 116.241 282.665 131.015 282 144.255C281.945 145.411 281.889 146.568 281.832 147.759C280.212 170.252 271.728 190.215 256 206.255C255.46 206.82 254.92 207.384 254.363 207.966C244.624 217.239 231.639 221.191 218.461 221.279C201.512 220.577 188.874 212.934 177 201.255C176.299 200.567 175.598 199.878 174.875 199.169C170.005 194.052 161 183.744 161 176.255C158.258 178.792 156.227 181.657 154.063 184.693C142.764 199.992 128.492 211.781 109.754 216.864C93.5403 219.164 79.3932 217.162 65.8829 207.568C49.0076 194.031 40.7753 173.85 38.2477 152.794C35.1733 121.262 43.9622 89.5415 64.058 64.8711C65.3568 63.3195 66.6777 61.7865 68.0001 60.2551C68.8896 59.2129 68.8896 59.2129 69.797 58.1496C81.9328 45.0226 98.5757 37.5763 116.113 35.9699ZM76.0001 59.2551C75.295 59.8919 74.5899 60.5287 73.8634 61.1848C68.7641 66.0218 64.7886 71.3524 61.0001 77.2551C60.4239 78.1368 59.8477 79.0185 59.254 79.927C44.2723 104.085 39.2315 133.487 44.1251 161.443C48.4952 179.393 56.9544 196.505 73.0001 206.63C77.4984 209.156 82.0245 210.922 87.0001 212.255C88.2686 212.595 88.2686 212.595 89.5626 212.943C104.373 214.841 119.846 209.821 131.745 200.955C135.413 197.955 138.719 194.669 142 191.255C142.737 190.514 143.475 189.773 144.235 189.009C153.158 179.584 158.903 168.073 164 156.255C164.507 155.148 165.013 154.04 165.535 152.9C167.14 148.908 168.183 145.004 169.125 140.818C169.294 140.105 169.463 139.393 169.637 138.659C172.213 127.492 172.216 116.649 172 105.255C171.983 104.226 171.967 103.198 171.949 102.138C171.012 84.5156 162.524 66.3972 150 54.2551C149.425 53.6712 148.85 53.0872 148.258 52.4856C139.383 44.0989 127.394 40.8351 115.508 41.0832C100.444 41.8213 87.008 49.1398 76.0001 59.2551ZM194 57.2551C193.303 57.5606 192.605 57.8661 191.887 58.1809C183.96 62.0528 175.894 68.9149 171 76.2551C171.088 78.5446 171.088 78.5446 171.688 81.0676C171.885 82.0576 172.082 83.0476 172.285 84.0676C172.755 86.16 173.261 88.2443 173.809 90.3176C179.744 113.947 175.922 140.042 165.867 162.013C163.75 166.463 163.75 166.463 163 171.255C164.156 173.942 165.328 176.262 166.813 178.755C167.223 179.457 167.633 180.159 168.056 180.882C177.914 197.396 189.648 209.197 208.367 215.364C217.906 217.703 227.939 216.986 237 213.255C237.672 212.988 238.343 212.721 239.035 212.447C256.36 204.697 265.416 188.802 272.32 172.052C280.947 148.154 278.5 119.535 268.399 96.4465C259.521 77.9404 246.703 63.4485 227.289 55.9817C217.134 52.7582 203.701 52.5112 194 57.2551Z" fill="#191919"/>
<path d="M84.0001 52.2554C84.4951 53.2454 84.4951 53.2454 85.0001 54.2554C84.6701 54.9154 84.3401 55.5754 84.0001 56.2554C83.3401 56.2554 82.6801 56.2554 82.0001 56.2554C81.7552 56.7968 81.5103 57.3382 81.2579 57.896C79.7074 60.8045 77.816 63.3409 75.8751 66.0054C59.0354 89.79 51.2691 119.79 55.8126 148.755C56.1858 150.593 56.5805 152.427 57.0001 154.255C57.1716 155.116 57.343 155.978 57.5196 156.865C61.2837 173.281 70.6457 188.198 85.0001 197.255C94.8917 203 105.869 205.275 117.186 202.772C121.871 201.492 126.424 199.876 131 198.255C132.327 197.899 133.658 197.551 135 197.255C131.251 201.386 127.555 203.928 122.563 206.38C121.864 206.726 121.165 207.071 120.445 207.427C107.404 213.606 94.6975 214.987 81.0001 210.255C66.2199 204.536 56.0195 192.491 49.6876 178.255C38.7615 151.148 40.7738 121.013 51.795 94.2837C58.8627 77.9891 69.7059 62.976 84.0001 52.2554Z" fill="#CACACA"/>
<path d="M248 69.2554C265.403 82.67 273.959 105.48 276.719 126.763C278.734 151.786 274.576 176.652 258.906 196.97C251.075 206.139 242.55 211.824 231 215.255C230.068 215.543 230.068 215.543 229.117 215.837C213.814 218.859 200.592 213.632 188 205.255C183.968 202.293 181.075 199.871 179 195.255C181.268 196.381 183.522 197.527 185.77 198.693C187.276 199.466 187.276 199.466 188.812 200.255C189.809 200.771 190.805 201.287 191.832 201.818C203.292 207.018 215.324 206.561 227.066 202.451C242.975 195.969 253.295 183.837 259.941 168.154C269.812 141.129 268.554 111.515 256.966 85.272C255.109 81.3958 252.838 77.8401 250.383 74.3218C249 72.2554 249 72.2554 248 69.2554Z" fill="#CACACA"/>
<path d="M111 102.255C115.773 102.677 118.844 104.788 122 108.255C126.339 114.143 126.934 120.123 126 127.255C123.997 136.332 119.473 143.037 112.125 148.701C106.506 152.048 100.36 152.108 94 151.255C88.9225 149.132 86.3552 145.68 83.918 140.876C81.1646 133.015 82.6893 125.61 86.0274 118.216C86.6828 116.895 87.3404 115.575 88 114.255C88.6291 114.374 89.2582 114.493 89.9063 114.615C95.4523 115.45 99.3845 115.483 104.309 112.638C107.204 110.271 108.436 107.634 110 104.255C110.33 103.595 110.66 102.935 111 102.255Z" fill="#0F100F"/>
<path d="M211 112.255C211.48 113.526 211.959 114.797 212.438 116.068C212.704 116.775 212.971 117.483 213.246 118.212C213.862 119.882 214.437 121.567 215 123.255C216.917 124.422 216.917 124.422 219 125.255C219.66 125.585 220.32 125.915 221 126.255C223.05 126.247 225.079 126.125 227.125 125.997C227.744 126.083 228.363 126.168 229 126.255C232.508 131.518 231.508 138.133 231 144.255C229.533 150.037 227.181 154.067 222 157.255C216.848 158.973 212.494 158.693 207.375 157.193C201.016 153.542 196.128 147.325 194 140.255C193.135 133.141 193.385 125.607 197 119.255C201.22 114.625 204.667 112.089 211 112.255Z" fill="#0F0F0F"/>
<path d="M130.441 7.31033C136.491 11.91 143.062 17.7512 147 24.2556C145.651 28.3021 143.652 29.2107 140 31.2556C136.154 29.9738 135.495 28.3946 133.25 25.0681C127.255 16.6373 120.805 11.0987 110.535 8.67361C94.41 6.01507 80.6183 13.4928 67.75 22.5408C55.2588 31.4667 55.2588 31.4667 46 43.2556C45.34 42.9256 44.68 42.5956 44 42.2556C63.7074 16.9744 97.1311 -13.9017 130.441 7.31033Z" fill="#181818"/>
<path d="M209.867 0.0678968C226.486 -0.906095 241.973 8.7511 254 19.2554C254.856 19.9902 255.712 20.7249 256.594 21.482C269.624 32.9032 269.624 32.9032 273 40.2554C266.648 34.8699 266.648 34.8699 263.801 32.1695C251.708 20.7766 235.861 9.84462 219 8.2554C218.156 8.1729 217.311 8.0904 216.441 8.0054C207.39 7.55352 200.64 10.5445 193.812 16.3804C189.11 20.8448 185.45 25.784 182 31.2554C178.005 29.8857 175.2 27.9982 172 25.2554C180.937 13.512 190.492 4.24747 205.125 0.442897C206.707 0.339703 208.289 0.22633 209.867 0.0678968Z" fill="#1A1A1A"/>
<path d="M106 89.2555C108.81 91.0491 110.51 92.2743 112 95.2555C112.6 101.25 111.294 105.347 108 110.255C104.096 114.059 100.4 115.955 95.0001 116.63C91.2448 116.161 89.6833 114.862 87.0001 112.255C85.2621 108.779 85.5443 105.056 86.0001 101.255C90.0353 93.1852 96.7625 87.9282 106 89.2555Z" fill="#FAFCFC"/>
<path d="M222.594 101.763C226.264 102.514 227.797 104.318 230 107.255C230.53 107.869 231.06 108.482 231.606 109.115C233.285 111.692 233.403 113.203 233.375 116.255C233.383 117.101 233.391 117.946 233.398 118.818C232.923 121.724 232.014 123.133 230 125.255C229.34 125.255 228.68 125.255 228 125.255C228 125.915 228 126.575 228 127.255C223.964 127.578 221.482 127.492 217.813 125.693C213.884 122.288 211.477 119.093 210.617 113.978C210.428 110.184 210.808 107.683 212.375 104.193C215.849 101.629 218.348 101.551 222.594 101.763Z" fill="#FAFCFB"/>
<path d="M285 174.255C285.33 174.255 285.66 174.255 286 174.255C286.503 187.632 283.64 200.373 274.625 210.693C268.515 217.005 261.772 222.944 252.668 223.435C249.439 223.442 246.226 223.386 243 223.255C245.32 220.936 246.828 220.585 249.938 219.63C263.516 214.778 271.698 205.267 277.891 192.588C280.701 186.616 283.113 180.584 285 174.255Z" fill="#0F0F0F"/>
<path d="M34 176.255C36.5902 178.846 37.4363 181.767 38.6875 185.13C45.2613 202.073 53.6565 212.321 70 220.255C72.3209 221.038 74.6213 221.658 77 222.255C77 222.585 77 222.915 77 223.255C65.4796 224.259 57.3571 221.573 48.1875 214.568C40.1324 207.004 34.5284 195.852 33.7617 184.83C33.7516 181.958 33.8171 179.121 34 176.255Z" fill="#0D0D0D"/>
<path d="M65 19.2554C65.66 19.5854 66.32 19.9154 67 20.2554C64.6345 23.6169 61.922 26.3703 59 29.2554C56.9146 31.3158 54.8319 33.3789 52.75 35.4429C52.2086 35.9759 51.6672 36.5089 51.1094 37.0581C48.1924 39.8804 48.1924 39.8804 46 43.2554C45.34 42.9254 44.68 42.5954 44 42.2554C50.4633 33.9641 57.4641 26.5618 65 19.2554Z" fill="#272727"/>
<path d="M52 32.2554C52.99 32.5854 53.98 32.9154 55 33.2554C54.4341 33.8097 53.8682 34.364 53.2852 34.9351C52.5517 35.6595 51.8182 36.384 51.0625 37.1304C50.3316 37.8497 49.6007 38.569 48.8477 39.3101C46.9433 41.1256 46.9433 41.1256 46 43.2554C45.34 42.9254 44.68 42.5954 44 42.2554C46.64 38.9554 49.28 35.6554 52 32.2554Z" fill="#5D5D5D"/>
<path d="M89 49.2554C89.66 49.5854 90.32 49.9154 91 50.2554C87.535 53.2254 87.535 53.2254 84 56.2554C85.2498 52.6022 85.671 51.4747 89 49.2554ZM82 56.2554C82.99 56.7504 82.99 56.7504 84 57.2554C83.01 57.7504 83.01 57.7504 82 58.2554C82 57.5954 82 56.9354 82 56.2554Z" fill="#E6E6E6"/>
</svg>
