<svg width="233" height="335" viewBox="0 0 233 335" fill="none" xmlns="http://www.w3.org/2000/svg">
<path d="M106.87 42.5812C113.86 48.5901 118.931 55.1829 123.05 63.421C126.09 62.0785 127.966 60.6356 130.175 58.171C138.253 49.9041 149.42 44.379 161.018 44.0499C178.826 44.0167 191.369 50.0742 204.171 62.4757C212.73 71.5851 219.026 82.6215 223.05 94.421C223.443 95.5451 223.836 96.6691 224.242 97.8273C227.265 107.638 227.448 117.553 227.488 127.734C227.494 128.419 227.5 129.104 227.506 129.81C227.558 138.797 226.703 146.831 224.05 155.421C223.851 156.102 223.653 156.783 223.448 157.485C218.484 173.916 208.298 188.972 193.05 197.421C181.321 203.091 169.368 204.632 156.8 200.859C139.137 193.96 126.992 181.903 118.05 165.421C117.312 163.015 117.312 163.015 117.05 161.421C116.39 161.421 115.73 161.421 115.05 161.421C114.825 162.116 114.599 162.811 114.367 163.526C112.753 167.073 110.515 169.814 107.988 172.734C107.493 173.307 106.998 173.88 106.489 174.471C95.0882 187.486 79.9123 198.396 62.1048 199.624C47.2185 199.844 35.2012 195.631 24.3001 185.296C7.9173 168.049 3.41877 144.814 3.96123 121.813C4.9914 94.0832 17.8727 67.7434 37.6399 48.5187C57.4288 31.2956 84.9604 25.7997 106.87 42.5812Z" fill="#FDFEFE"/>
<path d="M93.3755 236.298C105.071 241.934 116.895 243.515 129.722 240.581C136.246 238.171 142.236 234.723 148.316 231.382C161.639 224.198 174.207 221.259 189.062 225.382C201.864 229.834 210.014 237.419 216.05 249.421C222.598 264.768 223.006 281.774 217.284 297.531C212.305 309.722 205.012 319.331 193.156 325.581C180.819 330.502 163.357 328.072 151.421 323.39C145.698 320.739 140.822 317.191 135.886 313.288C129.582 309.138 123.653 307.88 116.175 307.983C115.382 307.993 114.589 308.003 113.772 308.013C103.508 308.323 97.0104 312.259 88.8016 318.126C75.5837 327.53 60.8994 328.774 45.0501 327.421C41.2461 326.645 38.3274 325.481 35.0501 323.421C34.2767 322.935 33.5032 322.449 32.7064 321.948C22.9707 315.085 17.979 305.416 14.0501 294.421C13.7291 293.56 13.4082 292.699 13.0775 291.812C8.59789 278.06 10.2021 262.036 15.7962 248.866C21.7468 237.262 32.005 228.718 44.3353 224.671C62.3173 220.104 77.5965 228.637 93.3755 236.298Z" fill="#720210"/>
<path d="M189.362 56.2959C207.669 68.0183 217.448 87.6645 222.05 108.421C222.226 109.187 222.402 109.954 222.583 110.743C226.577 133.63 222.456 158.335 209.05 177.421C201.613 187.099 191.268 196.029 178.729 197.737C176.244 197.894 173.79 197.94 171.3 197.921C170.42 197.915 169.541 197.909 168.634 197.904C154.972 197.53 143.181 190.417 133.839 180.632C129.739 175.565 126.414 169.987 123.05 164.421C122.533 163.64 122.016 162.859 121.484 162.054C119.925 159.492 118.917 157.357 119.347 154.327C120.103 151.941 121.037 149.709 122.05 147.421C125.525 138.585 127.875 129.643 130.05 120.421C130.71 120.421 131.37 120.421 132.05 120.421C132.197 121.529 132.197 121.529 132.347 122.659C134.263 135.658 138.014 147.425 148.253 156.339C155.306 161.333 163.318 164.613 172.05 163.421C179.118 162.04 184.362 158.896 189.05 153.421C196.507 141.629 198.163 127.66 195.362 114.089C194.437 111.393 193.363 108.949 192.05 106.421C191.626 105.562 191.202 104.704 190.765 103.819C186.042 95.1099 179.261 88.3495 169.792 85.0459C162.182 83.3113 154.49 83.1739 147.683 87.3037C147.144 87.6724 146.605 88.041 146.05 88.4209C145.184 88.9571 144.317 89.4934 143.425 90.0459C138.417 95.0542 134.851 101.577 133.05 108.421C132.72 108.421 132.39 108.421 132.05 108.421C131.975 107.68 131.9 106.94 131.822 106.177C131.471 102.778 131.104 99.3807 130.737 95.9834C130.62 94.8187 130.502 93.654 130.38 92.4541C129.712 86.3693 128.706 81.0043 126.605 75.2629C125.81 72.6257 126.019 70.9582 127.05 68.4209C141.788 46.1175 167.669 43.9754 189.362 56.2959Z" fill="#FDFDFD"/>
<path d="M106.87 42.5812C113.86 48.5901 118.931 55.1829 123.05 63.421C126.09 62.0785 127.966 60.6356 130.175 58.171C138.253 49.9041 149.42 44.379 161.018 44.0499C178.826 44.0167 191.369 50.0742 204.171 62.4757C212.73 71.5851 219.026 82.6215 223.05 94.421C223.443 95.5451 223.836 96.6691 224.242 97.8273C227.265 107.638 227.448 117.553 227.488 127.734C227.494 128.419 227.5 129.104 227.506 129.81C227.558 138.797 226.703 146.831 224.05 155.421C223.851 156.102 223.653 156.783 223.448 157.485C218.484 173.916 208.298 188.972 193.05 197.421C181.321 203.091 169.368 204.632 156.8 200.859C139.137 193.96 126.992 181.903 118.05 165.421C117.312 163.015 117.312 163.015 117.05 161.421C116.39 161.421 115.73 161.421 115.05 161.421C114.825 162.116 114.599 162.811 114.367 163.526C112.753 167.073 110.515 169.814 107.988 172.734C107.493 173.307 106.998 173.88 106.489 174.471C95.0882 187.486 79.9123 198.396 62.1048 199.624C47.2185 199.844 35.2012 195.631 24.3001 185.296C7.9173 168.049 3.41877 144.814 3.96123 121.813C4.9914 94.0832 17.8727 67.7434 37.6399 48.5187C57.4288 31.2956 84.9604 25.7997 106.87 42.5812ZM32.8626 59.671C15.5111 80.1387 6.40143 107.692 8.05009 134.421C9.64992 153.394 15.4396 171.137 29.6204 184.484C41.1195 193.653 52.8025 195.666 67.0501 194.421C71.3576 193.6 75.0844 192.276 79.0501 190.421C80.4887 189.762 80.4887 189.762 81.9563 189.089C102.6 178.36 115 157.133 122.8 135.984C123.25 134.472 123.662 132.95 124.05 131.421C124.327 130.334 124.604 129.248 124.89 128.128C130.051 104.795 128.224 80.4681 115.8 59.7335C108.904 49.4487 99.501 40.5294 87.0384 37.7491C64.8953 35.3177 47.9087 43.6551 32.8626 59.671ZM129.8 64.421C126.64 68.1137 126.64 68.1137 125.8 72.796C126.419 74.5904 126.419 74.5904 127.05 76.421C130.134 86.9809 131.133 97.5032 132.05 108.421C133.782 105.822 135.085 103.353 136.425 100.546C140.459 92.4905 145.368 87.315 154.05 84.421C165.012 83.4832 173.233 84.9924 181.8 92.046C186.275 96.3158 189.32 100.895 192.05 106.421C192.671 107.616 192.671 107.616 193.304 108.835C197.89 119.157 197.66 132.399 194.425 143.109C191.286 150.996 186.596 157.334 179.05 161.421C170.603 164.646 163.928 163.935 155.722 160.671C145.828 156.042 139.686 148.143 135.738 138.046C133.819 132.289 132.846 126.424 132.05 120.421C131.39 120.421 130.73 120.421 130.05 120.421C129.817 121.38 129.817 121.38 129.579 122.358C124.428 143.32 124.428 143.32 121.05 149.984C119.273 153.504 119.273 153.504 119.363 157.421C119.919 158.411 120.476 159.401 121.05 160.421C121.448 161.231 121.847 162.04 122.257 162.874C130.692 179.511 143.27 191.494 161.05 197.421C175.296 198.804 186.732 197.423 198.363 188.609C212.792 176.182 220.281 160.132 223.05 141.421C224.769 112.468 220.136 88.488 201.238 65.6085C193.161 56.8851 180.022 49.1182 167.984 48.1827C152.632 47.8568 140.572 53.4492 129.8 64.421Z" fill="#90FDDA"/>
<path d="M88.1789 76.6398C95.8511 81.8807 99.8076 88.3212 101.988 97.296C104.467 110.954 101.276 125.91 93.636 137.581C90.7506 141.539 87.6484 145.086 84.05 148.421C83.5499 148.915 83.0497 149.408 82.5344 149.917C74.6259 157.327 64.9336 159.757 54.3391 159.628C47.1084 159.173 42.2341 156.482 36.9446 151.589C27.7487 141.066 27.262 129.704 28.05 116.421C30.0326 101.518 38.4093 89.2983 50.05 80.046C61.7175 71.8088 75.4098 69.3298 88.1789 76.6398Z" fill="#90FDDA"/>
<path d="M198.534 233.984C201.598 236.22 204.52 238.584 207.05 241.421C207.05 242.081 207.05 242.741 207.05 243.421C191.016 252.714 175.052 259.849 157.05 264.421C156.301 264.62 155.552 264.819 154.78 265.024C141.726 268.368 128.761 268.816 115.363 268.859C114.548 268.865 113.734 268.871 112.895 268.877C81.5974 269.03 52.8088 260.566 26.05 244.421C26.05 240.421 26.05 240.421 27.2297 238.894C39.1575 228.972 50.9485 227.067 66.05 228.421C73.0622 230.033 78.9096 233.267 85.05 236.921C95.5054 243.118 103.551 245.86 115.675 245.984C116.629 245.998 117.582 246.013 118.565 246.028C130.89 245.851 140.706 240.244 151.243 234.4C166.95 225.897 182.796 224.085 198.534 233.984Z" fill="#FDFCFC"/>
<path d="M195.738 305.733C196.701 306.346 196.701 306.346 197.683 306.971C199.437 308.159 199.437 308.159 202.05 310.421C202.05 314.421 202.05 314.421 200.441 316.054C199.734 316.546 199.028 317.038 198.3 317.546C197.604 318.043 196.908 318.541 196.191 319.054C186.529 325.224 174.415 324.489 163.505 322.293C155.753 320.544 149.589 318.031 143.05 313.421C141.097 312.163 139.138 310.913 137.175 309.671C136.291 309.098 135.406 308.526 134.495 307.936C128.594 304.279 124.306 304.055 117.425 304.046C116.004 304.009 116.004 304.009 114.554 303.972C103.752 303.927 96.0731 308.13 87.2375 313.921C73.5735 322.476 59.7201 326.052 43.7024 322.725C37.6996 320.76 33.5443 317.815 29.05 313.421C30.5479 309.212 33.5352 307.423 37.175 305.171C37.7925 304.783 38.41 304.395 39.0461 303.996C50.4617 296.967 62.2973 291.545 75.05 287.421C75.839 287.147 76.6279 286.874 77.4407 286.593C117.957 273.276 160.492 282.894 195.738 305.733Z" fill="#FDFCFC"/>
<path d="M106.87 42.5812C113.86 48.5901 118.931 55.1829 123.05 63.421C126.09 62.0785 127.966 60.6356 130.175 58.171C138.253 49.9041 149.42 44.379 161.018 44.0499C178.826 44.0167 191.369 50.0742 204.171 62.4757C212.73 71.5851 219.026 82.6215 223.05 94.421C223.443 95.5451 223.836 96.6691 224.242 97.8273C227.265 107.638 227.448 117.553 227.488 127.734C227.494 128.419 227.5 129.104 227.506 129.81C227.558 138.797 226.703 146.831 224.05 155.421C223.851 156.102 223.653 156.783 223.448 157.485C218.484 173.916 208.298 188.972 193.05 197.421C181.321 203.091 169.368 204.632 156.8 200.859C139.137 193.96 126.992 181.903 118.05 165.421C117.312 163.015 117.312 163.015 117.05 161.421C116.39 161.421 115.73 161.421 115.05 161.421C114.825 162.116 114.599 162.811 114.367 163.526C112.753 167.073 110.515 169.814 107.988 172.734C107.493 173.307 106.998 173.88 106.489 174.471C95.0882 187.486 79.9123 198.396 62.1048 199.624C47.2185 199.844 35.2012 195.631 24.3001 185.296C7.9173 168.049 3.41877 144.814 3.96123 121.813C4.9914 94.0832 17.8727 67.7434 37.6399 48.5187C57.4288 31.2956 84.9604 25.7997 106.87 42.5812ZM32.8626 59.671C15.5111 80.1387 6.40143 107.692 8.05009 134.421C9.64992 153.394 15.4396 171.137 29.6204 184.484C41.1195 193.653 52.8025 195.666 67.0501 194.421C71.3576 193.6 75.0844 192.276 79.0501 190.421C80.4887 189.762 80.4887 189.762 81.9563 189.089C102.6 178.36 115 157.133 122.8 135.984C123.25 134.472 123.662 132.95 124.05 131.421C124.327 130.334 124.604 129.248 124.89 128.128C130.051 104.795 128.224 80.4681 115.8 59.7335C108.904 49.4487 99.501 40.5294 87.0384 37.7491C64.8953 35.3177 47.9087 43.6551 32.8626 59.671ZM129.8 64.421C126.64 68.1137 126.64 68.1137 125.8 72.796C126.419 74.5904 126.419 74.5904 127.05 76.421C129.832 85.3659 130.485 93.6485 130.363 102.984C130.366 104.22 130.369 105.457 130.372 106.732C130.329 114.179 129.696 121.159 128.05 128.421C127.899 129.108 127.748 129.794 127.592 130.501C126.057 137.147 124.226 143.374 121.175 149.484C119.336 153.274 119.336 153.274 119.363 157.421C119.919 158.411 120.476 159.401 121.05 160.421C121.448 161.231 121.847 162.04 122.257 162.874C130.692 179.511 143.27 191.494 161.05 197.421C175.296 198.804 186.732 197.423 198.363 188.609C212.792 176.182 220.281 160.132 223.05 141.421C224.769 112.468 220.136 88.488 201.238 65.6085C193.161 56.8851 180.022 49.1182 167.984 48.1827C152.632 47.8568 140.572 53.4492 129.8 64.421Z" fill="#1A1A1A"/>
<path d="M93.3755 236.298C105.071 241.934 116.895 243.515 129.722 240.581C136.246 238.171 142.236 234.723 148.316 231.382C161.639 224.198 174.207 221.259 189.062 225.382C201.864 229.834 210.014 237.419 216.05 249.421C222.598 264.768 223.006 281.774 217.284 297.531C212.305 309.722 205.012 319.331 193.156 325.581C180.819 330.502 163.357 328.072 151.421 323.39C145.698 320.739 140.822 317.191 135.886 313.288C129.582 309.138 123.653 307.88 116.175 307.983C115.382 307.993 114.589 308.003 113.772 308.013C103.508 308.323 97.0104 312.259 88.8016 318.126C75.5837 327.53 60.8994 328.774 45.0501 327.421C41.2461 326.645 38.3274 325.481 35.0501 323.421C34.2767 322.935 33.5032 322.449 32.7064 321.948C22.9707 315.085 17.979 305.416 14.0501 294.421C13.7291 293.56 13.4082 292.699 13.0775 291.812C8.59789 278.06 10.2021 262.036 15.7962 248.866C21.7468 237.262 32.005 228.718 44.3353 224.671C62.3173 220.104 77.5965 228.637 93.3755 236.298ZM147.488 236.421C145.04 237.721 142.592 239.02 140.141 240.315C138.489 241.189 136.841 242.073 135.195 242.96C124.401 247.855 107.985 247.411 96.9876 243.421C91.8587 241.049 87.0065 238.15 82.1246 235.312C69.7177 228.133 57.0142 226.156 42.8548 229.081C35.7969 231.637 26.6107 237.439 23.0828 244.303C22.8116 244.997 22.5405 245.69 22.261 246.405C21.9594 247.176 21.6578 247.947 21.347 248.741C20.8907 249.944 20.8907 249.944 20.4251 251.171C20.1132 251.957 19.8012 252.744 19.4798 253.554C13.5441 268.956 15.2428 285.266 21.2181 300.374C22.378 302.822 23.6316 305.115 25.0501 307.421C25.491 308.138 25.9318 308.854 26.386 309.593C31.5025 317.112 38.2165 321.399 47.0501 323.421C64.0346 325.248 76.6523 320.789 90.8973 311.75C102.937 304.136 113.859 302.713 128.05 304.421C132.357 305.766 135.506 307.666 139.05 310.421C153.586 321.049 168.347 325.036 186.406 323.179C193.043 321.88 199.617 317.499 204.05 312.421C206.241 308.856 208.135 305.14 210.05 301.421C210.648 300.299 210.648 300.299 211.257 299.155C218.054 285.409 217.014 269.783 213.05 255.421C211.907 252.304 210.548 249.38 209.05 246.421C208.431 244.874 208.431 244.874 207.8 243.296C203.441 236.134 196.769 232.219 189.05 229.421C188.107 229.064 187.163 228.707 186.191 228.339C172.017 224.196 159.741 229.874 147.488 236.421Z" fill="#1D1C1C"/>
<path d="M45.05 48.4209C45.71 48.7509 46.37 49.0809 47.05 49.4209C46.3978 50.2433 45.7455 51.0657 45.0735 51.9131C24.8431 77.6362 17.1811 104.39 20.4524 137.081C22.4683 152.207 30.6418 167.578 42.4875 177.233C53.4127 185.255 64.6775 186.922 78.05 185.421C81.7679 184.505 85.1746 183.033 88.6438 181.417C89.4378 181.088 90.2319 180.76 91.05 180.421C91.71 180.751 92.37 181.081 93.05 181.421C79.3418 191.945 66.1533 195.856 49.05 194.421C45.3311 193.598 42.3321 192.332 39.05 190.421C38.2856 189.985 37.5212 189.549 36.7336 189.101C21.5482 179.696 14.0784 165.359 10.05 148.421C4.55425 121.228 10.3927 93.6827 25.0266 70.2568C30.7388 62.1778 37.1875 54.4658 45.05 48.4209Z" fill="#CACACA"/>
<path d="M200.05 65.4209C208.916 73.7716 215.229 84.9167 219.05 96.4209C219.638 98.1747 219.638 98.1747 220.238 99.9639C227.104 122.935 224.552 148.86 213.71 170.038C206.72 182.47 196.785 191.962 183.248 196.825C179.287 197.899 175.383 197.952 171.3 197.921C170.42 197.915 169.541 197.909 168.635 197.904C156.614 197.575 145.734 192.301 137.32 183.64C136.174 182.279 135.101 180.857 134.05 179.421C138.415 181.1 142.501 183.147 146.648 185.3C154.853 189.129 166.519 188.619 175.206 186.737C177.648 185.806 179.803 184.751 182.05 183.421C183.195 182.767 183.195 182.767 184.363 182.101C199.949 172.464 208.276 156.595 212.612 139.161C217.721 116.066 213.316 90.3619 200.968 70.2256C200.05 68.4209 200.05 68.4209 200.05 65.4209Z" fill="#CACACA"/>
<path d="M71.0499 93.4209C75.4734 93.9264 77.8307 95.3711 81.0499 98.4209C84.8629 103.868 85.6811 108.817 85.0499 115.421C83.2616 124.105 78.4654 131.477 71.0499 136.421C65.7435 138.886 60.8202 139.243 55.0499 138.421C50.2747 136.182 48.0232 132.143 46.0499 127.421C45.0193 118.897 45.3116 111.677 50.0499 104.421C50.786 104.456 51.522 104.491 52.2804 104.526C59.6967 104.865 59.6967 104.865 66.0499 101.421C66.6068 100.967 67.1637 100.513 67.7374 100.046C69.3932 97.9959 70.181 95.894 71.0499 93.4209Z" fill="#101010"/>
<path d="M163.05 102.421C163.442 103.658 163.834 104.896 164.238 106.171C165.756 110.162 167.242 112.257 171.05 114.421C174.119 115.045 176.924 115.421 180.05 115.421C182.508 121.412 183.253 126.906 181.14 133.081C178.743 138.314 176.556 142.135 171.05 144.421C166.066 145.185 162.294 145.031 157.738 142.796C151.632 137.4 147.804 132.115 146.73 124.003C146.442 117.81 147.561 112.604 151.05 107.421C154.577 103.844 157.86 101.635 163.05 102.421Z" fill="#101010"/>
<path d="M91.05 7.42078C95.9876 11.6126 100.253 16.1773 104.05 21.4208C102.921 24.6945 102.115 25.3865 98.9641 27.0575C98.0025 27.5074 97.0408 27.9573 96.05 28.4208C95.4932 27.6241 94.9363 26.8275 94.3625 26.0067C88.2443 17.5115 81.8225 9.59338 71.05 7.42078C52.4538 5.702 38.0773 14.3537 24.1711 25.7606C17.7875 30.9044 17.7875 30.9044 13.05 37.4208C12.39 37.0908 11.73 36.7608 11.05 36.4208C12.6989 34.5297 14.3511 32.642 16.011 30.7606C17.3087 29.2714 18.5872 27.7651 19.8391 26.2372C37.642 4.98734 65.5705 -9.28516 91.05 7.42078Z" fill="#171717"/>
<path d="M190.05 7.421C200.809 14.0334 209.343 23.3894 218.05 32.421C217.555 33.411 217.555 33.411 217.05 34.421C216.163 33.4723 215.276 32.5235 214.363 31.546C206.694 23.9545 198.368 17.7716 188.738 12.921C188.092 12.595 187.447 12.2689 186.783 11.933C177.577 7.50384 167.956 6.06682 157.863 8.046C148.421 12.6616 141.028 19.0516 136.05 28.421C132.585 26.441 132.585 26.441 129.05 24.421C129.05 18.6199 132.108 16.4079 136.05 12.421C152.016 -2.76129 171.373 -3.53287 190.05 7.421Z" fill="#171717"/>
<path d="M66.0499 81.4209C69.4303 82.6086 69.9821 83.3191 72.0499 86.4209C72.5456 91.675 71.8616 94.961 69.0499 99.4209C65.8731 102.995 63.7989 105.112 58.9289 105.659C55.2276 105.778 52.7649 105.822 49.4874 103.983C47.3271 100.132 47.3077 96.7321 48.0499 92.4209C52.0831 84.504 57.3157 80.9691 66.0499 81.4209Z" fill="#FBFEFD"/>
<path d="M174.05 92.4209C178.367 94.7062 181.253 96.8286 183.05 101.421C183.816 106.574 183.862 110.166 180.988 114.608C178.05 116.421 178.05 116.421 174.613 116.546C169.867 115.047 166.559 112.922 163.91 108.53C162.411 104.853 162.379 101.31 163.05 97.4209C166.171 92.9228 168.606 91.421 174.05 92.4209Z" fill="#FAFCFB"/>
<path d="M231.05 159.421C231.38 159.421 231.71 159.421 232.05 159.421C232.562 173.054 229.284 184.944 219.863 195.358C212.305 202.107 204.334 205.175 194.253 204.632C193.526 204.562 192.799 204.493 192.05 204.421C194.251 203.3 196.459 202.238 198.714 201.229C214.68 193.836 222.472 182.81 228.488 166.671C229.361 164.26 230.211 161.844 231.05 159.421Z" fill="#111111"/>
<path d="M0.0500353 159.421C1.81925 162.075 2.89558 164.493 4.00292 167.46C9.92623 183.271 17.4881 193.593 32.7453 201.038C35.5765 202.223 38.0293 202.976 41.05 203.421C41.05 203.751 41.05 204.081 41.05 204.421C30.1262 205.372 22.3563 203.418 13.6985 196.558C5.55274 188.946 1.1732 179.465 0.0500353 168.421C-0.0219058 165.419 -0.0112383 162.423 0.0500353 159.421Z" fill="#101010"/>
<path d="M123.46 325.065C127.756 327.314 131.419 330.229 135.05 333.421C131.339 334.658 129.848 333.647 126.339 332.257C114.737 328.02 102.564 328.168 91.05 332.421C89.8538 332.813 88.6575 333.205 87.425 333.608C86.6413 333.877 85.8575 334.145 85.05 334.421C94.1904 321.742 109.314 319.311 123.46 325.065Z" fill="#222222"/>
<path d="M26.05 19.4209C26.71 19.7509 27.37 20.0809 28.05 20.4209C25.8629 24.9318 22.7486 27.5439 18.9915 30.7061C16.6978 32.7321 14.8479 34.9488 13.05 37.4209C12.39 37.0909 11.73 36.7609 11.05 36.4209C16.0169 30.7245 21.0217 25.0631 26.05 19.4209Z" fill="#3A3A3A"/>
<path d="M45.05 48.4209C45.71 48.7509 46.37 49.0809 47.05 49.4209C44.8023 52.8517 42.5642 54.3778 39.05 56.4209C36.9947 58.0302 35.0297 59.7175 33.05 61.4209C34.6001 57.5369 37.0548 55.3911 40.175 52.6709C41.0851 51.8717 41.9952 51.0725 42.9329 50.249C43.9809 49.3441 43.9809 49.3441 45.05 48.4209Z" fill="#C0C0C0"/>
<path d="M32.05 14.4209C32.71 14.7509 33.37 15.0809 34.05 15.4209C32.3 18.3584 32.3 18.3584 30.05 21.4209C28.73 21.7509 27.41 22.0809 26.05 22.4209C28.03 19.7809 30.01 17.1409 32.05 14.4209Z" fill="#202020"/>
<path d="M49.05 45.4209C50.04 45.7509 51.03 46.0809 52.05 46.4209C49.08 48.8959 49.08 48.8959 46.05 51.4209C47.925 46.5459 47.925 46.5459 49.05 45.4209Z" fill="#E9E9E9"/>
</svg>
