<svg width="296" height="380" viewBox="0 0 296 380" fill="none" xmlns="http://www.w3.org/2000/svg">
<path d="M53 197C53 197.66 53 198.32 53 199C52.0564 199.026 51.1128 199.051 50.1406 199.078C42.2986 199.424 35.7131 200.346 28.293 203.16C26 204 26 204 24 204C46.8756 233.857 80.0095 250.065 116.863 255.82C163.752 261.979 212.414 254.604 250.832 225.883C258.198 220.093 267.206 212.798 271 204C262.263 200.602 253.221 199.402 244 198C247.304 194.696 251.547 194.817 256.063 194.687C264.067 194.795 271.983 196.659 278 202.187C283.549 208.564 285.498 214.741 285.141 223.129C285.094 223.746 285.048 224.364 285 225C284.34 225 283.68 225 283 225C282.807 224.336 282.613 223.672 282.414 222.988C280.473 216.402 280.473 216.402 278 210C277.34 210 276.68 210 276 210C275.869 211.831 275.869 211.831 275.734 213.699C275.033 219.969 273.144 225.815 271.25 231.812C270.747 233.461 270.747 233.461 270.234 235.142C268.194 241.701 265.842 248.028 263.138 254.34C262.209 256.511 261.324 258.686 260.48 260.891C245.782 299.081 220.967 337.1 183 355C181.677 355.628 181.677 355.628 180.328 356.269C160.322 364.998 136.754 364.306 116.592 356.692C80.0493 342.19 56.2625 307.567 40.8674 272.879C40.0015 271.003 39.0539 269.19 38.0899 267.363C35.1883 261.612 33.1885 255.507 31.0625 249.437C30.6181 248.178 30.1734 246.918 29.7285 245.659C28.4786 242.108 27.2372 238.555 26 235C25.6982 234.136 25.3964 233.272 25.0855 232.382C22.6319 225.328 20.4175 218.345 19 211C16.6093 213.932 15.1589 216.721 13.8125 220.25C13.4683 221.142 13.1242 222.034 12.7695 222.953C12.5156 223.629 12.2617 224.304 12 225C11.67 225 11.34 225 11 225C10.3051 216.877 11.1386 210.709 16 204C26.1186 193.773 39.7118 192.831 53 197Z" fill="#70010E"/>
<path d="M26 216C30.701 219.314 34.9953 222.872 39.1875 226.812C45.0783 232.238 51.2969 236.638 58 241C58.8546 241.567 59.7093 242.134 60.5898 242.719C67.037 246.815 73.7993 249.504 81 252C82.4753 252.524 82.4753 252.524 83.9805 253.059C114.599 263.238 149.258 264.606 181 260C181.725 259.898 182.45 259.796 183.196 259.691C193.825 258.153 203.878 255.568 214 252C215.245 251.569 216.49 251.139 217.773 250.695C235.636 244.067 249.982 232.763 263.809 219.848C265.817 218.155 267.604 217.043 270 216C267.077 235.208 239.588 257.453 225 268.438C198.947 287.552 166.031 297.645 133.698 293.585C121.427 291.68 109.255 289.393 98 284C97.3854 283.718 96.7709 283.436 96.1377 283.145C66.8799 269.685 42.5157 246.608 26 219C26 218.01 26 217.02 26 216Z" fill="#FCFBFB"/>
<path d="M210 328C205.92 337.246 195.333 342.184 187 347C186.323 347.402 185.646 347.804 184.949 348.219C166.638 358.288 143.819 359.891 123.926 354.254C108.644 349.517 95.765 341.936 85 330C86.158 326.526 86.603 326.367 89.6914 324.73C90.4632 324.319 91.2349 323.908 92.03 323.485C92.8657 323.057 93.7015 322.628 94.5625 322.187C95.4208 321.744 96.279 321.3 97.1633 320.843C104.914 316.913 112.727 313.646 121 311C121.629 310.791 122.258 310.582 122.906 310.367C154.127 300.259 183.042 312.341 210 328Z" fill="#FC2B65"/>
<path d="M53 197C53 197.66 53 198.32 53 199C52.0564 199.026 51.1128 199.051 50.1406 199.078C42.2986 199.424 35.7131 200.346 28.293 203.16C26 204 26 204 24 204C46.8756 233.857 80.0095 250.065 116.863 255.82C163.752 261.979 212.414 254.604 250.832 225.883C258.198 220.093 267.206 212.798 271 204C262.263 200.602 253.221 199.402 244 198C247.304 194.696 251.547 194.817 256.063 194.687C264.067 194.795 271.983 196.659 278 202.187C283.549 208.564 285.498 214.741 285.141 223.129C285.094 223.746 285.048 224.364 285 225C284.34 225 283.68 225 283 225C282.807 224.336 282.613 223.672 282.414 222.988C280.473 216.402 280.473 216.402 278 210C277.34 210 276.68 210 276 210C275.869 211.831 275.869 211.831 275.734 213.699C275.033 219.969 273.144 225.815 271.25 231.812C270.747 233.461 270.747 233.461 270.234 235.142C268.194 241.701 265.842 248.028 263.138 254.34C262.209 256.511 261.324 258.686 260.48 260.891C245.782 299.081 220.967 337.1 183 355C181.677 355.628 181.677 355.628 180.328 356.269C160.322 364.998 136.754 364.306 116.592 356.692C80.0493 342.19 56.2625 307.567 40.8674 272.879C40.0015 271.003 39.0539 269.19 38.0899 267.363C35.1883 261.612 33.1885 255.507 31.0625 249.437C30.6181 248.178 30.1734 246.918 29.7285 245.659C28.4786 242.108 27.2372 238.555 26 235C25.6982 234.136 25.3964 233.272 25.0855 232.382C22.6319 225.328 20.4175 218.345 19 211C16.6093 213.932 15.1589 216.721 13.8125 220.25C13.4683 221.142 13.1242 222.034 12.7695 222.953C12.5156 223.629 12.2617 224.304 12 225C11.67 225 11.34 225 11 225C10.3051 216.877 11.1386 210.709 16 204C26.1186 193.773 39.7118 192.831 53 197ZM26 216C34.4207 252.287 51.0012 289.443 75 318C75.4813 318.577 75.9626 319.154 76.4585 319.748C92.9952 339.5 110.946 353.164 137 357C163.251 359.296 185.25 350.801 205.75 334.562C210.345 330.694 214.253 326.68 218 322C218.797 321.051 219.593 320.102 220.414 319.125C244.143 290.427 261.761 252.326 270 216C265.934 218.588 262.492 221.274 259 224.625C252.747 230.386 246.065 235.283 239 240C238.069 240.628 237.139 241.255 236.18 241.902C196.019 267.132 140.588 266.094 95.9102 256.418C72.1039 250.928 53.0923 239.059 35 223C33.3966 221.582 31.7926 220.166 30.1875 218.75C29.5829 218.209 28.9784 217.667 28.3555 217.109C27.163 215.894 27.163 215.894 26 216Z" fill="#181717"/>
<path d="M119 366C123.558 367.018 127.933 368.649 132.336 370.184C147.128 375.224 159.462 373.336 173.152 366.672C174.067 366.339 174.067 366.339 175 366C175.66 366.33 176.32 366.66 177 367C166.957 376.096 159.012 379.758 145.145 379.375C135.08 378.723 126.195 373.916 119 367C119 366.67 119 366.34 119 366Z" fill="#1C1C1C"/>
<path d="M289 181C291.934 182.797 293.472 183.944 295 187C295.462 192.377 295.068 196.959 293 202C292.67 202 292.34 202 292 202C291.963 201.264 291.925 200.528 291.887 199.77C291.788 198.306 291.788 198.306 291.688 196.813C291.629 195.85 291.571 194.887 291.512 193.895C290.9 190.434 290.39 188.614 288 186C285.112 185.24 282.287 185.21 279.312 185.188C278.117 185.15 278.117 185.15 276.896 185.111C274.932 185.053 272.966 185.023 271 185C275.682 180.318 282.732 180.123 289 181Z" fill="#1D1D1D"/>
<path d="M18.3711 181.672C20.2705 182.389 22.139 183.188 24 184C24 184.33 24 184.66 24 185C22.3197 185.038 22.3197 185.038 20.6055 185.078C19.1328 185.134 17.6601 185.192 16.1875 185.25C15.0805 185.271 15.0805 185.271 13.9512 185.293C10.7452 185.438 8.55329 185.543 6.03125 187.625C4.68817 190.718 4.48064 193.387 4.3125 196.75C4.24676 197.92 4.18102 199.091 4.11328 200.297C4.0759 201.189 4.03852 202.081 4 203C0.826887 199.827 0.815212 196.425 0.6875 192.062C0.714619 188.385 0.893201 187.174 2.875 183.937C7.2947 179.908 12.7627 180.083 18.3711 181.672Z" fill="#191919"/>
<path d="M248 45.1369C260.103 53.8948 268.682 64.1738 276 77.1369C276.473 77.9696 276.946 78.8023 277.434 79.6603C288.116 99.6939 291.838 125.106 286.5 147.262C281.033 164.126 272.984 177.58 257 186.137C256.205 186.573 255.409 187.008 254.59 187.457C244.135 192.196 229.387 191.884 218.5 188.637C195.599 179.301 179.43 160.525 170 138.137C168.044 133.216 166.438 128.236 165 123.137C164.754 122.276 164.508 121.415 164.254 120.527C159.989 102.056 162.008 78.8658 171 62.1369C177.949 51.1361 185.211 43.7028 197 38.1369C197.685 37.794 198.369 37.4511 199.074 37.0978C214.937 30.4287 234.378 36.2468 248 45.1369Z" fill="#FDFEFE"/>
<path d="M83.8123 34.6367C84.5885 34.6303 85.3647 34.6238 86.1644 34.6172C97.8408 34.8758 109.641 40.1989 118.129 48.1406C131.121 62.0005 136.608 79.714 136.375 98.3867C136.365 99.5704 136.355 100.754 136.344 101.974C135.864 129.172 125.443 153.175 106 172.137C105.3 172.834 104.6 173.531 103.879 174.25C91.54 185.819 77.2875 190.772 60.6573 190.61C53.8396 190.383 48.0455 189.471 41.9999 186.137C41.229 185.713 40.4581 185.289 39.6639 184.852C24.4396 175.525 16.3805 161.008 11.9999 144.137C7.55913 116.333 14.0755 89.9243 29.6483 66.6758C42.7556 48.9649 61.0143 34.8148 83.8123 34.6367Z" fill="#FDFEFE"/>
<path d="M105.062 95.3243C112.731 100.056 117.686 107.497 120 116.137C121.83 132.383 118.132 146.592 108.117 159.578C103.946 164.543 99.7491 168.151 94 171.137C92.9275 171.735 91.855 172.333 90.75 172.949C84.1867 175.028 77.7794 174.957 71.1875 173.012C64.2241 168.916 59.9455 164.731 57 157.137C56.6416 156.222 56.2832 155.306 55.914 154.363C52.5003 142.313 55.1024 128.48 60.625 117.512C69.5776 102.193 86.1807 87.9883 105.062 95.3243Z" fill="#90FDDA"/>
<path d="M216.25 95.5742C228.315 101.19 237.142 113.027 242 125.137C245.259 136.016 246.387 149.446 241.5 159.949C237.747 166.193 233.356 170.707 226.625 173.574C217.941 174.922 210.755 174.64 203 170.137C199.401 167.379 196.184 164.36 193 161.137C192.422 160.581 191.845 160.026 191.25 159.453C181.283 149.045 178.446 134.723 178.695 120.855C179.497 111.073 183.522 103.523 191 97.1367C198.593 92.5246 207.943 92.7088 216.25 95.5742Z" fill="#90FDDA"/>
<path d="M248 45.1369C260.103 53.8948 268.682 64.1738 276 77.1369C276.473 77.9696 276.946 78.8023 277.434 79.6603C288.116 99.6939 291.838 125.106 286.5 147.262C281.033 164.126 272.984 177.58 257 186.137C256.205 186.573 255.409 187.008 254.59 187.457C244.135 192.196 229.387 191.884 218.5 188.637C195.599 179.301 179.43 160.525 170 138.137C168.044 133.216 166.438 128.236 165 123.137C164.754 122.276 164.508 121.415 164.254 120.527C159.989 102.056 162.008 78.8658 171 62.1369C177.949 51.1361 185.211 43.7028 197 38.1369C197.685 37.794 198.369 37.4511 199.074 37.0978C214.937 30.4287 234.378 36.2468 248 45.1369ZM182.313 54.6994C168.281 71.1404 166.523 91.3818 168 112.137C170.348 134.498 182.434 156.157 199 171.137C199.754 171.912 199.754 171.912 200.524 172.703C204.318 176.392 208.685 178.641 213.438 180.887C214.058 181.181 214.679 181.475 215.319 181.778C227.344 187.216 239.411 187.771 251.93 183.457C266.022 177.397 274.309 165.92 280 152.137C287.79 128.14 283.996 103.255 272.996 81.0041C268.21 71.7693 262.408 64.3925 255 57.1369C254.295 56.3879 253.59 55.639 252.863 54.8673C242.612 44.6554 227.624 40.1883 213.5 39.8244C200.309 40.0611 191.453 45.2639 182.313 54.6994Z" fill="#191919"/>
<path d="M83.8123 34.6367C84.5885 34.6303 85.3647 34.6238 86.1644 34.6172C97.8408 34.8758 109.641 40.1989 118.129 48.1406C131.121 62.0005 136.608 79.714 136.375 98.3867C136.365 99.5704 136.355 100.754 136.344 101.974C135.864 129.172 125.443 153.175 106 172.137C105.3 172.834 104.6 173.531 103.879 174.25C91.54 185.819 77.2875 190.772 60.6573 190.61C53.8396 190.383 48.0455 189.471 41.9999 186.137C41.229 185.713 40.4581 185.289 39.6639 184.852C24.4396 175.525 16.3805 161.008 11.9999 144.137C7.55913 116.333 14.0755 89.9243 29.6483 66.6758C42.7556 48.9649 61.0143 34.8148 83.8123 34.6367ZM44.9999 56.1367C44.3837 56.6691 43.7675 57.2015 43.1327 57.75C28.1312 71.6799 17.1314 94.6439 15.807 115.118C15.2212 137.889 16.5555 156.645 32.742 174.031C42.2256 182.875 53.0739 186.817 65.9647 186.418C85.0411 184.65 98.5366 174.175 110.672 160.121C128.129 138.089 133.912 111.3 130.711 83.6436C128.216 68.9682 120.436 56.4519 109 47.1367C105.776 45.0941 102.566 43.4851 98.9998 42.1367C98.0704 41.7732 97.141 41.4097 96.1834 41.0352C77.4457 35.7472 58.8867 43.9681 44.9999 56.1367Z" fill="#1A1A1A"/>
<path d="M241 47.1367C247.446 50.1125 251.942 54.2316 257 59.1367C257.768 59.8792 258.537 60.6217 259.328 61.3867C275.677 78.3068 283.681 102.507 284.375 125.699C283.825 143.89 279.059 160.755 266.129 174.062C256.512 183.098 245.433 186.69 232.434 186.449C222.314 185.528 213.604 181.309 205 176.137C207 175.137 207 175.137 208.891 175.695C210.059 176.13 210.059 176.13 211.25 176.574C221.292 179.738 234.001 179.536 243.59 174.879C246.154 173.406 248.579 171.834 251 170.137C251.639 169.695 252.279 169.252 252.938 168.797C264.235 160.097 270.187 144.847 272 131.137C272.275 127.402 272.335 123.693 272.312 119.949C272.308 118.951 272.303 117.953 272.298 116.925C272.091 103.746 269.737 92.1011 264 80.1367C263.558 79.1519 263.116 78.167 262.66 77.1523C257.812 66.7846 251.496 57.5433 242.434 50.4414C241.961 50.0109 241.487 49.5803 241 49.1367C241 48.4767 241 47.8167 241 47.1367Z" fill="#C9C9C9"/>
<path d="M55 48.1367C55.66 48.4667 56.32 48.7967 57 49.1367C56.0512 50.003 55.1025 50.8692 54.125 51.7617C35.9742 70.1321 26.8312 94.0271 26.8125 119.574C26.8002 120.451 26.788 121.329 26.7754 122.232C26.7617 128.424 27.5684 134.12 29 140.137C29.2019 140.996 29.4038 141.855 29.6118 142.741C31.3423 149.755 34.8323 155.298 39 161.137C39.4744 161.81 39.9487 162.483 40.4375 163.176C44.388 168.271 49.432 171.041 55 174.137C55.99 174.797 56.98 175.457 58 176.137C67.5156 179.943 78.3125 178.732 88 176.137C89.9971 175.786 91.996 175.445 94 175.137C87.1432 182.673 75.8003 185.404 66.0273 186.457C53.1151 186.967 42.638 182.553 33 174.137C26.8602 168.458 23.2317 161.792 20 154.137C19.3754 152.702 19.3754 152.702 18.7383 151.238C11.1849 130.195 15.1411 104.779 24.1594 84.8105C31.1643 70.1235 41.6659 57.4871 55 48.1367Z" fill="#CACACA"/>
<path d="M206 113.137C206.392 114.044 206.784 114.952 207.188 115.887C209.151 119.408 210.538 121.091 214 123.137C217.79 123.463 220.394 123.339 224 122.137C228.599 129.454 230.109 135.487 229 144.137C227.256 148.501 224.392 153.185 220 155.137C214.81 156.154 210.855 155.471 206.312 152.762C200.773 148.706 198.008 143.152 195 137.137C194.824 134.724 194.733 132.305 194.688 129.887C194.65 128.582 194.613 127.278 194.574 125.934C195.155 120.752 197.25 117.727 201.062 114.262C203 113.137 203 113.137 206 113.137Z" fill="#101111"/>
<path d="M93.9999 113.137C97.9427 114.451 100.38 115.884 103 119.137C106.07 125.891 105.629 131.844 103.375 138.699C100.425 146.146 96.4342 151.211 89.0116 154.477C84.3001 156.023 81.143 155.708 76.7499 153.512C72.7288 150.039 71.2212 147.495 70.7186 142.141C70.5344 135.502 70.8252 130.032 73.9999 124.137C76.7793 123.094 79.4937 123.03 82.4374 122.887C86.0478 122.513 86.939 122.185 89.9374 119.824C91.63 117.619 92.9555 115.7 93.9999 113.137Z" fill="#0F1010"/>
<path d="M198 0.136743C227.492 -0.507178 249.567 4.23173 271.701 24.9265C279.447 32.3489 286.081 40.1922 292 49.1367C291.505 50.1267 291.505 50.1267 291 51.1367C290.594 50.7044 290.188 50.2721 289.769 49.8267C274.179 33.373 253.864 16.1309 229.933 15.0427C227.579 15.0022 225.229 14.9986 222.875 15.0117C221.623 15.0146 221.623 15.0146 220.346 15.0176C213.863 15.0626 207.446 15.4163 201 16.1367C200.496 14.0335 199.997 11.9291 199.5 9.82424C199.082 8.06661 199.082 8.06661 198.656 6.27346C198 3.13674 198 3.13674 198 0.136743Z" fill="#151515"/>
<path d="M89.4375 0.0117188C90.9447 0.00591797 90.9447 0.00591797 92.4824 0C93.4357 0.00128906 94.3889 0.00257813 95.3711 0.00390625C96.6694 0.00559814 96.6694 0.00559814 97.9939 0.00732422C100 0.136719 100 0.136719 101 1.13672C100.846 6.67486 99.6767 11.883 98 17.1367C97.0661 16.9202 97.0661 16.9202 96.1133 16.6992C73.5162 12.1609 53.3296 15.6958 34 28.1367C24.7413 34.4839 16.706 42.0061 9 50.1367C9 41.3947 20.5054 31.5995 26.4565 25.623C43.9788 8.74938 65.143 -0.0843701 89.4375 0.0117188Z" fill="#151515"/>
<path d="M215 101.137C219.885 103.775 223.999 106.786 225.64 112.281C226.411 116.581 226.447 118.452 224 122.199C220.178 124.667 218.475 124.985 214 124.137C210.4 121.941 207.744 119.366 205.562 115.762C204.751 111.978 204.629 109.026 205 105.137C207.707 100.971 210.182 100.366 215 101.137Z" fill="#FAFCFB"/>
<path d="M89.9999 101.137C92.3749 102.574 92.3749 102.574 93.9999 105.137C94.7109 109.419 94.5166 112.974 92.7499 116.949C92.1724 117.671 91.5949 118.393 90.9999 119.137C90.4636 119.879 89.9274 120.622 89.3749 121.387C85.8327 123.997 82.3517 124.44 77.9999 124.137C75.4374 122.762 75.4374 122.762 73.9999 120.137C73.1611 115.475 73.5345 112.085 75.6249 107.824C79.764 103.14 83.5287 100.011 89.9999 101.137Z" fill="#FBFDFC"/>
<path d="M22 36.1367C22.66 36.4667 23.32 36.7967 24 37.1367C21.3831 39.8114 18.7552 42.4751 16.125 45.1367C15.3786 45.8998 14.6323 46.663 13.8633 47.4492C13.1479 48.1711 12.4324 48.893 11.6953 49.6367C10.7056 50.6422 10.7056 50.6422 9.6958 51.668C8 53.1367 8 53.1367 6 53.1367C7.11441 49.7935 7.97472 49.0765 10.625 46.8867C14.6308 43.4955 18.3422 39.8974 22 36.1367Z" fill="#DCDCDC"/>
<path d="M58 46.1367C58.99 46.4667 59.98 46.7967 61 47.1367C57.37 50.7667 53.74 54.3967 50 58.1367C50 54.1754 51.3488 53.3076 54 50.4492C54.7425 49.641 55.485 48.8327 56.25 48C56.8275 47.3851 57.405 46.7702 58 46.1367Z" fill="#ECECEC"/>
<path d="M115 150.137C115.33 151.127 115.66 152.117 116 153.137C114.35 154.787 112.7 156.437 111 158.137C110.67 157.477 110.34 156.817 110 156.137C111.213 152.903 112.013 152.128 115 150.137Z" fill="#F1F4F3"/>
</svg>
