<svg width="286" height="297" viewBox="0 0 286 297" fill="none" xmlns="http://www.w3.org/2000/svg">
<path d="M242 45.1369C254.103 53.8948 262.682 64.1738 270 77.1369C270.473 77.9696 270.946 78.8023 271.434 79.6603C282.116 99.6939 285.838 125.106 280.5 147.262C275.033 164.126 266.984 177.58 251 186.137C250.205 186.573 249.409 187.008 248.59 187.457C238.135 192.196 223.387 191.884 212.5 188.637C189.599 179.301 173.43 160.525 164 138.137C162.044 133.216 160.438 128.236 159 123.137C158.754 122.276 158.508 121.415 158.254 120.527C153.989 102.056 156.008 78.8658 165 62.1369C171.949 51.1361 179.211 43.7028 191 38.1369C191.685 37.794 192.369 37.4511 193.074 37.0978C208.937 30.4287 228.378 36.2468 242 45.1369Z" fill="#FDFEFE"/>
<path d="M77.8123 34.6367C78.5885 34.6303 79.3647 34.6238 80.1644 34.6172C91.8408 34.8758 103.641 40.1989 112.129 48.1406C125.121 62.0005 130.608 79.714 130.375 98.3867C130.365 99.5704 130.355 100.754 130.344 101.974C129.864 129.172 119.443 153.175 99.9998 172.137C99.2999 172.834 98.5999 173.531 97.8788 174.25C85.54 185.819 71.2875 190.772 54.6573 190.61C47.8396 190.383 42.0455 189.471 35.9999 186.137C35.229 185.713 34.4581 185.289 33.6639 184.852C18.4396 175.525 10.3805 161.008 5.99985 144.137C1.55913 116.333 8.07548 89.9243 23.6483 66.6758C36.7556 48.9649 55.0143 34.8148 77.8123 34.6367Z" fill="#FDFEFE"/>
<path d="M99.0625 95.3243C106.731 100.056 111.686 107.497 114 116.137C115.83 132.383 112.132 146.592 102.117 159.578C97.9456 164.543 93.7491 168.151 88 171.137C86.9275 171.735 85.855 172.333 84.75 172.949C78.1867 175.028 71.7794 174.957 65.1875 173.012C58.2241 168.916 53.9455 164.731 51 157.137C50.6416 156.222 50.2832 155.306 49.914 154.363C46.5003 142.313 49.1024 128.48 54.625 117.512C63.5776 102.193 80.1807 87.9883 99.0625 95.3243Z" fill="#90FDDA"/>
<path d="M210.25 95.5742C222.315 101.19 231.142 113.027 236 125.137C239.259 136.016 240.387 149.446 235.5 159.949C231.747 166.193 227.356 170.707 220.625 173.574C211.941 174.922 204.755 174.64 197 170.137C193.401 167.379 190.184 164.36 187 161.137C186.422 160.581 185.845 160.026 185.25 159.453C175.283 149.045 172.446 134.723 172.695 120.855C173.497 111.073 177.522 103.523 185 97.1367C192.593 92.5246 201.943 92.7088 210.25 95.5742Z" fill="#90FDDA"/>
<path d="M242 45.1369C254.103 53.8948 262.682 64.1738 270 77.1369C270.473 77.9696 270.946 78.8023 271.434 79.6603C282.116 99.6939 285.838 125.106 280.5 147.262C275.033 164.126 266.984 177.58 251 186.137C250.205 186.573 249.409 187.008 248.59 187.457C238.135 192.196 223.387 191.884 212.5 188.637C189.599 179.301 173.43 160.525 164 138.137C162.044 133.216 160.438 128.236 159 123.137C158.754 122.276 158.508 121.415 158.254 120.527C153.989 102.056 156.008 78.8658 165 62.1369C171.949 51.1361 179.211 43.7028 191 38.1369C191.685 37.794 192.369 37.4511 193.074 37.0978C208.937 30.4287 228.378 36.2468 242 45.1369ZM176.313 54.6994C162.281 71.1404 160.523 91.3818 162 112.137C164.348 134.498 176.434 156.157 193 171.137C193.754 171.912 193.754 171.912 194.524 172.703C198.318 176.392 202.685 178.641 207.438 180.887C208.058 181.181 208.679 181.475 209.319 181.778C221.344 187.216 233.411 187.771 245.93 183.457C260.022 177.397 268.309 165.92 274 152.137C281.79 128.14 277.996 103.255 266.996 81.0041C262.21 71.7693 256.408 64.3925 249 57.1369C248.295 56.3879 247.59 55.639 246.863 54.8673C236.612 44.6554 221.624 40.1883 207.5 39.8244C194.309 40.0611 185.453 45.2639 176.313 54.6994Z" fill="#191919"/>
<path d="M77.8123 34.6367C78.5885 34.6303 79.3647 34.6238 80.1644 34.6172C91.8408 34.8758 103.641 40.1989 112.129 48.1406C125.121 62.0005 130.608 79.714 130.375 98.3867C130.365 99.5704 130.355 100.754 130.344 101.974C129.864 129.172 119.443 153.175 99.9998 172.137C99.2999 172.834 98.5999 173.531 97.8788 174.25C85.54 185.819 71.2875 190.772 54.6573 190.61C47.8396 190.383 42.0455 189.471 35.9999 186.137C35.229 185.713 34.4581 185.289 33.6639 184.852C18.4396 175.525 10.3805 161.008 5.99985 144.137C1.55913 116.333 8.07548 89.9243 23.6483 66.6758C36.7556 48.9649 55.0143 34.8148 77.8123 34.6367ZM38.9999 56.1367C38.3837 56.6691 37.7675 57.2015 37.1327 57.75C22.1312 71.6799 11.1314 94.6439 9.80698 115.118C9.22116 137.889 10.5555 156.645 26.742 174.031C36.2256 182.875 47.0739 186.817 59.9647 186.418C79.0411 184.65 92.5366 174.175 104.672 160.121C122.129 138.089 127.912 111.3 124.711 83.6436C122.216 68.9682 114.436 56.4519 103 47.1367C99.7761 45.0941 96.5663 43.4851 92.9998 42.1367C92.0704 41.7732 91.141 41.4097 90.1834 41.0352C71.4457 35.7472 52.8867 43.9681 38.9999 56.1367Z" fill="#1A1A1A"/>
<path d="M235 47.1367C241.446 50.1125 245.942 54.2316 251 59.1367C251.768 59.8792 252.537 60.6217 253.328 61.3867C269.677 78.3068 277.681 102.507 278.375 125.699C277.825 143.89 273.059 160.755 260.129 174.062C250.512 183.098 239.433 186.69 226.434 186.449C216.314 185.528 207.604 181.309 199 176.137C201 175.137 201 175.137 202.891 175.695C204.059 176.13 204.059 176.13 205.25 176.574C215.292 179.738 228.001 179.536 237.59 174.879C240.154 173.406 242.579 171.834 245 170.137C245.639 169.695 246.279 169.252 246.938 168.797C258.235 160.097 264.187 144.847 266 131.137C266.275 127.402 266.335 123.693 266.312 119.949C266.308 118.951 266.303 117.953 266.298 116.925C266.091 103.746 263.737 92.1011 258 80.1367C257.558 79.1519 257.116 78.167 256.66 77.1523C251.812 66.7846 245.496 57.5433 236.434 50.4414C235.961 50.0109 235.487 49.5803 235 49.1367C235 48.4767 235 47.8167 235 47.1367Z" fill="#C9C9C9"/>
<path d="M49 48.1367C49.66 48.4667 50.32 48.7967 51 49.1367C50.0512 50.003 49.1025 50.8692 48.125 51.7617C29.9742 70.1321 20.8312 94.0271 20.8125 119.574C20.8002 120.451 20.788 121.329 20.7754 122.232C20.7617 128.424 21.5684 134.12 23 140.137C23.2019 140.996 23.4038 141.855 23.6118 142.741C25.3423 149.755 28.8323 155.298 33 161.137C33.4744 161.81 33.9487 162.483 34.4375 163.176C38.388 168.271 43.432 171.041 49 174.137C49.99 174.797 50.98 175.457 52 176.137C61.5156 179.943 72.3125 178.732 82 176.137C83.9971 175.786 85.996 175.445 88 175.137C81.1432 182.673 69.8003 185.404 60.0273 186.457C47.1151 186.967 36.638 182.553 27 174.137C20.8602 168.458 17.2317 161.792 14 154.137C13.3754 152.702 13.3754 152.702 12.7383 151.238C5.18492 130.195 9.14114 104.779 18.1594 84.8105C25.1643 70.1235 35.6659 57.4871 49 48.1367Z" fill="#CACACA"/>
<path d="M200 113.137C200.392 114.044 200.784 114.952 201.188 115.887C203.151 119.408 204.538 121.091 208 123.137C211.79 123.463 214.394 123.339 218 122.137C222.599 129.454 224.109 135.487 223 144.137C221.256 148.501 218.392 153.185 214 155.137C208.81 156.154 204.855 155.471 200.312 152.762C194.773 148.706 192.008 143.152 189 137.137C188.824 134.724 188.733 132.305 188.688 129.887C188.65 128.582 188.613 127.278 188.574 125.934C189.155 120.752 191.25 117.727 195.062 114.262C197 113.137 197 113.137 200 113.137Z" fill="#101111"/>
<path d="M87.9999 113.137C91.9427 114.451 94.3796 115.884 96.9999 119.137C100.07 125.891 99.6285 131.844 97.3749 138.699C94.4251 146.146 90.4342 151.211 83.0116 154.477C78.3001 156.023 75.143 155.708 70.7499 153.512C66.7288 150.039 65.2212 147.495 64.7186 142.141C64.5344 135.502 64.8252 130.032 67.9999 124.137C70.7793 123.094 73.4937 123.03 76.4374 122.887C80.0478 122.513 80.939 122.185 83.9374 119.824C85.63 117.619 86.9555 115.7 87.9999 113.137Z" fill="#0F1010"/>
<path d="M192 0.136743C221.492 -0.507178 243.567 4.23173 265.701 24.9265C273.447 32.3489 280.081 40.1922 286 49.1367C285.505 50.1267 285.505 50.1267 285 51.1367C284.594 50.7044 284.188 50.2721 283.769 49.8267C268.179 33.373 247.864 16.1309 223.933 15.0427C221.579 15.0022 219.229 14.9986 216.875 15.0117C215.623 15.0146 215.623 15.0146 214.346 15.0176C207.863 15.0626 201.446 15.4163 195 16.1367C194.496 14.0335 193.997 11.9291 193.5 9.82424C193.082 8.06661 193.082 8.06661 192.656 6.27346C192 3.13674 192 3.13674 192 0.136743Z" fill="#151515"/>
<path d="M83.4375 0.0117188C84.9447 0.00591797 84.9447 0.00591797 86.4824 0C87.4357 0.00128906 88.3889 0.00257813 89.3711 0.00390625C90.6694 0.00559814 90.6694 0.00559814 91.9939 0.00732422C94 0.136719 94 0.136719 95 1.13672C94.8455 6.67486 93.6767 11.883 92 17.1367C91.0661 16.9202 91.0661 16.9202 90.1133 16.6992C67.5162 12.1609 47.3296 15.6958 28 28.1367C18.7413 34.4839 10.706 42.0061 3 50.1367C3 41.3947 14.5054 31.5995 20.4565 25.623C37.9788 8.74938 59.143 -0.0843701 83.4375 0.0117188Z" fill="#151515"/>
<path d="M209 101.137C213.885 103.775 217.999 106.786 219.64 112.281C220.411 116.581 220.447 118.452 218 122.199C214.178 124.667 212.475 124.985 208 124.137C204.4 121.941 201.744 119.366 199.562 115.762C198.751 111.978 198.629 109.026 199 105.137C201.707 100.971 204.182 100.366 209 101.137Z" fill="#FAFCFB"/>
<path d="M83.9999 101.137C86.3749 102.574 86.3749 102.574 87.9999 105.137C88.7109 109.419 88.5166 112.974 86.7499 116.949C86.1724 117.671 85.5949 118.393 84.9999 119.137C84.4636 119.879 83.9274 120.622 83.3749 121.387C79.8327 123.997 76.3517 124.44 71.9999 124.137C69.4374 122.762 69.4374 122.762 67.9999 120.137C67.1611 115.475 67.5345 112.085 69.6249 107.824C73.764 103.14 77.5287 100.011 83.9999 101.137Z" fill="#FBFDFC"/>
<path d="M16 36.1367C16.66 36.4667 17.32 36.7967 18 37.1367C15.3831 39.8114 12.7552 42.4751 10.125 45.1367C9.37863 45.8998 8.63227 46.663 7.86328 47.4492C7.14785 48.1711 6.43242 48.893 5.69531 49.6367C4.70555 50.6422 4.70555 50.6422 3.6958 51.668C2 53.1367 2 53.1367 0 53.1367C1.11441 49.7935 1.97472 49.0765 4.625 46.8867C8.63082 43.4955 12.3422 39.8974 16 36.1367Z" fill="#DCDCDC"/>
<path d="M52 46.1367C52.99 46.4667 53.98 46.7967 55 47.1367C51.37 50.7667 47.74 54.3967 44 58.1367C44 54.1754 45.3488 53.3076 48 50.4492C48.7425 49.641 49.485 48.8327 50.25 48C50.8275 47.3851 51.405 46.7702 52 46.1367Z" fill="#ECECEC"/>
<path d="M109 150.137C109.33 151.127 109.66 152.117 110 153.137C108.35 154.787 106.7 156.437 105 158.137C104.67 157.477 104.34 156.817 104 156.137C105.213 152.903 106.013 152.128 109 150.137Z" fill="#F1F4F3"/>
<path d="M230.39 257.748C235.718 262.624 240.753 267.467 244.39 273.748C248.56 269.717 250.664 266.295 252.39 260.748C252.72 260.748 253.05 260.748 253.39 260.748C253.976 267.112 253.721 271.691 249.956 276.99C246.702 280.642 243.061 283.191 238.39 284.748C235.899 284.844 233.442 284.887 230.952 284.873C229.633 284.876 228.315 284.878 226.956 284.881C224.187 284.778 221.999 284.589 219.39 283.748C219.39 283.088 219.39 282.428 219.39 281.748C220.403 281.615 221.416 281.482 222.46 281.346C223.811 281.167 225.163 280.989 226.515 280.811C227.512 280.68 227.512 280.68 228.53 280.547C232.498 280.022 236.446 279.43 240.39 278.748C229.383 258.05 206.789 246.656 185.202 239.998C150.165 229.971 109.299 232.192 76.9218 249.566C69.7909 253.546 63.466 258.294 57.3896 263.748C56.7103 264.356 56.0309 264.965 55.331 265.592C50.9644 269.724 48.7162 273.426 45.3896 278.748C52.3196 279.738 59.2496 280.728 66.3896 281.748C66.3896 282.408 66.3896 283.068 66.3896 283.748C59.4554 285.902 49.4459 286.208 42.7646 283.123C37.749 280.037 33.8652 275.516 32.3896 269.748C32.2422 266.739 32.2716 263.757 32.3896 260.748C33.0496 261.078 33.7096 261.408 34.3896 261.748C34.6784 262.635 34.9671 263.522 35.2646 264.436C36.4828 268.022 38.1967 270.678 40.3896 273.748C42.9115 271.327 45.2035 268.793 47.4521 266.123C67.8956 242.827 97.6374 231.279 128.184 228.946C164.897 226.673 201.851 233.081 230.39 257.748Z" fill="#1D1D1D"/>
<path d="M175.737 280.576C176.283 280.963 176.828 281.35 177.39 281.748C177.06 282.408 176.73 283.068 176.39 283.748C175.4 283.338 174.41 282.928 173.39 282.506C159.725 276.898 146.085 272.589 131.39 277.748C127.976 279.277 124.676 280.965 121.39 282.748C120.4 283.243 120.4 283.243 119.39 283.748C121.839 277.658 127.981 274.423 133.663 271.631C148.669 265.943 163.319 272 175.737 280.576Z" fill="#232323"/>
<path d="M31.3896 278.748C31.7196 278.748 32.0496 278.748 32.3896 278.748C32.4386 279.519 32.4876 280.29 32.538 281.084C32.6128 282.087 32.6876 283.09 32.7646 284.123C32.8342 285.121 32.9038 286.119 32.9755 287.146C33.1532 289.903 33.1532 289.903 35.3896 291.748C37.7547 292.049 40.134 292.243 42.5146 292.373C43.7959 292.448 45.0773 292.523 46.3974 292.6C47.3848 292.649 48.3723 292.698 49.3896 292.748C48.3896 294.748 48.3896 294.748 45.2646 295.873C41.346 296.758 38.3767 297.265 34.3896 296.748C31.4883 294.773 29.7026 293.365 29.0146 289.811C28.8908 285.725 29.5431 282.441 31.3896 278.748Z" fill="#2F2F2F"/>
<path d="M264.39 278.748C267.14 281.498 267.367 283.33 267.577 287.186C267.404 290.482 267.254 292.099 265.39 294.748C261.615 297.265 259.88 297.116 255.39 296.748C252.622 295.911 250.062 294.873 247.39 293.748C247.39 293.418 247.39 293.088 247.39 292.748C248.377 292.711 249.364 292.673 250.382 292.635C251.663 292.569 252.944 292.503 254.265 292.436C255.541 292.378 256.817 292.32 258.132 292.26C259.207 292.091 260.282 291.922 261.39 291.748C263.498 288.586 263.728 287.241 264.015 283.561C264.089 282.659 264.164 281.758 264.241 280.83C264.29 280.143 264.339 279.456 264.39 278.748Z" fill="#2F2F2F"/>
<path d="M250.39 192.748C250.06 193.408 249.73 194.068 249.39 194.748C247.104 195.162 247.104 195.162 244.327 195.373C243.408 195.448 242.489 195.523 241.542 195.6C240.832 195.649 240.121 195.698 239.39 195.748C239.39 195.088 239.39 194.428 239.39 193.748C247.015 191.623 247.015 191.623 250.39 192.748Z" fill="#3F3F3F"/>
<path d="M219.39 281.748C222.03 281.748 224.67 281.748 227.39 281.748C227.06 282.738 226.73 283.728 226.39 284.748C224.08 284.418 221.77 284.088 219.39 283.748C219.39 283.088 219.39 282.428 219.39 281.748Z" fill="#4A4A4A"/>
</svg>
